<svg width="31" height="30" viewBox="0 0 31 30" fill="none" xmlns="http://www.w3.org/2000/svg">
<path d="M7.51636 21.0066L7.112 21.3239L7.44028 21.7194C9.68649 24.4253 12.8367 25.5 15.5 25.5C18.1633 25.5 21.3135 24.4253 23.5597 21.7194L23.888 21.3239L23.4836 21.0066C21.2061 19.2197 18.3949 18.2485 15.5 18.2485C12.6051 18.2485 9.79392 19.2197 7.51636 21.0066ZM3.5 15C3.5 8.37614 8.87614 3 15.5 3C22.1239 3 27.5 8.37614 27.5 15C27.5 21.6239 22.1239 27 15.5 27C8.87614 27 3.5 21.6239 3.5 15ZM20.375 11.875C20.375 9.18636 18.1886 7 15.5 7C12.8114 7 10.625 9.18636 10.625 11.875C10.625 14.5636 12.8114 16.75 15.5 16.75C18.1886 16.75 20.375 14.5636 20.375 11.875Z" stroke="#767676"/>
</svg>
