<svg width="30" height="30" viewBox="0 0 30 30" fill="none" xmlns="http://www.w3.org/2000/svg">
<circle cx="15" cy="15" r="15" fill="#228B22"/>
<path d="M14.9999 22.619C19.2078 22.619 22.619 19.2079 22.619 15C22.619 10.7921 19.2078 7.38095 14.9999 7.38095C10.792 7.38095 7.38086 10.7921 7.38086 15C7.38086 19.2079 10.792 22.619 14.9999 22.619Z" stroke="white" stroke-linecap="round" stroke-linejoin="round"/>
<path d="M20.7142 19.7619C20.0837 17.5962 17.6666 16.881 14.9999 16.881C12.4028 16.881 9.98088 17.7086 9.28564 19.7619" stroke="white" stroke-linecap="round" stroke-linejoin="round"/>
<path fill-rule="evenodd" clip-rule="evenodd" d="M15 9.28571C15.7577 9.28571 16.4845 9.58673 17.0203 10.1225C17.5561 10.6584 17.8571 11.3851 17.8571 12.1428V14.0476C17.8571 14.8054 17.5561 15.5321 17.0203 16.0679C16.4845 16.6037 15.7577 16.9048 15 16.9048C14.2422 16.9048 13.5155 16.6037 12.9797 16.0679C12.4438 15.5321 12.1428 14.8054 12.1428 14.0476V12.1428C12.1428 11.3851 12.4438 10.6584 12.9797 10.1225C13.5155 9.58673 14.2422 9.28571 15 9.28571Z" stroke="white" stroke-linecap="round" stroke-linejoin="round"/>
</svg>
