<svg width="31" height="30" viewBox="0 0 31 30" fill="none" xmlns="http://www.w3.org/2000/svg">
<path d="M15.5 2.5C8.6 2.5 3 8.1 3 15C3 21.9 8.6 27.5 15.5 27.5C22.4 27.5 28 21.9 28 15C28 8.1 22.4 2.5 15.5 2.5ZM15.5 7.5C17.9125 7.5 19.875 9.4625 19.875 11.875C19.875 14.2875 17.9125 16.25 15.5 16.25C13.0875 16.25 11.125 14.2875 11.125 11.875C11.125 9.4625 13.0875 7.5 15.5 7.5ZM15.5 25C12.9625 25 9.9625 23.975 7.825 21.4C10.0145 19.6821 12.717 18.7485 15.5 18.7485C18.283 18.7485 20.9855 19.6821 23.175 21.4C21.0375 23.975 18.0375 25 15.5 25Z" fill="#228B22"/>
</svg>
