<svg width="55" height="51" viewBox="0 0 55 51" fill="none" xmlns="http://www.w3.org/2000/svg">
<path d="M6.4873 37.3382V14.463C6.4873 12.1754 8.48098 10.3038 10.9177 10.3038H44.1455C46.5822 10.3038 48.5759 12.1754 48.5759 14.463V37.3382C48.5759 39.6257 46.5822 41.4973 44.1455 41.4973H10.9177C8.48098 41.4973 6.4873 39.6257 6.4873 37.3382Z" fill="#FF9800"/>
<path d="M48.5759 22.7813V20.7017H35.2848C34.0664 20.7017 33.0696 19.7659 33.0696 18.6221C33.0696 17.4784 34.0664 16.5426 35.2848 16.5426H36.3924V14.463H35.2848C32.8481 14.463 30.8544 16.3346 30.8544 18.6221C30.8544 20.9097 32.8481 22.7813 35.2848 22.7813H38.6076V29.02H35.2848C32.1835 29.02 29.7468 31.3075 29.7468 34.2189C29.7468 37.1303 32.1835 39.4178 35.2848 39.4178H37.5V37.3382H35.2848C33.4019 37.3382 31.962 35.9865 31.962 34.2189C31.962 32.4513 33.4019 31.0995 35.2848 31.0995H48.5759V29.02H40.8227V22.7813H48.5759ZM19.7784 29.02H16.4557V22.7813H19.7784C22.2152 22.7813 24.2088 20.9097 24.2088 18.6221C24.2088 16.3346 22.2152 14.463 19.7784 14.463H16.4557V16.5426H19.7784C20.9968 16.5426 21.9936 17.4784 21.9936 18.6221C21.9936 19.7659 20.9968 20.7017 19.7784 20.7017H6.4873V22.7813H14.2405V29.02H6.4873V31.0995H19.7784C21.6614 31.0995 23.1012 32.4513 23.1012 34.2189C23.1012 35.9865 21.6614 37.3382 19.7784 37.3382H17.5633V39.4178H19.7784C22.8797 39.4178 25.3164 37.1303 25.3164 34.2189C25.3164 31.3075 22.8797 29.02 19.7784 29.02Z" fill="#FFD54F"/>
</svg>
