<svg width="19" height="22" viewBox="0 0 19 22" fill="none" xmlns="http://www.w3.org/2000/svg">
<path d="M17.8334 4.35713C17.5155 3.24523 17.1191 2.45237 16.6429 1.97618C16.1667 1.49999 15.3739 1.10356 14.262 0.785706M1.27148 4.35713C1.52029 3.24523 1.88101 2.45237 2.3572 1.97618C2.83339 1.49999 3.66196 1.10356 4.84291 0.785706M12.4762 19.2381C11.6822 20.4286 10.6905 21.0238 9.50006 21.0238C8.30958 21.0238 7.31791 20.4286 6.52386 19.2381M15.5536 17.4524H3.44648C3.09867 17.4525 2.75705 17.3603 2.45654 17.1852C2.15603 17.0101 1.90741 16.7583 1.73609 16.4556C1.56476 16.153 1.47688 15.8102 1.48143 15.4624C1.48598 15.1146 1.58278 14.7743 1.76196 14.4762C2.93033 12.5289 3.54756 10.3007 3.54767 8.02975V6.73809C3.54767 5.47515 4.04937 4.26394 4.9424 3.37091C5.83543 2.47788 7.04664 1.97618 8.30958 1.97618H10.6905C11.9535 1.97618 13.1647 2.47788 14.0577 3.37091C14.9507 4.26394 15.4524 5.47515 15.4524 6.73809V8.02975C15.4524 10.3 16.0691 12.5298 17.2382 14.4762C17.4173 14.7743 17.5141 15.1146 17.5187 15.4624C17.5232 15.8102 17.4353 16.153 17.264 16.4556C17.0927 16.7583 16.8441 17.0101 16.5436 17.1852C16.2431 17.3603 15.9014 17.4525 15.5536 17.4524Z" stroke="#F5F5F5" stroke-linecap="round" stroke-linejoin="round"/>
</svg>
