<svg width="15" height="15" viewBox="0 0 15 15" fill="none" xmlns="http://www.w3.org/2000/svg">
<path d="M1.78613 4.64291H13.2147M3.2147 1.78577H11.7861C12.165 1.78577 12.5284 1.93628 12.7963 2.20419C13.0642 2.47209 13.2147 2.83546 13.2147 3.21434V11.7858C13.2147 12.1646 13.0642 12.528 12.7963 12.7959C12.5284 13.0638 12.165 13.2143 11.7861 13.2143H3.2147C2.83582 13.2143 2.47246 13.0638 2.20455 12.7959C1.93664 12.528 1.78613 12.1646 1.78613 11.7858V3.21434C1.78613 2.83546 1.93664 2.47209 2.20455 2.20419C2.47246 1.93628 2.83582 1.78577 3.2147 1.78577Z" stroke="#767676" stroke-linecap="round" stroke-linejoin="round"/>
<path d="M7.50042 8.21434C7.89491 8.21434 8.2147 7.89454 8.2147 7.50005C8.2147 7.10556 7.89491 6.78577 7.50042 6.78577C7.10593 6.78577 6.78613 7.10556 6.78613 7.50005C6.78613 7.89454 7.10593 8.21434 7.50042 8.21434Z" fill="#767676"/>
<path d="M4.643 8.21434C5.03749 8.21434 5.35728 7.89454 5.35728 7.50005C5.35728 7.10556 5.03749 6.78577 4.643 6.78577C4.24851 6.78577 3.92871 7.10556 3.92871 7.50005C3.92871 7.89454 4.24851 8.21434 4.643 8.21434Z" fill="#767676"/>
<path d="M10.3569 8.21434C10.7514 8.21434 11.0711 7.89454 11.0711 7.50005C11.0711 7.10556 10.7514 6.78577 10.3569 6.78577C9.96237 6.78577 9.64258 7.10556 9.64258 7.50005C9.64258 7.89454 9.96237 8.21434 10.3569 8.21434Z" fill="#767676"/>
<path d="M7.50042 11.0715C7.89491 11.0715 8.2147 10.7517 8.2147 10.3572C8.2147 9.96274 7.89491 9.64294 7.50042 9.64294C7.10593 9.64294 6.78613 9.96274 6.78613 10.3572C6.78613 10.7517 7.10593 11.0715 7.50042 11.0715Z" fill="#767676"/>
<path d="M4.643 11.0715C5.03749 11.0715 5.35728 10.7517 5.35728 10.3572C5.35728 9.96274 5.03749 9.64294 4.643 9.64294C4.24851 9.64294 3.92871 9.96274 3.92871 10.3572C3.92871 10.7517 4.24851 11.0715 4.643 11.0715Z" fill="#767676"/>
<path d="M10.3569 11.0715C10.7514 11.0715 11.0711 10.7517 11.0711 10.3572C11.0711 9.96274 10.7514 9.64294 10.3569 9.64294C9.96237 9.64294 9.64258 9.96274 9.64258 10.3572C9.64258 10.7517 9.96237 11.0715 10.3569 11.0715Z" fill="#767676"/>
</svg>
