<svg width="20" height="20" viewBox="0 0 20 20" fill="none" xmlns="http://www.w3.org/2000/svg">
<path d="M2.38086 6.19047H17.619M4.28562 2.38095H15.7142C16.2194 2.38095 16.7039 2.58163 17.0611 2.93884C17.4183 3.29605 17.619 3.78054 17.619 4.28571V15.7143C17.619 16.2195 17.4183 16.7039 17.0611 17.0612C16.7039 17.4184 16.2194 17.619 15.7142 17.619H4.28562C3.78045 17.619 3.29596 17.4184 2.93875 17.0612C2.58154 16.7039 2.38086 16.2195 2.38086 15.7143V4.28571C2.38086 3.78054 2.58154 3.29605 2.93875 2.93884C3.29596 2.58163 3.78045 2.38095 4.28562 2.38095Z" stroke="#767676" stroke-linecap="round" stroke-linejoin="round"/>
<path d="M9.99974 10.9524C10.5257 10.9524 10.9521 10.526 10.9521 9.99999C10.9521 9.474 10.5257 9.04761 9.99974 9.04761C9.47376 9.04761 9.04736 9.474 9.04736 9.99999C9.04736 10.526 9.47376 10.9524 9.99974 10.9524Z" fill="#767676"/>
<path d="M6.19017 10.9524C6.71616 10.9524 7.14255 10.526 7.14255 9.99999C7.14255 9.474 6.71616 9.04761 6.19017 9.04761C5.66419 9.04761 5.23779 9.474 5.23779 9.99999C5.23779 10.526 5.66419 10.9524 6.19017 10.9524Z" fill="#767676"/>
<path d="M13.8093 10.9524C14.3353 10.9524 14.7617 10.526 14.7617 9.99999C14.7617 9.474 14.3353 9.04761 13.8093 9.04761C13.2833 9.04761 12.8569 9.474 12.8569 9.99999C12.8569 10.526 13.2833 10.9524 13.8093 10.9524Z" fill="#767676"/>
<path d="M9.99974 14.7619C10.5257 14.7619 10.9521 14.3355 10.9521 13.8095C10.9521 13.2835 10.5257 12.8571 9.99974 12.8571C9.47376 12.8571 9.04736 13.2835 9.04736 13.8095C9.04736 14.3355 9.47376 14.7619 9.99974 14.7619Z" fill="#767676"/>
<path d="M6.19017 14.7619C6.71616 14.7619 7.14255 14.3355 7.14255 13.8095C7.14255 13.2835 6.71616 12.8571 6.19017 12.8571C5.66419 12.8571 5.23779 13.2835 5.23779 13.8095C5.23779 14.3355 5.66419 14.7619 6.19017 14.7619Z" fill="#767676"/>
<path d="M13.8093 14.7619C14.3353 14.7619 14.7617 14.3355 14.7617 13.8095C14.7617 13.2835 14.3353 12.8571 13.8093 12.8571C13.2833 12.8571 12.8569 13.2835 12.8569 13.8095C12.8569 14.3355 13.2833 14.7619 13.8093 14.7619Z" fill="#767676"/>
</svg>
