<svg width="30" height="30" viewBox="0 0 30 30" fill="none" xmlns="http://www.w3.org/2000/svg">
<path fill-rule="evenodd" clip-rule="evenodd" d="M7.14272 9.28573H24.9999L22.7341 17.2143C22.5634 17.8111 22.203 18.3361 21.7073 18.7099C21.2117 19.0836 20.6078 19.2858 19.987 19.2857H10.4156C9.71195 19.2861 9.03292 19.0269 8.5086 18.5577C7.98428 18.0884 7.65154 17.4422 7.57415 16.7429L6.42843 6.42859H3.57129" fill="#228B22"/>
<path d="M9.99986 24.2857C10.7888 24.2857 11.4284 23.6461 11.4284 22.8572C11.4284 22.0682 10.7888 21.4286 9.99986 21.4286C9.21088 21.4286 8.57129 22.0682 8.57129 22.8572C8.57129 23.6461 9.21088 24.2857 9.99986 24.2857Z" fill="#228B22"/>
<path d="M21.4286 24.2857C22.2175 24.2857 22.8571 23.6461 22.8571 22.8572C22.8571 22.0682 22.2175 21.4286 21.4286 21.4286C20.6396 21.4286 20 22.0682 20 22.8572C20 23.6461 20.6396 24.2857 21.4286 24.2857Z" fill="#228B22"/>
</svg>
