<svg width="30" height="30" viewBox="0 0 30 30" fill="none" xmlns="http://www.w3.org/2000/svg">
<path fill-rule="evenodd" clip-rule="evenodd" d="M23.5715 5C24.3293 5 25.056 5.30102 25.5918 5.83684C26.1277 6.37266 26.4287 7.09938 26.4287 7.85714V22.1429C26.4287 22.9006 26.1277 23.6273 25.5918 24.1632C25.056 24.699 24.3293 25 23.5715 25L19.2872 24.9986L16.0101 28.2757C15.7641 28.5217 15.4368 28.6694 15.0896 28.6913C14.7425 28.7131 14.3993 28.6075 14.1244 28.3943L13.9901 28.2757L10.713 24.9986L6.42868 25C5.67091 25 4.94419 24.699 4.40837 24.1632C3.87255 23.6273 3.57153 22.9006 3.57153 22.1429V7.85714C3.57153 7.09938 3.87255 6.37266 4.40837 5.83684C4.94419 5.30102 5.67091 5 6.42868 5H23.5715Z" fill="white"/>
<path fill-rule="evenodd" clip-rule="evenodd" d="M14.9986 16.4286C15.7129 16.4286 16.4272 15.7143 16.4272 15C16.4272 14.2857 15.7129 13.5714 14.9986 13.5714C14.2843 13.5714 13.5715 14.2857 13.5715 15C13.5715 15.7143 14.2843 16.4286 14.9986 16.4286ZM9.28432 16.4286C9.99861 16.4286 10.7129 15.7143 10.7129 15C10.7129 14.2857 9.99861 13.5714 9.28432 13.5714C8.57003 13.5714 7.85718 14.2857 7.85718 15C7.85718 15.7143 8.57003 16.4286 9.28432 16.4286ZM20.7129 16.4286C21.4272 16.4286 22.1415 15.7143 22.1415 15C22.1415 14.2857 21.4272 13.5714 20.7129 13.5714C19.9986 13.5714 19.2857 14.2857 19.2857 15C19.2857 15.7143 19.9986 16.4286 20.7129 16.4286Z" fill="#228B22"/>
</svg>
