<svg width="10" height="18" viewBox="0 0 10 18" fill="none" xmlns="http://www.w3.org/2000/svg">
<path d="M1.53055 0.969376L9.03055 8.46938C9.10029 8.53903 9.15561 8.62175 9.19335 8.7128C9.23109 8.80385 9.25052 8.90144 9.25052 9C9.25052 9.09856 9.23109 9.19616 9.19335 9.28721C9.15561 9.37826 9.10029 9.46097 9.03055 9.53063L1.53055 17.0306C1.38982 17.1714 1.19895 17.2504 0.999929 17.2504C0.800906 17.2504 0.610034 17.1714 0.469303 17.0306C0.328573 16.8899 0.249512 16.699 0.249512 16.5C0.249512 16.301 0.328573 16.1101 0.469303 15.9694L7.43962 9L0.469303 2.03063C0.39962 1.96094 0.344345 1.87822 0.306633 1.78717C0.268921 1.69613 0.249511 1.59855 0.249511 1.5C0.249511 1.40146 0.268921 1.30387 0.306633 1.21283C0.344345 1.12178 0.39962 1.03906 0.469303 0.969376C0.538985 0.899694 0.621711 0.844419 0.712756 0.806707C0.8038 0.768995 0.901382 0.749584 0.999928 0.749584C1.09847 0.749584 1.19606 0.768995 1.2871 0.806707C1.37815 0.844419 1.46087 0.899694 1.53055 0.969376Z" fill="#838383"/>
</svg>
