<svg width="19" height="17" viewBox="0 0 19 17" fill="none" xmlns="http://www.w3.org/2000/svg">
<path d="M4.73842 1.35693V15.6426M14.2622 1.35693V15.6426M14.2622 4.92836H17.8337M14.2622 12.0712H17.8337M1.16699 4.92836H4.73842M1.16699 8.49979H17.8337M1.16699 12.0712H4.73842M3.54794 1.35693H15.4527C16.0842 1.35693 16.6898 1.60778 17.1363 2.0543C17.5828 2.50081 17.8337 3.10642 17.8337 3.73789V13.2617C17.8337 13.8932 17.5828 14.4988 17.1363 14.9453C16.6898 15.3918 16.0842 15.6426 15.4527 15.6426H3.54794C2.91648 15.6426 2.31087 15.3918 1.86436 14.9453C1.41784 14.4988 1.16699 13.8932 1.16699 13.2617V3.73789C1.16699 3.10642 1.41784 2.50081 1.86436 2.0543C2.31087 1.60778 2.91648 1.35693 3.54794 1.35693Z" stroke="#767676" stroke-linecap="round" stroke-linejoin="round"/>
</svg>
