<svg width="19" height="19" viewBox="0 0 19 19" fill="none" xmlns="http://www.w3.org/2000/svg">
<path d="M3.54794 1.1665H15.4527C16.0842 1.1665 16.6898 1.41735 17.1363 1.86387C17.5828 2.31038 17.8337 2.91599 17.8337 3.54746V15.4522C17.8337 16.0837 17.5828 16.6893 17.1363 17.1358C16.6898 17.5823 16.0842 17.8332 15.4527 17.8332H3.54794C2.91648 17.8332 2.31087 17.5823 1.86436 17.1358C1.41784 16.6893 1.16699 16.0837 1.16699 15.4522V3.54746C1.16699 2.91599 1.41784 2.31038 1.86436 1.86387C2.31087 1.41735 2.91648 1.1665 3.54794 1.1665ZM5.9289 14.1844V4.73793V14.1844ZM9.50033 14.2439V9.49984V14.2439ZM13.0718 14.2617V7.11889V14.2617Z" fill="#228B22"/>
<path d="M5.9289 14.1844V4.73793M9.50033 14.2439V9.49984M13.0718 14.2617V7.11888M3.54794 1.1665H15.4527C16.0842 1.1665 16.6898 1.41735 17.1363 1.86387C17.5828 2.31038 17.8337 2.91599 17.8337 3.54746V15.4522C17.8337 16.0837 17.5828 16.6893 17.1363 17.1358C16.6898 17.5823 16.0842 17.8332 15.4527 17.8332H3.54794C2.91648 17.8332 2.31087 17.5823 1.86436 17.1358C1.41784 16.6893 1.16699 16.0837 1.16699 15.4522V3.54746C1.16699 2.91599 1.41784 2.31038 1.86436 1.86387C2.31087 1.41735 2.91648 1.1665 3.54794 1.1665Z" stroke="#F5F5F5" stroke-linecap="round" stroke-linejoin="round"/>
</svg>
