<svg width="21" height="22" viewBox="0 0 21 22" fill="none" xmlns="http://www.w3.org/2000/svg">
<path d="M8.625 4H12.375C12.375 3.50272 12.1775 3.02581 11.8258 2.67417C11.4742 2.32254 10.9973 2.125 10.5 2.125C10.0027 2.125 9.52581 2.32254 9.17417 2.67417C8.82254 3.02581 8.625 3.50272 8.625 4ZM7.375 4C7.375 3.1712 7.70424 2.37634 8.29029 1.79029C8.87634 1.20424 9.6712 0.875 10.5 0.875C11.3288 0.875 12.1237 1.20424 12.7097 1.79029C13.2958 2.37634 13.625 3.1712 13.625 4H19.875C20.0408 4 20.1997 4.06585 20.3169 4.18306C20.4342 4.30027 20.5 4.45924 20.5 4.625C20.5 4.79076 20.4342 4.94973 20.3169 5.06694C20.1997 5.18415 20.0408 5.25 19.875 5.25H18.5575L17.065 18.18C16.9595 19.094 16.5217 19.9373 15.8348 20.5495C15.148 21.1616 14.2601 21.4999 13.34 21.5H7.66C6.73994 21.4999 5.85202 21.1616 5.16517 20.5495C4.47833 19.9373 4.0405 19.094 3.935 18.18L2.4425 5.25H1.125C0.95924 5.25 0.800269 5.18415 0.683058 5.06694C0.565848 4.94973 0.5 4.79076 0.5 4.625C0.5 4.45924 0.565848 4.30027 0.683058 4.18306C0.800269 4.06585 0.95924 4 1.125 4H7.375ZM5.17625 18.0375C5.24678 18.6467 5.53881 19.2088 5.99677 19.6168C6.45474 20.0247 7.04668 20.2501 7.66 20.25H13.34C13.9533 20.2501 14.5453 20.0247 15.0032 19.6168C15.4612 19.2088 15.7532 18.6467 15.8237 18.0375L17.2987 5.25H3.70125L5.17625 18.0375ZM8.625 8.375C8.79076 8.375 8.94973 8.44085 9.06694 8.55806C9.18415 8.67527 9.25 8.83424 9.25 9V16.5C9.25 16.6658 9.18415 16.8247 9.06694 16.9419C8.94973 17.0592 8.79076 17.125 8.625 17.125C8.45924 17.125 8.30027 17.0592 8.18306 16.9419C8.06585 16.8247 8 16.6658 8 16.5V9C8 8.83424 8.06585 8.67527 8.18306 8.55806C8.30027 8.44085 8.45924 8.375 8.625 8.375ZM13 9C13 8.83424 12.9342 8.67527 12.8169 8.55806C12.6997 8.44085 12.5408 8.375 12.375 8.375C12.2092 8.375 12.0503 8.44085 11.9331 8.55806C11.8158 8.67527 11.75 8.83424 11.75 9V16.5C11.75 16.6658 11.8158 16.8247 11.9331 16.9419C12.0503 17.0592 12.2092 17.125 12.375 17.125C12.5408 17.125 12.6997 17.0592 12.8169 16.9419C12.9342 16.8247 13 16.6658 13 16.5V9Z" fill="#D50000"/>
</svg>
