<svg width="23" height="23" viewBox="0 0 23 23" fill="none" xmlns="http://www.w3.org/2000/svg">
<g clip-path="url(#clip0_43_1025)">
<path d="M20.4444 8.30554H15.3333C14.9944 8.30554 14.6694 8.44016 14.4298 8.67979C14.1902 8.91942 14.0555 9.24443 14.0555 9.58332V19.1667C14.0555 19.5055 14.1902 19.8305 14.4298 20.0702C14.6694 20.3098 14.9944 20.4444 15.3333 20.4444H20.4444C20.7833 20.4444 21.1083 20.3098 21.348 20.0702C21.5876 19.8305 21.7222 19.5055 21.7222 19.1667V9.58332C21.7222 9.24443 21.5876 8.91942 21.348 8.67979C21.1083 8.44016 20.7833 8.30554 20.4444 8.30554ZM20.4444 9.58332V17.8889H15.3333V9.58332H20.4444Z" fill="#228B22"/>
<path d="M17.8889 2.55554H2.55561C2.21672 2.55554 1.89171 2.69016 1.65208 2.92979C1.41245 3.16942 1.27783 3.49443 1.27783 3.83332V14.0555C1.27783 14.3944 1.41245 14.7194 1.65208 14.9591C1.89171 15.1987 2.21672 15.3333 2.55561 15.3333H7.66672V16.6111H5.9545C5.75877 16.5889 5.56198 16.6428 5.40496 16.7618C5.24794 16.8807 5.14274 17.0555 5.11117 17.25C5.14274 17.4444 5.24794 17.6193 5.40496 17.7382C5.56198 17.8572 5.75877 17.9111 5.9545 17.8889H12.7267V17.6525H12.7778V14.0555H2.55561V3.83332H17.8889V7.02776H19.1667V3.83332C19.1667 3.49443 19.0321 3.16942 18.7925 2.92979C18.5528 2.69016 18.2278 2.55554 17.8889 2.55554Z" fill="#228B22"/>
</g>
<defs>
<clipPath id="clip0_43_1025">
<rect width="23" height="23" fill="white"/>
</clipPath>
</defs>
</svg>
