<svg width="25" height="25" viewBox="0 0 25 25" fill="none" xmlns="http://www.w3.org/2000/svg">
<path d="M19.8051 10.5729C19.74 10.6397 19.6923 10.7214 19.6659 10.8109C19.6396 10.9004 19.6355 10.995 19.6541 11.0864C19.7457 11.5448 19.7916 12.0159 19.7916 12.5C19.7915 13.97 19.3471 15.4056 18.5166 16.6186C17.6862 17.8316 16.5085 18.7653 15.1381 19.2971C13.7677 19.829 12.2685 19.9342 10.8372 19.599C9.40591 19.2638 8.10936 18.5038 7.11762 17.4187C7.06844 17.3636 7.00868 17.3189 6.9419 17.2872C6.87512 17.2556 6.80267 17.2377 6.72884 17.2346C6.65501 17.2315 6.58131 17.2432 6.51211 17.2691C6.4429 17.295 6.3796 17.3346 6.32595 17.3854C6.2348 17.4737 6.18105 17.5936 6.17582 17.7204C6.17058 17.8472 6.21426 17.9711 6.29783 18.0666C7.52152 19.4311 9.1609 20.3541 10.9622 20.6927C12.7634 21.0313 14.6261 20.7667 16.2617 19.9397C17.8974 19.1128 19.2148 17.7696 20.0099 16.1183C20.8051 14.467 21.0337 12.5996 20.6603 10.8052C20.578 10.4062 20.0926 10.2864 19.8051 10.5739M18.5301 7.45935C18.623 7.36938 18.677 7.24661 18.6805 7.11734C18.684 6.98806 18.6368 6.86255 18.5489 6.76768C17.2943 5.44256 15.6395 4.56586 13.8385 4.2722C12.0375 3.97854 10.1899 4.28415 8.57934 5.14211C6.96882 6.00007 5.68443 7.36294 4.92339 9.02145C4.16236 10.68 3.96674 12.5424 4.36658 14.3229C4.45408 14.7166 4.93533 14.8323 5.22075 14.5468C5.35616 14.4114 5.40825 14.2135 5.36866 14.026C5.03663 12.4763 5.21856 10.8606 5.8869 9.42352C6.55525 7.98645 7.67362 6.80626 9.07269 6.06164C10.4718 5.31702 12.0753 5.0485 13.6407 5.29675C15.206 5.54501 16.6478 6.2965 17.7478 7.43747C17.7977 7.49027 17.8574 7.53273 17.9236 7.56241C17.9899 7.59209 18.0613 7.60841 18.1339 7.61044C18.2065 7.61248 18.2787 7.60018 18.3465 7.57425C18.4144 7.54832 18.4774 7.50928 18.5301 7.45935Z" fill="#767676"/>
<path fill-rule="evenodd" clip-rule="evenodd" d="M18.8799 5.20801C19.018 5.20801 19.1505 5.26288 19.2482 5.36056C19.3458 5.45823 19.4007 5.59071 19.4007 5.72884V7.81217C19.4007 7.95031 19.3458 8.08278 19.2482 8.18046C19.1505 8.27813 19.018 8.33301 18.8799 8.33301H16.7965C16.6584 8.33301 16.5259 8.27813 16.4283 8.18046C16.3306 8.08278 16.2757 7.95031 16.2757 7.81217C16.2757 7.67404 16.3306 7.54156 16.4283 7.44389C16.5259 7.34621 16.6584 7.29134 16.7965 7.29134H18.359V5.72884C18.359 5.59071 18.4139 5.45823 18.5116 5.36056C18.6093 5.26288 18.7417 5.20801 18.8799 5.20801ZM5.75072 16.8195C5.79909 16.7709 5.85656 16.7324 5.91984 16.7062C5.98311 16.6799 6.05095 16.6664 6.11947 16.6663H8.2028C8.34093 16.6663 8.47341 16.7212 8.57109 16.8189C8.66876 16.9166 8.72363 17.049 8.72363 17.1872C8.72363 17.3253 8.66876 17.4578 8.57109 17.5555C8.47341 17.6531 8.34093 17.708 8.2028 17.708H6.6403V19.2705C6.6403 19.4086 6.58543 19.5411 6.48775 19.6388C6.39008 19.7365 6.2576 19.7913 6.11947 19.7913C5.98133 19.7913 5.84886 19.7365 5.75118 19.6388C5.65351 19.5411 5.59863 19.4086 5.59863 19.2705V17.1872C5.59851 17.1187 5.61188 17.0509 5.63798 16.9877C5.66407 16.9244 5.70238 16.8679 5.75072 16.8195Z" fill="#767676"/>
<path d="M12.7329 12.848V14.8699C13.4225 14.7928 13.9184 14.3938 13.9184 13.822C13.9184 13.2407 13.3715 13.0241 12.7559 12.8532L12.7329 12.848ZM11.2402 11.0991C11.2402 11.6772 11.834 11.9168 12.2663 12.0386V10.147C11.6392 10.2303 11.2402 10.6053 11.2402 11.0991Z" fill="#767676"/>
<path fill-rule="evenodd" clip-rule="evenodd" d="M12.5003 17.7087C13.8817 17.7087 15.2064 17.1599 16.1832 16.1832C17.1599 15.2064 17.7087 13.8817 17.7087 12.5003C17.7087 11.119 17.1599 9.79423 16.1832 8.81748C15.2064 7.84073 13.8817 7.29199 12.5003 7.29199C11.119 7.29199 9.79423 7.84073 8.81748 8.81748C7.84073 9.79423 7.29199 11.119 7.29199 12.5003C7.29199 13.8817 7.84073 15.2064 8.81748 16.1832C9.79423 17.1599 11.119 17.7087 12.5003 17.7087ZM12.7337 16.1462H12.267V15.5107C11.1472 15.4378 10.4639 14.8107 10.3982 13.9128H11.1274C11.1795 14.4993 11.6691 14.8076 12.267 14.8701V12.7139L12.0389 12.6482C11.1274 12.3868 10.5576 11.9191 10.5576 11.1337C10.5576 10.2378 11.2899 9.61803 12.266 9.51908V8.85449H12.7347V9.5097C13.766 9.57845 14.4951 10.2107 14.5222 11.042H13.8389C13.7764 10.5232 13.3378 10.1982 12.7347 10.1389V12.1639L12.9618 12.2264C13.566 12.3868 14.6024 12.7399 14.6024 13.8337C14.6024 14.7222 13.9305 15.4285 12.7337 15.5107V16.1462Z" fill="#767676"/>
</svg>
