<svg width="250" height="283" viewBox="0 0 250 283" fill="none" xmlns="http://www.w3.org/2000/svg">
<g clip-path="url(#clip0_2108_5243)">
<path d="M169.453 222.833C177.389 215.351 181.481 204.142 177.218 194.66C171.011 204.201 160.793 211.715 148.947 215.451C144.332 216.905 139.026 218.106 136.517 221.775C134.955 224.059 134.841 226.918 135.545 229.504C136.248 232.089 137.697 234.467 139.132 236.813L139.14 237.476C150.37 234.615 161.517 230.316 169.453 222.833Z" fill="#F2F2F2"/>
<path d="M176.979 194.71C175.641 202.967 171.263 210.906 164.568 216.891C163.115 218.245 161.466 219.371 159.677 220.231C157.836 221.048 155.829 221.419 153.818 221.315C151.924 221.255 149.994 221.002 148.116 221.344C147.195 221.506 146.316 221.852 145.531 222.363C144.747 222.873 144.073 223.536 143.551 224.313C142.306 226.147 141.892 228.261 141.571 230.341C141.213 232.65 140.884 235.053 139.366 237.04C139.182 237.28 139.622 237.514 139.806 237.274C142.447 233.818 141.563 229.402 143.345 225.675C144.177 223.936 145.616 222.405 147.767 221.88C149.647 221.42 151.638 221.679 153.555 221.755C155.52 221.88 157.489 221.582 159.329 220.881C161.162 220.103 162.858 219.035 164.35 217.716C167.618 214.919 170.411 211.609 172.618 207.915C175.068 203.868 176.724 199.389 177.495 194.72C177.541 194.434 177.025 194.427 176.979 194.71Z" fill="white"/>
<path d="M166.862 215.045C168.225 215.892 169.817 216.291 171.417 216.189C173.018 216.087 174.546 215.487 175.791 214.474C176.026 214.271 175.674 213.943 175.438 214.146C174.281 215.091 172.858 215.65 171.368 215.742C169.878 215.835 168.396 215.457 167.131 214.663C166.864 214.491 166.596 214.875 166.862 215.045Z" fill="white"/>
<path d="M154.774 221.456C154.509 220.014 154.551 218.531 154.9 217.107C155.248 215.682 155.893 214.348 156.793 213.191C156.976 212.95 156.536 212.715 156.354 212.956C155.419 214.162 154.751 215.552 154.392 217.035C154.033 218.518 153.992 220.061 154.272 221.561C154.327 221.846 154.828 221.74 154.774 221.456Z" fill="white"/>
<path d="M174.415 203.747C173.852 203.546 173.35 203.205 172.956 202.755C172.562 202.305 172.29 201.762 172.164 201.177C172.113 200.891 171.612 200.998 171.663 201.282C171.804 201.927 172.106 202.526 172.54 203.024C172.974 203.522 173.526 203.902 174.145 204.13C174.204 204.159 174.271 204.168 174.335 204.155C174.4 204.141 174.458 204.106 174.5 204.056C174.517 204.031 174.529 204.002 174.534 203.972C174.539 203.942 174.537 203.911 174.529 203.882C174.521 203.852 174.506 203.825 174.487 203.802C174.467 203.778 174.442 203.76 174.415 203.747Z" fill="white"/>
<path d="M139.585 183.879C139.61 184.058 139.636 184.237 139.659 184.419C139.993 186.827 140.102 189.26 139.984 191.688C139.979 191.876 139.97 192.066 139.958 192.253C139.584 198.16 137.977 203.923 135.239 209.168C134.126 211.31 132.84 213.357 131.394 215.289C129.38 217.986 126.95 220.77 126.102 223.799C126.01 224.112 125.94 224.432 125.893 224.756L138.209 237.434C138.254 237.45 138.295 237.469 138.34 237.486L138.805 238.012C138.888 237.916 138.972 237.814 139.056 237.718C139.104 237.663 139.15 237.604 139.199 237.549C139.23 237.511 139.262 237.473 139.293 237.44C139.303 237.427 139.313 237.415 139.321 237.404C139.352 237.372 139.376 237.339 139.404 237.308C139.875 236.743 140.343 236.175 140.807 235.602C140.81 235.6 140.81 235.6 140.811 235.594C144.333 231.223 147.466 226.558 149.687 221.627C149.753 221.479 149.824 221.328 149.885 221.174C150.865 218.964 151.642 216.668 152.204 214.315C152.504 213.038 152.729 211.745 152.88 210.441C153.26 207.077 153.029 203.671 152.199 200.389C150.541 193.813 146.483 187.771 140.077 184.151C139.913 184.059 139.752 183.969 139.585 183.879Z" fill="#F2F2F2"/>
<path d="M139.428 184.044C144.073 191.337 146.07 199.97 144.866 208.255C144.648 210.079 144.108 211.85 143.272 213.484C142.341 215.127 140.984 216.487 139.344 217.42C137.79 218.364 136.074 219.173 134.811 220.429C134.189 221.041 133.721 221.791 133.445 222.619C133.169 223.447 133.092 224.328 133.221 225.192C133.496 227.308 134.629 229.213 135.811 231.042C137.123 233.073 138.523 235.164 138.686 237.545C138.706 237.833 139.219 237.79 139.199 237.502C138.917 233.359 135.155 230.296 133.999 226.387C133.46 224.563 133.549 222.586 134.903 221.04C136.087 219.688 137.855 218.852 139.438 217.908C141.057 217.013 142.432 215.735 143.444 214.185C144.372 212.598 144.989 210.848 145.263 209.028C145.936 204.998 145.874 200.88 145.082 196.871C144.182 192.215 142.404 187.772 139.846 183.781C139.685 183.529 139.268 183.793 139.428 184.044Z" fill="white"/>
<path d="M145.421 205.58C148.794 205.549 151.672 203.347 152.155 200.447C152.202 200.161 151.694 200.083 151.647 200.369C151.195 203.087 148.525 205.105 145.371 205.133C145.04 205.136 145.091 205.583 145.421 205.58Z" fill="white"/>
<path d="M140.205 217.031C139.038 216.1 138.072 214.941 137.366 213.625C136.66 212.309 136.229 210.862 136.098 209.374C136.077 209.085 135.564 209.129 135.585 209.417C135.724 210.966 136.177 212.47 136.915 213.839C137.652 215.207 138.66 216.411 139.877 217.377C140.118 217.576 140.445 217.229 140.205 217.031Z" fill="white"/>
<path d="M143.633 192.602C143.01 192.729 142.366 192.717 141.748 192.566C141.13 192.415 140.553 192.129 140.058 191.729C139.819 191.528 139.493 191.875 139.73 192.075C140.279 192.515 140.917 192.83 141.599 192.998C142.282 193.166 142.993 193.184 143.683 193.049C143.82 193.022 143.928 192.936 143.915 192.804C143.902 192.741 143.866 192.685 143.814 192.647C143.762 192.61 143.697 192.594 143.633 192.602Z" fill="white"/>
<path d="M111.045 237.099C95.7156 247.597 80.4741 250.261 68.1285 244.601C52.2857 237.338 42.6887 217.342 41.7983 189.739L42.7369 189.827C43.6146 217.046 52.9846 236.721 68.4441 243.808C80.4588 249.316 95.3711 246.668 110.434 236.354L111.045 237.099Z" fill="#F2F2F2"/>
<path d="M205.778 59.358C204.269 76.0163 199.968 93.5816 193.223 110.53C184.882 131.488 173.487 149.949 160.268 163.915L159.534 163.274C172.689 149.375 184.033 130.996 192.339 110.124C199.846 91.2629 204.31 71.6345 205.257 53.3701L206.194 53.5273C206.095 55.4563 205.956 57.3998 205.778 59.358Z" fill="#F2F2F2"/>
<path d="M165.055 35.683L164.143 35.783C160.08 19.7918 152.205 8.71324 141.367 3.74484C127.59 -2.57088 110.554 1.67025 93.3976 15.6871C76.1538 29.7756 60.8885 52.0292 50.414 78.3497L49.5298 77.9444C60.0502 51.509 75.3939 29.1478 92.7343 14.9811C110.162 0.742686 127.545 -3.52954 141.683 2.95155C152.831 8.06232 160.913 19.3807 165.055 35.683Z" fill="#F2F2F2"/>
<path d="M215.621 174.904C197.054 204.488 174.529 225.626 152.193 234.423L151.742 233.593C173.922 224.857 196.316 203.827 214.798 174.379L215.621 174.904Z" fill="#F2F2F2"/>
<path d="M244.267 108.624C243.961 112 243.569 115.417 243.09 118.876L242.159 118.65C245.733 92.8386 244.465 69.1724 238.492 50.2052L239.39 50.0547C244.599 66.6003 246.255 86.6828 244.267 108.624Z" fill="#F2F2F2"/>
<path d="M50.3441 82.9797C47.961 88.0078 45.6943 93.2169 43.6068 98.4621C31.5945 128.647 25.5072 159.473 26.0046 187.611L25.0658 187.51C24.5678 159.268 30.6727 128.336 42.7226 98.0569C44.816 92.7968 47.0892 87.573 49.4792 82.5308L50.3441 82.9797Z" fill="#F2F2F2"/>
<path d="M110.594 257.839C95.2649 268.337 80.0234 271.001 67.6778 265.341C51.835 258.078 42.238 238.082 41.3477 210.479L42.2862 210.567C43.1639 237.786 52.534 257.461 67.9935 264.548C80.0081 270.056 94.9204 267.409 109.983 257.094L110.594 257.839Z" fill="#F2F2F2"/>
<path d="M205.328 80.0982C203.818 96.7565 199.517 114.322 192.772 131.27C184.432 152.229 173.036 170.689 159.817 184.655L159.083 184.014C172.238 170.115 183.582 151.737 191.888 130.865C199.395 112.003 203.86 92.3748 204.806 74.1104L205.743 74.2675C205.644 76.1965 205.505 78.14 205.328 80.0982Z" fill="#F2F2F2"/>
<path d="M203.674 57.5741L202.762 57.6741C198.699 41.6829 190.824 30.6043 179.986 25.636C166.209 19.3202 149.173 23.5614 132.017 37.5782C114.773 51.6667 99.5076 73.9203 89.0331 100.241L88.1489 99.8355C98.6694 73.4001 114.013 51.0389 131.353 36.8722C148.781 22.6338 166.164 18.3616 180.302 24.8427C191.45 29.9534 199.532 41.2718 203.674 57.5741Z" fill="#F2F2F2"/>
<path d="M214.404 202.933C195.837 232.517 173.312 253.655 150.977 262.452L150.525 261.622C172.705 252.886 195.099 231.856 213.581 202.408L214.404 202.933Z" fill="#F2F2F2"/>
<path d="M243.816 129.364C243.51 132.74 243.118 136.158 242.64 139.617L241.708 139.391C245.282 113.579 244.014 89.9127 238.042 70.9455L238.939 70.795C244.148 87.3406 245.804 107.423 243.816 129.364Z" fill="#F2F2F2"/>
<path d="M49.8934 103.72C47.5103 108.748 45.2436 113.957 43.1561 119.202C31.1438 149.387 25.0565 180.213 25.5539 208.351L24.6151 208.25C24.1172 180.008 30.222 149.076 42.2719 118.797C44.3653 113.537 46.6385 108.313 49.0285 103.271L49.8934 103.72Z" fill="#F2F2F2"/>
<path d="M229.497 89.1653C230.535 87.603 229.921 85.3666 228.125 84.1702C226.33 82.9738 224.033 83.2704 222.995 84.8327C221.957 86.395 222.571 88.6314 224.367 89.8278C226.162 91.0243 228.459 90.7276 229.497 89.1653Z" fill="#FD6584"/>
<path d="M110.21 109.081C112.383 105.746 115.931 103.125 119.883 102.904C123.835 102.682 128.583 106.053 130.534 109.52C134.101 115.864 132.553 121.963 127.64 126.375C126.972 126.149 124.643 125.464 123.964 125.245L123.534 124.467L123.003 124.94C116.931 125.547 111.065 124.871 106.495 120.339C107.063 116.396 108.037 112.417 110.21 109.081Z" fill="#2F2E41"/>
<path d="M126.491 153.605L125.773 160.273L126.196 169.017L106.858 166.716L105.041 153.605L107.356 153.628L126.491 153.605Z" fill="#FFB6B6"/>
<path d="M118.551 124.79C122.986 124.79 126.581 121.19 126.581 116.748C126.581 112.307 122.986 108.706 118.551 108.706C114.117 108.706 110.521 112.307 110.521 116.748C110.521 121.19 114.117 124.79 118.551 124.79Z" fill="#FFB7B7"/>
<path d="M109.654 131.691L114.249 128.93L123.439 128.009L131.562 132.152L131.48 144.807L126.327 157.932L104.731 155.171L103.91 150.541C103.91 150.541 97.9365 142.506 104.37 137.904L109.654 131.691Z" fill="#228B22"/>
<path d="M115.549 104.535C117.289 104.046 119.128 104.035 120.874 104.502C122.62 104.968 124.208 105.897 125.473 107.189C126.739 108.481 127.634 110.09 128.066 111.847C128.497 113.605 128.45 115.446 127.928 117.179C123.037 117.569 118.203 117.112 114.392 113.647L114.053 110.674L112.663 113.162C111.261 112.767 109.856 112.369 108.449 111.969C108.88 110.216 109.762 108.606 111.008 107.302C112.254 105.997 113.82 105.043 115.549 104.535Z" fill="#2F2E41"/>
<path d="M82.0746 94.1132C81.8569 94.5782 81.7436 95.0853 81.7427 95.5989C81.7418 96.1125 81.8534 96.62 82.0695 97.0858C82.2857 97.5515 82.6012 97.9641 82.9937 98.2945C83.3863 98.6249 83.8465 98.8651 84.3418 98.9981L99.3025 127.27L105.341 122.602L88.7364 96.2796C88.9044 95.4314 88.7559 94.551 88.3191 93.8052C87.8823 93.0594 87.1874 92.5 86.3663 92.2329C85.5451 91.9659 84.6547 92.0098 83.8637 92.3564C83.0728 92.7029 82.4362 93.328 82.0746 94.1132Z" fill="#FFB6B6"/>
<path d="M106.616 136.823C106.616 136.823 105.23 138.054 103.258 134.654C101.68 131.932 93.8083 119.743 92.6938 115.517C92.0824 115.534 91.4826 115.347 90.989 114.986C90.4954 114.624 90.1359 114.108 89.9673 113.519L98.4226 110.232C100.261 111.153 99.7504 112.428 99.2844 113.088L102.433 117.819L112.908 129.592L107.634 135.951L106.616 136.823Z" fill="#228B22"/>
<path d="M249.544 283H0.456074C0.335115 283 0.219106 282.952 0.133575 282.866C0.048044 282.781 0 282.664 0 282.543C0 282.422 0.048044 282.306 0.133575 282.22C0.219106 282.135 0.335115 282.086 0.456074 282.086H249.544C249.665 282.086 249.781 282.135 249.866 282.22C249.952 282.306 250 282.422 250 282.543C250 282.664 249.952 282.781 249.866 282.866C249.781 282.952 249.665 283 249.544 283Z" fill="#CCCCCC"/>
<path d="M189.91 28.074C185.415 23.6359 179.411 21.1865 173.391 19.6194C166.576 17.8456 159.528 16.8006 152.566 15.7981C145.31 14.7533 138.026 13.9475 130.712 13.3805C123.409 12.8166 116.092 12.4937 108.762 12.412C102.231 12.3388 95.6554 12.3365 89.1557 13.0622C83.0338 13.7458 76.9267 15.1175 71.4075 17.9337C66.4946 20.3865 62.3671 24.1702 59.494 28.8549C56.8526 33.2154 55.2822 38.4426 55.8282 43.5684C56.0844 46.0924 56.869 48.5339 58.131 50.7337C59.6104 53.1645 61.4956 55.3229 63.7045 57.1145C68.2649 60.9712 73.7172 63.7905 77.6403 68.3741C78.6763 69.5749 79.5812 70.883 80.3397 72.2763C80.9093 73.333 81.5501 74.2424 82.6096 74.8588C83.5554 75.3994 84.6399 75.6474 85.7262 75.5715C86.8125 75.4957 87.8521 75.0994 88.7139 74.4327C89.936 73.472 90.8137 71.9912 91.7593 70.7724L95.0568 66.5223C95.2952 66.1412 95.5714 65.7852 95.8812 65.4597C96.1035 65.2758 95.7368 65.4378 95.8095 65.392C95.8495 65.3668 95.9198 65.3808 95.9635 65.3628C96.1831 65.2997 96.4083 65.2578 96.6358 65.2377C99.0438 64.7943 101.457 64.3796 103.875 63.9936C112.803 62.5507 121.79 61.3605 130.814 60.719C135.465 60.347 140.133 60.2355 144.797 60.385C150.828 60.6321 156.775 61.8314 162.783 62.3488C169.252 62.9058 176.047 62.8288 182.142 60.3307C187.021 58.3311 191.551 54.9671 194.193 50.3208C195.446 48.1233 196.189 45.671 196.366 43.1464C196.688 37.42 193.908 32.0201 189.91 28.074Z" fill="#E6E6E6"/>
<path d="M105.167 17.1053C104.017 17.1053 102.867 17.1115 101.718 17.1237C90.685 17.2409 79.2825 18.1343 70.6298 23.83C62.9495 28.8856 57.5668 40.1469 62.1221 48.2231C64.2139 51.9315 68.0038 54.6309 72.0162 57.4885C73.5889 58.6088 75.2155 59.7671 76.7741 61.0147C80.179 63.7398 83.3854 67.3971 85.23 71.5094L93.3318 61.0673L94.8624 60.7738C96.3351 60.4914 131.141 53.8814 149.677 56.0273C151.382 56.2248 153.105 56.4519 154.772 56.6715C162.302 57.6638 169.415 58.6005 176.243 57.2173C183.372 55.7726 191.199 50.2586 191.665 42.8851C191.984 37.8371 188.705 32.2993 183.312 28.7769C177.858 25.2155 171.056 23.7451 164.557 22.5441C144.966 18.9288 125.087 17.1084 105.167 17.1053Z" fill="white"/>
<path d="M168.041 33.1726H89.801C89.3495 33.1726 88.9165 32.993 88.5972 32.6732C88.278 32.3535 88.0986 31.9198 88.0986 31.4676C88.0986 31.0155 88.278 30.5818 88.5972 30.2621C88.9165 29.9423 89.3495 29.7627 89.801 29.7627H168.041C168.493 29.7627 168.926 29.9423 169.245 30.2621C169.564 30.5818 169.744 31.0155 169.744 31.4676C169.744 31.9198 169.564 32.3535 169.245 32.6732C168.926 32.993 168.493 33.1726 168.041 33.1726Z" fill="#228B22"/>
<path d="M168.041 43.6378H89.801C89.3495 43.6378 88.9165 43.4582 88.5972 43.1384C88.278 42.8187 88.0986 42.385 88.0986 41.9329C88.0986 41.4807 88.278 41.047 88.5972 40.7273C88.9165 40.4075 89.3495 40.2279 89.801 40.2279H168.041C168.493 40.2279 168.926 40.4075 169.245 40.7273C169.564 41.047 169.744 41.4807 169.744 41.9329C169.744 42.385 169.564 42.8187 169.245 43.1384C168.926 43.4582 168.493 43.6378 168.041 43.6378Z" fill="#228B22"/>
<path d="M98.9187 54.1027H89.801C89.3495 54.1027 88.9165 53.9231 88.5972 53.6033C88.278 53.2836 88.0986 52.8499 88.0986 52.3978C88.0986 51.9456 88.278 51.5119 88.5972 51.1922C88.9165 50.8724 89.3495 50.6928 89.801 50.6928H98.9187C99.3702 50.6928 99.8032 50.8724 100.122 51.1922C100.442 51.5119 100.621 51.9456 100.621 52.3978C100.621 52.8499 100.442 53.2836 100.122 53.6033C99.8032 53.9231 99.3702 54.1027 98.9187 54.1027Z" fill="#228B22"/>
<path d="M84.7824 94.9982C88.7784 94.9982 92.0179 91.7538 92.0179 87.7516C92.0179 83.7494 88.7784 80.505 84.7824 80.505C80.7863 80.505 77.5469 83.7494 77.5469 87.7516C77.5469 91.7538 80.7863 94.9982 84.7824 94.9982Z" fill="#E6E6E6"/>
<path d="M63.7306 176.863C64.7684 175.301 64.1541 173.064 62.3585 171.868C60.563 170.671 58.2661 170.968 57.2283 172.53C56.1904 174.093 56.8047 176.329 58.6003 177.525C60.3958 178.722 62.6927 178.425 63.7306 176.863Z" fill="#F2F2F2"/>
<path d="M218.976 176.37C220.014 174.808 219.4 172.571 217.604 171.375C215.809 170.178 213.512 170.475 212.474 172.037C211.436 173.599 212.05 175.836 213.846 177.032C215.641 178.229 217.938 177.932 218.976 176.37Z" fill="#E6E6E6"/>
<path d="M160.371 119.977C161.409 118.414 160.795 116.178 158.999 114.982C157.204 113.785 154.907 114.082 153.869 115.644C152.831 117.206 153.445 119.443 155.241 120.639C157.036 121.836 159.333 121.539 160.371 119.977Z" fill="#E6E6E6"/>
<path d="M136.521 274.668H132.293L130.282 258.335H136.521V274.668Z" fill="#FFB6B6"/>
<path d="M138.753 282.004H135.721L135.18 279.137L133.794 282.004H125.753C125.367 282.004 124.992 281.881 124.681 281.652C124.371 281.423 124.141 281.101 124.027 280.733C123.912 280.364 123.918 279.968 124.044 279.604C124.169 279.239 124.408 278.923 124.725 278.704L131.147 274.262V271.364L137.902 271.768L138.753 282.004Z" fill="#2F2E41"/>
<path d="M112.773 274.668H108.545L106.533 258.335H112.773V274.668Z" fill="#FFB6B6"/>
<path d="M115.005 282.004H111.973L111.432 279.137L110.046 282.004H102.004C101.619 282.004 101.243 281.881 100.933 281.652C100.622 281.423 100.393 281.101 100.278 280.733C100.163 280.364 100.169 279.968 100.295 279.604C100.421 279.239 100.66 278.923 100.977 278.704L107.399 274.262V271.364L114.153 271.768L115.005 282.004Z" fill="#2F2E41"/>
<path d="M138.346 260.583H138.3L137.487 234.028C138.013 233.011 138.28 231.88 138.264 230.735C138.248 229.59 137.95 228.467 137.396 227.466L137.279 227.255L137.581 225.853C137.969 224.053 137.791 222.177 137.072 220.481L136.313 195.71C139.023 178.12 126.108 166.649 126.108 166.649H106.762L102.608 180.941C99.8624 207.734 100.361 233.842 104.718 259.137L104.599 259.197C104.171 259.345 103.988 259.939 104.189 260.523C104.391 261.107 104.901 261.461 105.328 261.313L115.545 260.957C115.973 260.809 116.157 260.216 115.955 259.631C115.754 259.047 115.244 258.694 114.816 258.841L114.122 259.193L115.603 233.568L115.439 228.887L115.778 223.577L117.344 199.692L123.272 229.064L129.327 260.879C129.16 261.031 129.042 261.229 128.991 261.449C128.939 261.668 128.954 261.898 129.036 262.109C129.117 262.319 129.26 262.5 129.446 262.627C129.632 262.754 129.853 262.822 130.078 262.822H138.346C138.642 262.822 138.926 262.704 139.136 262.494C139.345 262.284 139.463 261.999 139.463 261.703C139.463 261.406 139.345 261.121 139.136 260.911C138.926 260.701 138.642 260.583 138.346 260.583Z" fill="#2F2E41"/>
<path d="M129.323 186.331C129.76 186.061 130.132 185.7 130.414 185.27C130.696 184.841 130.88 184.356 130.955 183.848C131.029 183.339 130.991 182.821 130.843 182.329C130.696 181.837 130.442 181.384 130.101 181.001L133.064 149.142L125.459 149.73L124.937 180.861C124.333 181.478 123.975 182.296 123.932 183.16C123.889 184.023 124.164 184.873 124.705 185.547C125.245 186.221 126.014 186.673 126.865 186.818C127.716 186.962 128.591 186.789 129.323 186.331Z" fill="#FFB6B6"/>
<path d="M131.28 132.279C131.28 132.279 133.114 132.01 132.901 135.936C132.731 139.08 133.539 158.454 132.159 162.6C132.679 162.921 133.079 163.407 133.293 163.98C133.508 164.554 133.527 165.183 133.345 165.768L124.475 163.874C123.441 162.095 123.655 160.269 124.406 159.972L124.362 154.287L122.402 135.547L129.951 132.449L131.28 132.279Z" fill="#228B22"/>
</g>
<defs>
<clipPath id="clip0_2108_5243">
<rect width="250" height="283" fill="white"/>
</clipPath>
</defs>
</svg>
