<svg width="34" height="34" viewBox="0 0 34 34" fill="none" xmlns="http://www.w3.org/2000/svg">
<path d="M8.66634 1.58325H4.91634C4.03229 1.58325 3.18444 1.93444 2.55932 2.55956C1.9342 3.18468 1.58301 4.03253 1.58301 4.91659V8.66659M32.4163 8.66659V4.91659C32.4163 4.03253 32.0652 3.18468 31.44 2.55956C30.8149 1.93444 29.9671 1.58325 29.083 1.58325H25.333M25.333 32.4166H29.083C29.9671 32.4166 30.8149 32.0654 31.44 31.4403C32.0652 30.8152 32.4163 29.9673 32.4163 29.0833V25.3333M1.58301 25.3333V29.0833C1.58301 29.9673 1.9342 30.8152 2.55932 31.4403C3.18444 32.0654 4.03229 32.4166 4.91634 32.4166H8.66634M10.5672 13.7191V10.7499M23.4322 13.7191V10.7499M15.0205 20.6458H16.0105C16.5354 20.6458 17.0388 20.4372 17.41 20.0661C17.7812 19.6949 17.9897 19.1915 17.9897 18.6666V10.7499M22.9372 23.8941C21.3238 26.0324 18.8605 26.5833 16.9997 26.5833C15.1388 26.5833 12.6755 26.0333 11.0622 23.8941" stroke="#228B22" stroke-width="1.5" stroke-linecap="round" stroke-linejoin="round"/>
</svg>
