<svg width="23" height="23" viewBox="0 0 23 23" fill="none" xmlns="http://www.w3.org/2000/svg">
<g clip-path="url(#clip0_43_1033)">
<path d="M11.5 22.1786C17.3976 22.1786 22.1786 17.3976 22.1786 11.5C22.1786 5.60237 17.3976 0.821411 11.5 0.821411C5.60237 0.821411 0.821411 5.60237 0.821411 11.5C0.821411 17.3976 5.60237 22.1786 11.5 22.1786Z" stroke="#228B22" stroke-width="1.5" stroke-linecap="round" stroke-linejoin="round"/>
<path d="M9.03577 9.0357C9.03577 8.54831 9.18029 8.07186 9.45107 7.66661C9.72185 7.26136 10.1067 6.94551 10.557 6.75899C11.0073 6.57248 11.5028 6.52368 11.9808 6.61876C12.4588 6.71385 12.8979 6.94855 13.2426 7.29318C13.5872 7.63782 13.8219 8.07692 13.917 8.55494C14.0121 9.03296 13.9633 9.52845 13.7768 9.97874C13.5902 10.429 13.2744 10.8139 12.8691 11.0847C12.4639 11.3555 11.9874 11.5 11.5001 11.5V13.1428" stroke="#228B22" stroke-linecap="round" stroke-linejoin="round"/>
<path d="M11.5 15.6072C11.2563 15.6072 11.018 15.6794 10.8154 15.8148C10.6128 15.9502 10.4549 16.1427 10.3616 16.3678C10.2684 16.5929 10.244 16.8407 10.2915 17.0797C10.339 17.3187 10.4564 17.5383 10.6287 17.7106C10.801 17.8829 11.0206 18.0002 11.2596 18.0478C11.4986 18.0953 11.7463 18.0709 11.9715 17.9777C12.1966 17.8844 12.3891 17.7265 12.5245 17.5239C12.6598 17.3212 12.7321 17.083 12.7321 16.8393C12.7279 16.5139 12.5967 16.2029 12.3665 15.9728C12.1364 15.7426 11.8254 15.6114 11.5 15.6072Z" fill="#228B22"/>
</g>
<defs>
<clipPath id="clip0_43_1033">
<rect width="23" height="23" fill="white"/>
</clipPath>
</defs>
</svg>
