<svg width="54" height="25" viewBox="0 0 54 25" fill="none" xmlns="http://www.w3.org/2000/svg">
<rect width="54" height="25" rx="2" fill="#F5F5F5"/>
<path d="M7.12402 16H5.96191V8.86133H9.99512V9.84766H7.12402V12.0742H9.80957V13.0557H7.12402V16ZM12.3242 10.5947V16H11.1768V10.5947H12.3242ZM11.7578 8.52441C11.9336 8.52441 12.085 8.57161 12.2119 8.66602C12.3421 8.76042 12.4072 8.92318 12.4072 9.1543C12.4072 9.38216 12.3421 9.54492 12.2119 9.64258C12.085 9.73698 11.9336 9.78418 11.7578 9.78418C11.5755 9.78418 11.4209 9.73698 11.2939 9.64258C11.1702 9.54492 11.1084 9.38216 11.1084 9.1543C11.1084 8.92318 11.1702 8.76042 11.2939 8.66602C11.4209 8.57161 11.5755 8.52441 11.7578 8.52441ZM15.1221 16H13.9697V8.40234H15.1221V16ZM18.7744 15.1699C18.9242 15.1699 19.0723 15.1569 19.2188 15.1309C19.3652 15.1016 19.4987 15.0674 19.6191 15.0283V15.8975C19.4922 15.9528 19.3278 16 19.126 16.0391C18.9242 16.0781 18.7142 16.0977 18.4961 16.0977C18.1901 16.0977 17.915 16.0472 17.6709 15.9463C17.4268 15.8421 17.2331 15.6647 17.0898 15.4141C16.9466 15.1634 16.875 14.8167 16.875 14.374V11.4688H16.1377V10.9561L16.9287 10.5508L17.3047 9.39355H18.0273V10.5947H19.5752V11.4688H18.0273V14.3594C18.0273 14.6328 18.0957 14.8363 18.2324 14.9697C18.3691 15.1032 18.5498 15.1699 18.7744 15.1699ZM22.8711 10.4922C23.3529 10.4922 23.7663 10.5915 24.1113 10.79C24.4564 10.9886 24.7217 11.2702 24.9072 11.6348C25.0928 11.9993 25.1855 12.4355 25.1855 12.9434V13.5586H21.5771C21.5902 14.0827 21.7301 14.4863 21.9971 14.7695C22.2673 15.0527 22.6449 15.1943 23.1299 15.1943C23.4749 15.1943 23.7842 15.1618 24.0576 15.0967C24.3343 15.0283 24.6191 14.929 24.9121 14.7988V15.7314C24.6419 15.8584 24.3669 15.9512 24.0869 16.0098C23.807 16.0684 23.4717 16.0977 23.0811 16.0977C22.5505 16.0977 22.0833 15.9951 21.6797 15.79C21.2793 15.5817 20.9652 15.2725 20.7373 14.8623C20.5127 14.4521 20.4004 13.9427 20.4004 13.334C20.4004 12.7285 20.5029 12.2142 20.708 11.791C20.9131 11.3678 21.2012 11.0456 21.5723 10.8242C21.9434 10.6029 22.3763 10.4922 22.8711 10.4922ZM22.8711 11.3564C22.5098 11.3564 22.2168 11.4736 21.9922 11.708C21.7708 11.9424 21.6406 12.2858 21.6016 12.7383H24.0625C24.0592 12.4681 24.0137 12.2288 23.9258 12.0205C23.8411 11.8122 23.7109 11.6494 23.5352 11.5322C23.3626 11.415 23.1413 11.3564 22.8711 11.3564ZM29.2188 10.4922C29.3099 10.4922 29.4092 10.4971 29.5166 10.5068C29.624 10.5166 29.7168 10.5296 29.7949 10.5459L29.6875 11.6201C29.6191 11.6006 29.5345 11.5859 29.4336 11.5762C29.3359 11.5664 29.248 11.5615 29.1699 11.5615C28.9648 11.5615 28.7695 11.5957 28.584 11.6641C28.3984 11.7292 28.234 11.8301 28.0908 11.9668C27.9476 12.1003 27.8353 12.2679 27.7539 12.4697C27.6725 12.6715 27.6318 12.9059 27.6318 13.1729V16H26.4795V10.5947H27.3779L27.5342 11.5469H27.5879C27.6953 11.3548 27.8288 11.179 27.9883 11.0195C28.1478 10.86 28.3301 10.7331 28.5352 10.6387C28.7435 10.541 28.9714 10.4922 29.2188 10.4922Z" fill="#228B22"/>
<path d="M37.2139 10.3569H45.7853H37.2139ZM38.6424 12.4998H44.3567H38.6424ZM40.071 14.6426H42.9282H40.071Z" fill="#228B22"/>
<path d="M37.2139 10.3569H45.7853M38.6424 12.4998H44.3567M40.071 14.6426H42.9282" stroke="#228B22" stroke-linecap="round" stroke-linejoin="round"/>
</svg>
