<svg width="23" height="20" viewBox="0 0 23 20" fill="none" xmlns="http://www.w3.org/2000/svg">
<path d="M9.11947 10.4999C9.58847 10.4999 10.0529 10.4075 10.4862 10.228C10.9195 10.0485 11.3132 9.78547 11.6448 9.45384C11.9765 9.1222 12.2396 8.72849 12.419 8.29518C12.5985 7.86188 12.6909 7.39746 12.6909 6.92846V4.5475C12.6909 3.6003 12.3146 2.69189 11.6448 2.02212C10.9751 1.35235 10.0667 0.976074 9.11947 0.976074C8.17226 0.976074 7.26386 1.35235 6.59408 2.02212C5.92431 2.69189 5.54804 3.6003 5.54804 4.5475V6.92846C5.54804 7.39746 5.64042 7.86188 5.8199 8.29518C5.99938 8.72849 6.26245 9.1222 6.59408 9.45384C6.92572 9.78547 7.31943 10.0485 7.75274 10.228C8.18605 10.4075 8.65046 10.4999 9.11947 10.4999ZM9.11947 10.4999C13.0647 10.4999 17.4528 12.982 17.4528 16.7761V17.6427C17.4528 17.9585 17.3274 18.2613 17.1041 18.4845C16.8809 18.7078 16.5781 18.8332 16.2623 18.8332H1.97661C1.66088 18.8332 1.35807 18.7078 1.13482 18.4845C0.911558 18.2613 0.786133 17.9585 0.786133 17.6427V16.7761C0.786133 12.982 5.17423 10.4999 9.11947 10.4999Z" stroke="#767676" stroke-linecap="round" stroke-linejoin="round"/>
<path fill-rule="evenodd" clip-rule="evenodd" d="M13.9056 1.18799C14.5962 1.43783 15.193 1.89439 15.6147 2.49553C16.0365 3.09666 16.2628 3.81317 16.2628 4.54751V5.73799C16.2628 7.28204 15.2533 8.81061 13.8818 9.30942C14.6842 8.21537 15.0842 6.82608 15.0842 5.14275C15.0842 3.45942 14.6902 2.13918 13.9056 1.18799ZM19.8342 18.8332H21.0247C21.3404 18.8332 21.6432 18.7078 21.8665 18.4845C22.0897 18.2613 22.2152 17.9585 22.2152 17.6427V16.7761C22.2152 14.1927 20.1795 12.2166 17.6354 11.2201C17.6354 11.2201 21.0247 14.0713 19.8342 18.8332Z" fill="#767676" stroke="#767676" stroke-linecap="round" stroke-linejoin="round"/>
</svg>
