<svg width="25" height="25" viewBox="0 0 25 25" fill="none" xmlns="http://www.w3.org/2000/svg">
<path d="M13.5416 12.0833L16.6666 15.2083C16.8576 15.3993 16.9531 15.6423 16.9531 15.9375C16.9531 16.2326 16.8576 16.4757 16.6666 16.6666C16.4757 16.8576 16.2326 16.9531 15.9375 16.9531C15.6423 16.9531 15.3993 16.8576 15.2083 16.6666L11.7708 13.2291C11.6666 13.125 11.5885 13.0076 11.5364 12.877C11.4843 12.7472 11.4583 12.6128 11.4583 12.4739V8.33329C11.4583 8.03815 11.5583 7.79058 11.7583 7.59058C11.9576 7.39128 12.2048 7.29163 12.5 7.29163C12.7951 7.29163 13.0427 7.39128 13.2427 7.59058C13.442 7.79058 13.5416 8.03815 13.5416 8.33329V12.0833ZM2.96871 16.7448C2.74301 16.2413 2.56072 15.7246 2.42183 15.1947C2.28295 14.6656 2.18746 14.1145 2.13538 13.5416H4.24475C4.29683 13.9236 4.37045 14.2923 4.46558 14.6479C4.56142 15.0041 4.67878 15.3559 4.81767 15.7031L2.96871 16.7448ZM2.13538 11.4583C2.18746 10.8854 2.28746 10.3298 2.43538 9.79163C2.5826 9.25343 2.76906 8.7326 2.99475 8.22913L4.81767 9.27079C4.67878 9.61801 4.56142 9.97392 4.46558 10.3385C4.37045 10.7031 4.29683 11.0763 4.24475 11.4583H2.13538ZM6.43225 20.9895C5.9635 20.6423 5.52947 20.2645 5.13017 19.8562C4.73086 19.4486 4.3576 19.0104 4.01038 18.5416L5.83329 17.5C6.07635 17.8125 6.3326 18.1031 6.60204 18.3718C6.87079 18.6413 7.16142 18.8975 7.47392 19.1406L6.43225 20.9895ZM5.85933 7.47392L4.01038 6.43225C4.3576 5.9635 4.73086 5.52947 5.13017 5.13017C5.52947 4.73086 5.9635 4.3576 6.43225 4.01038L7.47392 5.85933C7.16142 6.10239 6.87496 6.35413 6.61454 6.61454C6.35413 6.87496 6.10239 7.16142 5.85933 7.47392ZM11.4583 22.8645C10.8854 22.8125 10.3298 22.7128 9.79163 22.5656C9.25343 22.4177 8.7326 22.2309 8.22913 22.0052L9.27079 20.1823C9.61801 20.3211 9.97392 20.4382 10.3385 20.5333C10.7031 20.6291 11.0763 20.7031 11.4583 20.7552V22.8645ZM9.27079 4.81767L8.22913 2.99475C8.7326 2.76906 9.25343 2.58225 9.79163 2.43433C10.3298 2.28711 10.8854 2.18746 11.4583 2.13538V4.24475C11.0763 4.29683 10.7031 4.37045 10.3385 4.46558C9.97392 4.56142 9.61801 4.67878 9.27079 4.81767ZM13.5416 22.8645V20.7552C13.9236 20.7031 14.2968 20.6291 14.6614 20.5333C15.026 20.4382 15.3819 20.3211 15.7291 20.1823L16.7708 22.0052C16.2673 22.2309 15.7465 22.4177 15.2083 22.5656C14.6701 22.7128 14.1145 22.8125 13.5416 22.8645ZM15.7291 4.81767C15.3819 4.67878 15.026 4.56142 14.6614 4.46558C14.2968 4.37045 13.9236 4.29683 13.5416 4.24475V2.13538C14.1145 2.18746 14.6701 2.28711 15.2083 2.43433C15.7465 2.58225 16.2673 2.76906 16.7708 2.99475L15.7291 4.81767ZM18.5677 20.9895L17.526 19.1406C17.8385 18.8975 18.125 18.6458 18.3854 18.3854C18.6458 18.125 18.8975 17.8385 19.1406 17.526L20.9895 18.5677C20.6423 19.0364 20.2691 19.4746 19.8698 19.8823C19.4704 20.2906 19.0364 20.6597 18.5677 20.9895ZM19.1406 7.47392C18.8975 7.17878 18.6416 6.89649 18.3729 6.62704C18.1034 6.35829 17.8211 6.10239 17.526 5.85933L18.5677 4.01038C19.0191 4.34024 19.4486 4.70899 19.8562 5.11663C20.2645 5.52496 20.6336 5.95482 20.9635 6.40621L19.1406 7.47392ZM20.7552 11.4583C20.7031 11.059 20.6295 10.6812 20.5343 10.325C20.4385 9.9694 20.3211 9.61801 20.1823 9.27079L22.0052 8.20308C22.2309 8.70656 22.4177 9.23156 22.5656 9.77808C22.7128 10.3253 22.8125 10.8854 22.8645 11.4583H20.7552ZM22.0052 16.7708L20.1823 15.7291C20.3211 15.3819 20.4385 15.026 20.5343 14.6614C20.6295 14.2968 20.7031 13.9236 20.7552 13.5416H22.8645C22.8125 14.1145 22.7128 14.6701 22.5656 15.2083C22.4177 15.7465 22.2309 16.2673 22.0052 16.7708Z" fill="#228B22"/>
</svg>
