<svg width="30" height="30" viewBox="0 0 30 30" fill="none" xmlns="http://www.w3.org/2000/svg">
<path d="M7.85714 5H22.1429C22.9006 5 23.6273 5.30102 24.1632 5.83684C24.699 6.37266 25 7.09938 25 7.85714V22.1429C25 22.9006 24.699 23.6273 24.1632 24.1632C23.6273 24.699 22.9006 25 22.1429 25H7.85714C7.09938 25 6.37266 24.699 5.83684 24.1632C5.30102 23.6273 5 22.9006 5 22.1429V7.85714C5 7.09938 5.30102 6.37266 5.83684 5.83684C6.37266 5.30102 7.09938 5 7.85714 5ZM10.7143 20.6214V9.28571V20.6214ZM15 20.6929V15V20.6929ZM19.2857 20.7143V12.1429V20.7143Z" fill="white" fill-opacity="0.5"/>
<path d="M10.7143 20.6214V9.28571M15 20.6929V15M19.2857 20.7143V12.1429M7.85714 5H22.1429C22.9006 5 23.6273 5.30102 24.1632 5.83684C24.699 6.37266 25 7.09938 25 7.85714V22.1429C25 22.9006 24.699 23.6273 24.1632 24.1632C23.6273 24.699 22.9006 25 22.1429 25H7.85714C7.09938 25 6.37266 24.699 5.83684 24.1632C5.30102 23.6273 5 22.9006 5 22.1429V7.85714C5 7.09938 5.30102 6.37266 5.83684 5.83684C6.37266 5.30102 7.09938 5 7.85714 5Z" stroke="#228B22" stroke-linecap="round" stroke-linejoin="round"/>
</svg>
