<svg width="17" height="22" viewBox="0 0 17 22" fill="none" xmlns="http://www.w3.org/2000/svg">
<path d="M7.45078 21.5057C5.13984 18.7399 0 12.0366 0 8.27141C0 3.70318 3.80552 0 8.5 0C13.1927 0 17 3.70318 17 8.27141C17 12.0366 11.8203 18.7399 9.54922 21.5057C9.00469 22.1648 7.99531 22.1648 7.45078 21.5057ZM8.5 11.0285C10.0628 11.0285 11.3333 9.79214 11.3333 8.27141C11.3333 6.75067 10.0628 5.51427 8.5 5.51427C6.93724 5.51427 5.66667 6.75067 5.66667 8.27141C5.66667 9.79214 6.93724 11.0285 8.5 11.0285Z" fill="#228B22"/>
</svg>
