<svg width="15" height="15" viewBox="0 0 15 15" fill="none" xmlns="http://www.w3.org/2000/svg">
<path fill-rule="evenodd" clip-rule="evenodd" d="M7.50007 13.2429L7.95078 12.735C8.46221 12.1498 8.92245 11.5929 9.3315 11.0643L9.66935 10.6186C11.0803 8.7181 11.7858 7.21024 11.7858 6.09501C11.7858 3.71501 9.86721 1.78572 7.50007 1.78572C5.13293 1.78572 3.21436 3.71501 3.21436 6.09501C3.21436 7.21024 3.91983 8.71834 5.33078 10.6193L5.66864 11.065C6.2526 11.8131 6.86348 12.539 7.50007 13.2429Z" stroke="#228B22" stroke-linecap="round" stroke-linejoin="round"/>
<path d="M7.50007 7.85715C8.48629 7.85715 9.28578 7.05766 9.28578 6.07144C9.28578 5.08521 8.48629 4.28572 7.50007 4.28572C6.51385 4.28572 5.71436 5.08521 5.71436 6.07144C5.71436 7.05766 6.51385 7.85715 7.50007 7.85715Z" stroke="#228B22" stroke-linecap="round" stroke-linejoin="round"/>
</svg>
