<svg width="25" height="25" viewBox="0 0 25 25" fill="none" xmlns="http://www.w3.org/2000/svg">
<path d="M6.25033 22.9167C5.67741 22.9167 5.18713 22.7128 4.77949 22.3052C4.37116 21.8969 4.16699 21.4062 4.16699 20.8333V10.4167C4.16699 9.84375 4.37116 9.35313 4.77949 8.94479C5.18713 8.53715 5.67741 8.33333 6.25033 8.33333H7.29199V6.25C7.29199 4.80903 7.79998 3.58056 8.81595 2.56458C9.83123 1.54931 11.0594 1.04167 12.5003 1.04167C13.9413 1.04167 15.1698 1.54931 16.1857 2.56458C17.201 3.58056 17.7087 4.80903 17.7087 6.25V8.33333H18.7503C19.3232 8.33333 19.8139 8.53715 20.2222 8.94479C20.6298 9.35313 20.8337 9.84375 20.8337 10.4167V20.8333C20.8337 21.4062 20.6298 21.8969 20.2222 22.3052C19.8139 22.7128 19.3232 22.9167 18.7503 22.9167H6.25033ZM12.5003 17.7083C13.0732 17.7083 13.5639 17.5045 13.9722 17.0969C14.3798 16.6885 14.5837 16.1979 14.5837 15.625C14.5837 15.0521 14.3798 14.5615 13.9722 14.1531C13.5639 13.7455 13.0732 13.5417 12.5003 13.5417C11.9274 13.5417 11.4371 13.7455 11.0295 14.1531C10.6212 14.5615 10.417 15.0521 10.417 15.625C10.417 16.1979 10.6212 16.6885 11.0295 17.0969C11.4371 17.5045 11.9274 17.7083 12.5003 17.7083ZM9.37533 8.33333H15.6253V6.25C15.6253 5.38195 15.3215 4.6441 14.7139 4.03646C14.1062 3.42882 13.3684 3.125 12.5003 3.125C11.6323 3.125 10.8944 3.42882 10.2868 4.03646C9.67914 4.6441 9.37533 5.38195 9.37533 6.25V8.33333Z" fill="#D1D1D6"/>
</svg>
