<svg width="25" height="25" viewBox="0 0 25 25" fill="none" xmlns="http://www.w3.org/2000/svg">
<path d="M12.5 12.5H19.7917M19.7917 12.5L16.6667 15.625M19.7917 12.5L16.6667 9.375M19.7917 6.25V5.20833C19.7917 4.6558 19.5722 4.12589 19.1815 3.73519C18.7908 3.34449 18.2609 3.125 17.7084 3.125H7.29171C6.73917 3.125 6.20927 3.34449 5.81857 3.73519C5.42787 4.12589 5.20837 4.6558 5.20837 5.20833V19.7917C5.20837 20.3442 5.42787 20.8741 5.81857 21.2648C6.20927 21.6555 6.73917 21.875 7.29171 21.875H17.7084C18.2609 21.875 18.7908 21.6555 19.1815 21.2648C19.5722 20.8741 19.7917 20.3442 19.7917 19.7917V18.75" stroke="white" stroke-width="1.5" stroke-linecap="round" stroke-linejoin="round"/>
</svg>
