<svg width="25" height="25" viewBox="0 0 25 25" fill="none" xmlns="http://www.w3.org/2000/svg">
<path fill-rule="evenodd" clip-rule="evenodd" d="M4.16675 7.7381V17.2619C4.16675 17.8934 4.4176 18.499 4.86411 18.9455C5.31063 19.392 5.91623 19.6429 6.5477 19.6429H18.4525C19.0839 19.6429 19.6895 19.392 20.136 18.9455C20.5826 18.499 20.8334 17.8934 20.8334 17.2619V7.7381C20.8334 7.10663 20.5826 6.50103 20.136 6.05451C19.6895 5.608 19.0839 5.35715 18.4525 5.35715H6.5477C5.91623 5.35715 5.31063 5.608 4.86411 6.05451C4.4176 6.50103 4.16675 7.10663 4.16675 7.7381Z" fill="#228B22"/>
<path d="M6.54761 8.92859L12.5 12.5L18.4524 8.92859" stroke="white" stroke-linecap="round" stroke-linejoin="round"/>
<circle cx="20.5" cy="5.5" r="2" fill="#228B22" stroke="white"/>
</svg>
