<svg width="20" height="20" viewBox="0 0 20 20" fill="none" xmlns="http://www.w3.org/2000/svg">
<path fill-rule="evenodd" clip-rule="evenodd" d="M10 8.5C10.5304 8.5 11.0391 8.28929 11.4142 7.91421C11.7893 7.53914 12 7.03043 12 6.5C12 5.96957 11.7893 5.46086 11.4142 5.08579C11.0391 4.71071 10.5304 4.5 10 4.5C9.46957 4.5 8.96086 4.71071 8.58579 5.08579C8.21071 5.46086 8 5.96957 8 6.5C8 7.03043 8.21071 7.53914 8.58579 7.91421C8.96086 8.28929 9.46957 8.5 10 8.5ZM10 5.5C10.2652 5.5 10.5196 5.60536 10.7071 5.79289C10.8946 5.98043 11 6.23478 11 6.5C11 6.76522 10.8946 7.01957 10.7071 7.20711C10.5196 7.39464 10.2652 7.5 10 7.5C9.73478 7.5 9.48043 7.39464 9.29289 7.20711C9.10536 7.01957 9 6.76522 9 6.5C9 6.23478 9.10536 5.98043 9.29289 5.79289C9.48043 5.60536 9.73478 5.5 10 5.5Z" fill="#767676"/>
<path fill-rule="evenodd" clip-rule="evenodd" d="M5.5 6.286C5.5 8.959 8.153 13.5 10 13.5C11.848 13.5 14.5 8.959 14.5 6.286C14.5 3.65 12.493 1.5 10 1.5C7.507 1.5 5.5 3.65 5.5 6.286ZM13.5 6.286C13.5 8.479 11.152 12.5 10 12.5C8.849 12.5 6.5 8.48 6.5 6.286C6.5 4.187 8.075 2.5 10 2.5C11.925 2.5 13.5 4.187 13.5 6.286Z" fill="#767676"/>
<path d="M13.435 9.14C13.3155 9.08855 13.2207 8.99251 13.1708 8.87228C13.1209 8.75205 13.1199 8.61711 13.168 8.49614C13.216 8.37517 13.3093 8.27771 13.4281 8.22446C13.5469 8.17122 13.6817 8.16639 13.804 8.211C14.2107 8.37229 14.5771 8.62055 14.8777 8.9384C15.1783 9.25625 15.4057 9.63599 15.544 10.051L16.878 14.051C17.0285 14.5021 17.0695 14.9826 16.9977 15.4527C16.926 15.9228 16.7435 16.3691 16.4653 16.7548C16.1871 17.1405 15.8212 17.4546 15.3978 17.6711C14.9744 17.8876 14.5056 18.0003 14.03 18H5.97003C5.49464 18 5.02605 17.887 4.60289 17.6704C4.17973 17.4538 3.81411 17.1397 3.53616 16.754C3.25822 16.3684 3.0759 15.9222 3.00425 15.4522C2.93259 14.9822 2.97365 14.502 3.12403 14.051L4.45703 10.051C4.59778 9.62855 4.83081 9.24272 5.13921 8.92152C5.44761 8.60032 5.82364 8.35181 6.24003 8.194C6.30142 8.17069 6.3668 8.1597 6.43244 8.16166C6.49808 8.16362 6.56269 8.17849 6.62259 8.20542C6.68248 8.23235 6.73648 8.27081 6.78151 8.31861C6.82654 8.36641 6.86172 8.42261 6.88503 8.484C6.90834 8.54539 6.91933 8.61078 6.91737 8.67642C6.91541 8.74206 6.90054 8.80667 6.87361 8.86656C6.84668 8.92646 6.80822 8.98046 6.76042 9.02549C6.71262 9.07052 6.65642 9.10569 6.59503 9.129C6.31709 9.23414 6.06607 9.3999 5.86022 9.61422C5.65437 9.82855 5.49888 10.086 5.40503 10.368L4.07203 14.368C3.97189 14.6687 3.94462 14.9888 3.99249 15.3021C4.04036 15.6154 4.16198 15.9128 4.34734 16.1698C4.5327 16.4269 4.77649 16.6362 5.05861 16.7805C5.34074 16.9248 5.65312 17.0001 5.97003 17H14.032C14.349 17 14.6614 16.9246 14.9435 16.7802C15.2256 16.6357 15.4693 16.4263 15.6545 16.1691C15.8398 15.912 15.9613 15.6145 16.009 15.3011C16.0568 14.9878 16.0293 14.6676 15.929 14.367L14.597 10.367C14.5047 10.0904 14.3531 9.83742 14.1527 9.62564C13.9523 9.41386 13.7081 9.24845 13.437 9.141" fill="#767676"/>
</svg>
