<svg width="40" height="40" viewBox="0 0 40 40" fill="none" xmlns="http://www.w3.org/2000/svg">
<path fill-rule="evenodd" clip-rule="evenodd" d="M31.4284 6.66675C32.4387 6.66675 33.4077 7.06811 34.1221 7.78253C34.8365 8.49696 35.2379 9.46592 35.2379 10.4763V29.5239C35.2379 30.5342 34.8365 31.5032 34.1221 32.2176C33.4077 32.9321 32.4387 33.3334 31.4284 33.3334L25.716 33.3315L21.3465 37.701C21.0185 38.029 20.5821 38.226 20.1192 38.2551C19.6563 38.2842 19.1987 38.1434 18.8322 37.8591L18.6531 37.701L14.2836 33.3315L8.57124 33.3334C7.56089 33.3334 6.59193 32.9321 5.8775 32.2176C5.16308 31.5032 4.76172 30.5342 4.76172 29.5239V10.4763C4.76172 9.46592 5.16308 8.49696 5.8775 7.78253C6.59193 7.06811 7.56089 6.66675 8.57124 6.66675H31.4284Z" stroke="#228B22" stroke-linecap="round" stroke-linejoin="round"/>
<path fill-rule="evenodd" clip-rule="evenodd" d="M19.9975 21.9047C20.9499 21.9047 21.9023 20.9524 21.9023 20C21.9023 19.0476 20.9499 18.0952 19.9975 18.0952C19.0451 18.0952 18.0946 19.0476 18.0946 20C18.0946 20.9524 19.0451 21.9047 19.9975 21.9047ZM12.3784 21.9047C13.3308 21.9047 14.2832 20.9524 14.2832 20C14.2832 19.0476 13.3308 18.0952 12.3784 18.0952C11.4261 18.0952 10.4756 19.0476 10.4756 20C10.4756 20.9524 11.4261 21.9047 12.3784 21.9047ZM27.6165 21.9047C28.5689 21.9047 29.5213 20.9524 29.5213 20C29.5213 19.0476 28.5689 18.0952 27.6165 18.0952C26.6642 18.0952 25.7137 19.0476 25.7137 20C25.7137 20.9524 26.6642 21.9047 27.6165 21.9047Z" fill="#228B22"/>
</svg>
