<svg width="31" height="30" viewBox="0 0 31 30" fill="none" xmlns="http://www.w3.org/2000/svg">
<circle cx="15.5" cy="15" r="15" fill="#F3F4F6"/>
<path d="M8.5 12H10.1667V7H11.8333L14.6833 12H18.5V7H20.1667V12H21.8333V13.6667H20.1667V15.3333H21.8333V17H20.1667V22H18.5L15.6417 17H11.8333V22H10.1667V17H8.5V15.3333H10.1667V13.6667H8.5V12ZM11.8333 12H12.775L11.8333 10.3583V12ZM11.8333 13.6667V15.3333H14.6833L13.7333 13.6667H11.8333ZM18.5 18.6667V17H17.5417L18.5 18.6667ZM15.6333 13.6667L16.5917 15.3333H18.5V13.6667H15.6333Z" fill="#00CF68"/>
</svg>
