<svg width="16" height="16" viewBox="0 0 16 16" fill="none" xmlns="http://www.w3.org/2000/svg">
<g clip-path="url(#clip0_619_2386)">
<path d="M0.96875 8C0.96875 11.0703 2.9375 13.6719 5.65625 14.6328V1.36719C2.9375 2.32812 0.96875 4.92969 0.96875 8ZM15.0312 8C15.0312 4.92969 13.0859 2.32812 10.3438 1.36719V14.6328C13.0859 13.6719 15.0312 11.0703 15.0312 8Z" fill="#499C00"/>
<path d="M6 14.6641C6.72656 14.9219 7.52344 15.0625 8.34375 15.0625C9.16406 15.0625 9.96094 14.9219 10.6875 14.6641V1.39844C9.96094 1.14062 9.16406 1 8.34375 1C7.52344 1 6.72656 1.14062 6 1.39844V14.6641Z" fill="#F9F9F9"/>
</g>
<defs>
<clipPath id="clip0_619_2386">
<rect width="15" height="15" fill="white" transform="translate(0.5 0.5)"/>
</clipPath>
</defs>
</svg>
