<svg width="19" height="22" viewBox="0 0 19 22" fill="none" xmlns="http://www.w3.org/2000/svg">
<path d="M17.8334 4.35707C17.5155 3.24517 17.1191 2.45231 16.6429 1.97612C16.1667 1.49993 15.3739 1.1035 14.262 0.785645M1.27148 4.35707C1.52029 3.24517 1.88101 2.45231 2.3572 1.97612C2.83339 1.49993 3.66196 1.1035 4.84291 0.785645M12.4762 19.238C11.6822 20.4285 10.6905 21.0237 9.50006 21.0237C8.30958 21.0237 7.31791 20.4285 6.52386 19.238M15.5536 17.4523H3.44648C3.09867 17.4525 2.75705 17.3603 2.45654 17.1852C2.15603 17.01 1.90741 16.7583 1.73609 16.4556C1.56476 16.1529 1.47688 15.8101 1.48143 15.4624C1.48598 15.1146 1.58278 14.7742 1.76196 14.4761C2.93033 12.5288 3.54756 10.3006 3.54767 8.02969V6.73803C3.54767 5.47509 4.04937 4.26388 4.9424 3.37085C5.83543 2.47782 7.04664 1.97612 8.30958 1.97612H10.6905C11.9535 1.97612 13.1647 2.47782 14.0577 3.37085C14.9507 4.26388 15.4524 5.47509 15.4524 6.73803V8.02969C15.4524 10.2999 16.0691 12.5297 17.2382 14.4761C17.4173 14.7742 17.5141 15.1146 17.5187 15.4624C17.5232 15.8101 17.4353 16.1529 17.264 16.4556C17.0927 16.7583 16.8441 17.01 16.5436 17.1852C16.2431 17.3603 15.9014 17.4525 15.5536 17.4523Z" stroke="#228B22" stroke-linecap="round" stroke-linejoin="round"/>
</svg>
