<svg width="25" height="25" viewBox="0 0 25 25" fill="none" xmlns="http://www.w3.org/2000/svg">
<path d="M12.5 1.5625C6.48438 1.5625 1.5625 6.48438 1.5625 12.5C1.5625 18.5156 6.48438 23.4375 12.5 23.4375C18.5156 23.4375 23.4375 18.5156 23.4375 12.5C23.4375 6.48438 18.5156 1.5625 12.5 1.5625ZM11.6406 6.25H13.3594V14.8438H11.6406V6.25ZM12.5 19.5312C11.875 19.5312 11.3281 18.9844 11.3281 18.3594C11.3281 17.7344 11.875 17.1875 12.5 17.1875C13.125 17.1875 13.6719 17.7344 13.6719 18.3594C13.6719 18.9844 13.125 19.5312 12.5 19.5312Z" fill="#F6B202"/>
</svg>
