<svg width="25" height="25" viewBox="0 0 25 25" fill="none" xmlns="http://www.w3.org/2000/svg">
<path d="M8.09545 2.54062L9.21628 2.18229C10.2673 1.84687 11.3902 2.38958 11.8402 3.45L12.7361 5.5625C13.1257 6.48229 12.909 7.56458 12.2007 8.2375L10.2267 10.1104C10.3486 11.2312 10.7257 12.3344 11.3569 13.4198C11.9564 14.4699 12.7604 15.3891 13.7215 16.1229L16.0923 15.3313C16.9902 15.0323 17.9694 15.3771 18.5194 16.1865L19.8038 18.0719C20.4444 19.0135 20.3288 20.3115 19.534 21.1094L18.683 21.9646C17.835 22.8156 16.6236 23.125 15.5038 22.775C12.858 21.95 10.4277 19.501 8.20899 15.4281C5.98712 11.349 5.20274 7.88646 5.85691 5.04479C6.13191 3.84896 6.98295 2.89583 8.09545 2.54062Z" fill="#D1D1D6"/>
</svg>
