<svg width="17" height="18" viewBox="0 0 17 18" fill="none" xmlns="http://www.w3.org/2000/svg">
<path fill-rule="evenodd" clip-rule="evenodd" d="M3.64977 1.3605L13.2855 1.35693C13.5848 1.35687 13.8731 1.46954 14.0931 1.67251C14.313 1.87547 14.4484 2.15384 14.4724 2.45217L15.5367 15.5462C15.5494 15.7021 15.5313 15.8589 15.4833 16.0078C15.4354 16.1567 15.3586 16.2946 15.2573 16.4138C15.1561 16.533 15.0323 16.6311 14.8931 16.7024C14.7539 16.7737 14.6021 16.8169 14.4462 16.8296L14.351 16.8331H2.64262C2.32689 16.8331 2.02409 16.7077 1.80083 16.4844C1.57757 16.2612 1.45215 15.9584 1.45215 15.6426L1.45572 15.551L2.46286 2.45931C2.48595 2.16035 2.62101 1.8811 2.84106 1.67739C3.0611 1.47368 3.34991 1.36051 3.64977 1.3605Z" stroke="#767676" stroke-linecap="round" stroke-linejoin="round"/>
<path d="M12.0716 6.11914V6.887C12.0716 8.20247 9.81562 8.50009 8.50014 8.50009C7.18466 8.50009 4.92871 8.02985 4.92871 6.71438V6.11914" stroke="#767676" stroke-linecap="round" stroke-linejoin="round"/>
</svg>
