<svg width="38" height="44" viewBox="0 0 38 44" fill="none" xmlns="http://www.w3.org/2000/svg">
<path d="M27.4163 23.0002C21.6663 23.0002 16.9997 27.6668 16.9997 33.4168C16.9997 39.1668 21.6663 43.8335 27.4163 43.8335C33.1663 43.8335 37.833 39.1668 37.833 33.4168C37.833 27.6668 33.1663 23.0002 27.4163 23.0002ZM30.8538 38.3127L26.3747 33.8335V27.1668H28.458V32.9793L32.3122 36.8335L30.8538 38.3127ZM29.4997 4.25016H22.8747C21.9997 1.8335 19.708 0.0834961 16.9997 0.0834961C14.2913 0.0834961 11.9997 1.8335 11.1247 4.25016H4.49967C2.20801 4.25016 0.333008 6.12516 0.333008 8.41683V39.6668C0.333008 41.9585 2.20801 43.8335 4.49967 43.8335H17.2288C15.9963 42.6371 14.9936 41.2249 14.2705 39.6668H4.49967V8.41683H8.66634V14.6668H25.333V8.41683H29.4997V19.0002C30.9788 19.2085 32.3747 19.646 33.6663 20.2502V8.41683C33.6663 6.12516 31.7913 4.25016 29.4997 4.25016ZM16.9997 8.41683C15.8538 8.41683 14.9163 7.47933 14.9163 6.3335C14.9163 5.18766 15.8538 4.25016 16.9997 4.25016C18.1455 4.25016 19.083 5.18766 19.083 6.3335C19.083 7.47933 18.1455 8.41683 16.9997 8.41683Z" fill="#767676"/>
</svg>
