<svg width="21" height="22" viewBox="0 0 21 22" fill="none" xmlns="http://www.w3.org/2000/svg">
<path fill-rule="evenodd" clip-rule="evenodd" d="M19.8326 15.2618V3.35703C19.8326 2.72556 19.5817 2.11995 19.1352 1.67344C18.6887 1.22692 18.0831 0.976074 17.4516 0.976074H7.92783C7.29636 0.976074 6.69075 1.22692 6.24424 1.67344C5.79772 2.11995 5.54688 2.72556 5.54688 3.35703V15.2618C5.54688 15.8933 5.79772 16.4989 6.24424 16.9454C6.69075 17.3919 7.29636 17.6427 7.92783 17.6427H17.4516C18.0831 17.6427 18.6887 17.3919 19.1352 16.9454C19.5817 16.4989 19.8326 15.8933 19.8326 15.2618Z" stroke="#767676" stroke-linecap="round" stroke-linejoin="round"/>
<path d="M5.31509 3.875L2.92938 4.74405C2.33619 4.96011 1.85309 5.40291 1.58631 5.97509C1.31953 6.54726 1.29092 7.20197 1.50676 7.79524L5.57819 18.9821C5.68516 19.276 5.84898 19.5459 6.06028 19.7764C6.27159 20.007 6.52624 20.1936 6.80969 20.3257C7.09314 20.4578 7.39984 20.5328 7.71227 20.5464C8.0247 20.5599 8.33674 20.5118 8.63057 20.4048L15.2591 17.7881M9.11866 6.92857H15.071M9.11866 9.30952H16.2615M9.11866 11.6905H12.6901" stroke="#767676" stroke-linecap="round" stroke-linejoin="round"/>
</svg>
