<svg width="300" height="269" viewBox="0 0 300 269" fill="none" xmlns="http://www.w3.org/2000/svg">
<g clip-path="url(#clip0_2108_5215)">
<path d="M297.343 221.41C294.614 238.22 282.319 251.236 269.229 262.611C267.402 264.199 265.57 265.757 263.734 267.284C263.721 267.291 263.708 267.305 263.695 267.313C263.607 267.386 263.518 267.459 263.437 267.532C263.058 267.847 262.678 268.161 262.302 268.473L262.538 268.546L263.273 268.772C263.021 268.703 262.772 268.637 262.52 268.568C262.445 268.546 262.367 268.528 262.292 268.507C253.613 266.16 244.758 263.584 237.663 258.086C230.303 252.375 225.234 242.64 227.772 233.67C228.106 232.495 228.57 231.361 229.156 230.289C229.395 229.84 229.659 229.406 229.936 228.978C231.614 226.34 233.963 224.197 236.742 222.769C239.521 221.341 242.629 220.68 245.748 220.854C248.867 221.028 251.883 222.03 254.486 223.758C257.09 225.485 259.187 227.876 260.562 230.684C260.438 220.8 251.421 213.593 242.963 208.492C234.502 203.395 224.922 197.888 222.262 188.364C220.779 183.066 222.027 177.608 224.939 172.997C225.029 172.857 225.12 172.717 225.214 172.58C228.785 167.188 234.257 163.343 240.536 161.814C252.253 159.153 264.532 164.054 274.142 171.277C289.609 182.896 300.445 202.297 297.343 221.41Z" fill="#F2F2F2"/>
<path d="M272.492 202.84C275.194 206.113 277.406 209.763 279.056 213.675C280.475 217.178 281.363 220.874 281.69 224.64C282.402 232.376 280.936 240.196 278.013 247.355C275.739 252.791 272.787 257.916 269.229 262.611C267.402 264.199 265.57 265.757 263.733 267.283C263.72 267.291 263.708 267.305 263.695 267.313C263.607 267.386 263.518 267.459 263.436 267.532C263.057 267.847 262.678 268.161 262.302 268.472L262.538 268.546L263.273 268.772C263.021 268.703 262.772 268.637 262.52 268.567C262.444 268.546 262.366 268.528 262.291 268.507C262.303 262.328 260.835 256.237 258.01 250.743C255.186 245.25 251.087 240.514 246.058 236.933C241.025 233.415 235.234 231.139 229.155 230.288C229.395 229.84 229.659 229.406 229.936 228.978C232.288 229.343 234.603 229.916 236.854 230.689C244.899 233.431 251.848 238.694 256.673 245.697C261.012 252.062 263.448 259.534 263.693 267.236C263.996 266.887 264.299 266.53 264.592 266.178C270.177 259.551 274.956 252.14 277.804 243.909C280.294 236.928 281.031 229.441 279.95 222.108C278.679 214.124 274.596 207.077 269.197 201.164C263.415 194.837 256.472 189.459 249.207 184.95C241.764 180.322 233.783 176.623 225.443 173.936C225.254 173.874 225.097 173.742 225.003 173.567C224.909 173.393 224.886 173.189 224.939 172.997C224.972 172.827 225.07 172.677 225.213 172.58C225.288 172.536 225.371 172.51 225.457 172.504C225.543 172.497 225.629 172.51 225.709 172.541C226.739 172.874 227.763 173.213 228.781 173.573C237.263 176.572 245.341 180.615 252.828 185.608C260.058 190.417 266.999 196.071 272.492 202.84Z" fill="white"/>
<path d="M124.972 164.454C124.138 164.452 123.335 164.134 122.727 163.562C122.119 162.991 121.75 162.21 121.695 161.376L121.207 153.916C121.15 153.045 121.441 152.186 122.016 151.53C122.592 150.873 123.404 150.473 124.274 150.415L182.655 146.588C183.575 146.527 184.499 146.648 185.372 146.945C186.246 147.241 187.053 147.708 187.747 148.316C188.44 148.925 189.007 149.665 189.415 150.493C189.824 151.321 190.065 152.222 190.125 153.144C190.185 154.065 190.063 154.99 189.767 155.864C189.47 156.739 189.004 157.546 188.396 158.24C187.787 158.935 187.048 159.502 186.22 159.91C185.393 160.318 184.493 160.559 183.573 160.619L125.192 164.446C125.118 164.451 125.045 164.453 124.972 164.454Z" fill="#228B22"/>
<path d="M136.484 165.416C135.633 165.414 134.816 165.083 134.204 164.493C133.592 163.902 133.231 163.097 133.199 162.246L132.783 151.103C132.766 150.671 132.835 150.24 132.986 149.835C133.136 149.429 133.365 149.058 133.658 148.741C133.952 148.424 134.305 148.168 134.698 147.988C135.091 147.807 135.515 147.706 135.946 147.69L183.954 145.894C184.826 145.861 185.675 146.177 186.314 146.771C186.954 147.365 187.331 148.189 187.364 149.061L187.78 160.204C187.796 160.636 187.727 161.067 187.577 161.472C187.426 161.878 187.198 162.249 186.904 162.566C186.61 162.883 186.257 163.139 185.864 163.319C185.472 163.5 185.048 163.601 184.616 163.617L136.608 165.413C136.566 165.415 136.525 165.416 136.484 165.416Z" fill="#2F2E41"/>
<path d="M192.742 268.13H185.274C184.402 268.129 183.566 267.782 182.95 267.164C182.333 266.547 181.986 265.71 181.985 264.837V202.527C181.986 201.654 182.333 200.817 182.95 200.2C183.566 199.583 184.402 199.236 185.274 199.235H192.742C193.614 199.236 194.45 199.583 195.066 200.2C195.683 200.817 196.03 201.654 196.031 202.527V264.837C196.03 265.71 195.683 266.547 195.066 267.164C194.45 267.782 193.614 268.129 192.742 268.13Z" fill="#2F2E41"/>
<path d="M159.595 235.193L153.209 231.318C152.463 230.865 151.928 230.134 151.721 229.286C151.513 228.438 151.65 227.543 152.101 226.796L184.363 173.51C184.816 172.764 185.545 172.228 186.392 172.02C187.239 171.813 188.134 171.949 188.88 172.401L195.266 176.276C196.011 176.73 196.546 177.46 196.754 178.308C196.961 179.156 196.825 180.051 196.374 180.798L164.112 234.084C163.659 234.83 162.929 235.366 162.082 235.574C161.235 235.782 160.341 235.645 159.595 235.193Z" fill="#2F2E41"/>
<path d="M181.399 134.207C195.65 134.207 207.203 122.641 207.203 108.374C207.203 94.1071 195.65 82.5413 181.399 82.5413C167.148 82.5413 155.596 94.1071 155.596 108.374C155.596 122.641 167.148 134.207 181.399 134.207Z" fill="#228B22"/>
<path d="M167.432 117.194C166.602 116.921 165.84 116.474 165.197 115.881C164.771 115.458 164.443 114.947 164.235 114.384C164.027 113.82 163.945 113.218 163.994 112.62C164.021 112.193 164.146 111.779 164.36 111.409C164.573 111.039 164.869 110.723 165.225 110.487C166.148 109.894 167.382 109.892 168.639 110.447L168.591 100.362L169.603 100.357L169.659 112.213L168.879 111.722C167.975 111.153 166.684 110.753 165.771 111.339C165.546 111.494 165.359 111.699 165.226 111.938C165.092 112.177 165.016 112.443 165.002 112.716C164.968 113.162 165.03 113.61 165.184 114.03C165.338 114.45 165.581 114.831 165.896 115.148C167.013 116.217 168.644 116.551 170.503 116.85L170.342 117.85C169.355 117.719 168.381 117.499 167.432 117.194Z" fill="#2F2E41"/>
<path d="M158.16 99.8522L158.027 100.856L163.43 101.571L163.563 100.567L158.16 99.8522Z" fill="#2F2E41"/>
<path d="M175.214 102.107L175.082 103.111L180.485 103.825L180.618 102.821L175.214 102.107Z" fill="#2F2E41"/>
<path d="M202.946 219.245H159.433C158.293 219.244 157.2 218.79 156.394 217.982C155.588 217.175 155.134 216.081 155.133 214.939L164.242 145.006C164.249 143.869 164.706 142.782 165.511 141.982C166.316 141.181 167.406 140.732 168.541 140.733H183.982C190.15 140.74 196.063 143.196 200.425 147.562C204.786 151.928 207.239 157.848 207.246 164.023V214.939C207.245 216.081 206.791 217.175 205.985 217.982C205.179 218.79 204.086 219.244 202.946 219.245Z" fill="#2F2E41"/>
<path d="M191.989 215.517C191.725 216.095 191.299 216.584 190.763 216.925C190.227 217.266 189.605 217.445 188.97 217.44L181.502 217.375C181.07 217.372 180.643 217.283 180.246 217.114C179.848 216.945 179.488 216.699 179.185 216.391C178.883 216.083 178.643 215.718 178.482 215.317C178.32 214.916 178.239 214.487 178.242 214.055L178.75 155.485C178.758 154.561 178.947 153.649 179.307 152.799C179.668 151.949 180.192 151.178 180.849 150.531C181.507 149.884 182.286 149.373 183.141 149.027C183.996 148.681 184.91 148.507 185.833 148.515C186.755 148.523 187.666 148.713 188.515 149.074C189.364 149.435 190.134 149.959 190.78 150.618C191.427 151.276 191.937 152.056 192.283 152.911C192.628 153.767 192.802 154.683 192.794 155.606L192.287 214.176C192.283 214.639 192.182 215.096 191.989 215.517Z" fill="#228B22"/>
<path d="M195.288 199.881C195.024 200.459 194.598 200.948 194.062 201.289C193.526 201.63 192.904 201.809 192.269 201.804L179.514 201.694C178.642 201.685 177.809 201.331 177.198 200.708C176.587 200.085 176.247 199.246 176.254 198.373L176.671 150.278C176.674 149.846 176.763 149.419 176.932 149.021C177.1 148.623 177.346 148.262 177.654 147.959C177.962 147.655 178.327 147.416 178.727 147.254C179.127 147.092 179.556 147.011 179.988 147.015L192.742 147.125C193.174 147.129 193.601 147.218 193.999 147.387C194.396 147.556 194.757 147.801 195.059 148.11C195.362 148.418 195.601 148.783 195.763 149.184C195.925 149.585 196.006 150.014 196.002 150.446L195.586 198.541C195.582 199.003 195.481 199.46 195.288 199.881Z" fill="#2F2E41"/>
<path d="M181.882 93.0526C178.433 90.1949 173.822 92.8977 169.921 92.5141C166.189 92.1471 163.185 88.8591 162.366 85.3208C161.411 81.1927 163.481 76.9995 166.6 74.3551C170.015 71.4589 174.6 70.5589 178.97 70.9996C183.978 71.5047 188.592 73.7496 192.746 76.492C196.754 79.0548 200.452 82.0733 203.767 85.4873C206.737 88.6486 209.275 92.436 210.144 96.7496C210.934 100.67 210.471 105.039 208.211 108.416C207.012 110.147 205.387 111.54 203.493 112.46C201.52 113.477 199.409 114.217 197.5 115.361C194.614 117.091 191.844 120.615 192.827 124.21C193.038 124.995 193.438 125.717 193.993 126.311C194.66 127.024 195.819 126.043 195.151 125.327C193.977 124.072 193.99 122.367 194.574 120.829C195.27 119.097 196.533 117.652 198.156 116.731C200.154 115.537 202.371 114.781 204.421 113.688C206.384 112.689 208.077 111.229 209.356 109.433C211.768 105.939 212.424 101.438 211.784 97.2985C211.09 92.8188 208.708 88.7813 205.753 85.4162C202.538 81.754 198.616 78.6769 194.616 75.9215C190.324 72.965 185.598 70.4864 180.404 69.6562C175.901 68.9365 171.047 69.5247 167.17 72.0473C163.551 74.4021 160.817 78.3863 160.621 82.7839C160.558 84.7843 161.03 86.7652 161.986 88.5228C162.942 90.2803 164.349 91.751 166.061 92.7835C167.818 93.7908 169.845 94.2206 171.859 94.0124C174.012 93.8332 176.157 93.1313 178.33 93.2735C179.313 93.3145 180.256 93.6752 181.016 94.3008C181.769 94.9252 182.63 93.6719 181.882 93.0526Z" fill="#2F2E41"/>
<path d="M151.54 227.696C151.549 227.639 151.56 227.582 151.572 227.525C151.662 227.102 151.835 226.701 152.081 226.345C152.327 225.989 152.641 225.686 153.005 225.452L159.28 221.4C160.013 220.928 160.904 220.766 161.756 220.95C162.608 221.134 163.353 221.649 163.826 222.382L183.185 252.429C183.657 253.163 183.82 254.055 183.636 254.909C183.452 255.762 182.937 256.508 182.204 256.981L175.928 261.033C175.195 261.505 174.304 261.667 173.452 261.483C172.6 261.299 171.855 260.784 171.382 260.051L152.023 230.004C151.581 229.322 151.409 228.499 151.54 227.696Z" fill="#2F2E41"/>
<path d="M128.038 29.6696C127.556 28.5235 126.749 27.544 125.716 26.8525C124.684 26.161 123.471 25.7877 122.229 25.7788H6.28509C4.61846 25.7797 3.02034 26.4429 1.84185 27.6227C0.663359 28.8026 0.000895529 30.4025 0 32.071V178.918C0.000895529 180.586 0.663359 182.186 1.84185 183.366C3.02034 184.546 4.61846 185.209 6.28509 185.21H122.233C123.9 185.208 125.497 184.544 126.675 183.364C127.853 182.185 128.516 180.586 128.518 178.918V32.071C128.521 31.2468 128.359 30.4303 128.042 29.6696H128.038ZM127.119 178.918C127.117 180.215 126.601 181.46 125.685 182.377C124.768 183.295 123.525 183.811 122.229 183.813H6.28509C4.98857 183.812 3.74519 183.297 2.82833 182.379C1.91147 181.461 1.39618 180.216 1.39574 178.918V32.0719C1.3975 30.7742 1.9132 29.5302 2.82975 28.6126C3.7463 27.695 4.9889 27.1787 6.28509 27.177H122.233C123.21 27.1807 124.163 27.4756 124.971 28.024C125.78 28.5724 126.406 29.3495 126.772 30.2561C126.843 30.4368 126.904 30.6211 126.956 30.8084C127.066 31.2204 127.123 31.6452 127.123 32.0719L127.119 178.918Z" fill="#3F3D56"/>
<path d="M103.842 60.4489H68.9181C68.177 60.4489 67.4664 60.1542 66.9424 59.6296C66.4184 59.105 66.124 58.3936 66.124 57.6517C66.124 56.9098 66.4184 56.1983 66.9424 55.6738C67.4664 55.1492 68.177 54.8545 68.9181 54.8545H103.842C104.583 54.8545 105.294 55.1492 105.818 55.6738C106.342 56.1983 106.636 56.9098 106.636 57.6517C106.636 58.3936 106.342 59.105 105.818 59.6296C105.294 60.1542 104.583 60.4489 103.842 60.4489Z" fill="#3F3D56"/>
<path d="M103.842 75.1337H68.9179C68.5507 75.1342 68.1869 75.0622 67.8475 74.9219C67.5081 74.7815 67.1996 74.5755 66.9398 74.3157C66.6799 74.0559 66.4738 73.7474 66.3332 73.4078C66.1925 73.0682 66.1201 72.7041 66.1201 72.3365C66.1201 71.9688 66.1925 71.6048 66.3332 71.2652C66.4738 70.9256 66.6799 70.6171 66.9398 70.3573C67.1996 70.0975 67.5081 69.8915 67.8475 69.7511C68.1869 69.6108 68.5507 69.5388 68.9179 69.5393H103.842C104.209 69.5388 104.573 69.6108 104.912 69.7511C105.252 69.8915 105.56 70.0975 105.82 70.3573C106.08 70.6171 106.286 70.9256 106.427 71.2652C106.567 71.6048 106.64 71.9688 106.64 72.3365C106.64 72.7041 106.567 73.0682 106.427 73.4078C106.286 73.7474 106.08 74.0559 105.82 74.3157C105.56 74.5755 105.252 74.7815 104.912 74.9219C104.573 75.0622 104.209 75.1342 103.842 75.1337Z" fill="#3F3D56"/>
<path d="M50.9987 83.495H25.4764C24.643 83.4941 23.844 83.1623 23.2547 82.5723C22.6653 81.9823 22.3339 81.1824 22.333 80.348V50.1955C22.3339 49.3612 22.6653 48.5613 23.2547 47.9713C23.844 47.3813 24.643 47.0495 25.4764 47.0486H50.9987C51.8321 47.0495 52.6311 47.3813 53.2204 47.9713C53.8097 48.5613 54.1412 49.3612 54.1421 50.1955V80.348C54.1412 81.1824 53.8097 81.9823 53.2204 82.5723C52.6311 83.1623 51.8321 83.4941 50.9987 83.495Z" fill="#228B22"/>
<path d="M103.6 105.203H24.672C23.9309 105.203 23.2203 104.908 22.6963 104.383C22.1723 103.859 21.8779 103.147 21.8779 102.405C21.8779 101.663 22.1723 100.952 22.6963 100.427C23.2203 99.9029 23.9309 99.6082 24.672 99.6082H103.6C104.341 99.6082 105.052 99.9029 105.576 100.427C106.1 100.952 106.394 101.663 106.394 102.405C106.394 103.147 106.1 103.859 105.576 104.383C105.052 104.908 104.341 105.203 103.6 105.203Z" fill="#CCCCCC"/>
<path d="M103.6 119.887H24.672C23.9309 119.887 23.2203 119.592 22.6963 119.068C22.1723 118.543 21.8779 117.832 21.8779 117.09C21.8779 116.348 22.1723 115.637 22.6963 115.112C23.2203 114.587 23.9309 114.293 24.672 114.293H103.6C104.341 114.293 105.052 114.587 105.576 115.112C106.1 115.637 106.394 116.348 106.394 117.09C106.394 117.832 106.1 118.543 105.576 119.068C105.052 119.592 104.341 119.887 103.6 119.887Z" fill="#CCCCCC"/>
<path d="M103.599 134.572H24.6711C23.9308 134.571 23.2211 134.276 22.6979 133.751C22.1747 133.227 21.8809 132.516 21.8809 131.774C21.8809 131.033 22.1747 130.322 22.6979 129.798C23.2211 129.273 23.9308 128.978 24.6711 128.977H103.599C103.966 128.977 104.33 129.049 104.67 129.189C105.009 129.33 105.317 129.535 105.577 129.795C105.837 130.055 106.043 130.364 106.184 130.703C106.325 131.043 106.397 131.407 106.397 131.774C106.397 132.142 106.325 132.506 106.184 132.846C106.043 133.185 105.837 133.494 105.577 133.754C105.317 134.014 105.009 134.219 104.67 134.36C104.33 134.5 103.966 134.572 103.599 134.572Z" fill="#CCCCCC"/>
<path d="M103.6 149.257H24.672C23.9309 149.257 23.2203 148.962 22.6963 148.437C22.1723 147.913 21.8779 147.201 21.8779 146.459C21.8779 145.717 22.1723 145.006 22.6963 144.481C23.2203 143.957 23.9309 143.662 24.672 143.662H103.6C104.341 143.662 105.052 143.957 105.576 144.481C106.1 145.006 106.394 145.717 106.394 146.459C106.394 147.201 106.1 147.913 105.576 148.437C105.052 148.962 104.341 149.257 103.6 149.257Z" fill="#CCCCCC"/>
<path d="M103.6 163.941H24.672C23.9309 163.941 23.2203 163.646 22.6963 163.122C22.1723 162.597 21.8779 161.886 21.8779 161.144C21.8779 160.402 22.1723 159.691 22.6963 159.166C23.2203 158.641 23.9309 158.347 24.672 158.347H103.6C104.341 158.347 105.052 158.641 105.576 159.166C106.1 159.691 106.394 160.402 106.394 161.144C106.394 161.886 106.1 162.597 105.576 163.122C105.052 163.646 104.341 163.941 103.6 163.941Z" fill="#CCCCCC"/>
<path d="M128.904 53.9894C143.796 53.9894 155.869 41.9034 155.869 26.9947C155.869 12.0859 143.796 0 128.904 0C114.013 0 101.94 12.0859 101.94 26.9947C101.94 41.9034 114.013 53.9894 128.904 53.9894Z" fill="#228B22"/>
<path d="M126.232 37.2922C125.626 37.2933 125.035 37.0968 124.55 36.7325L124.52 36.7099L118.183 31.8568C117.889 31.6316 117.643 31.3506 117.458 31.0301C117.273 30.7095 117.153 30.3556 117.104 29.9886C117.056 29.6215 117.08 29.2485 117.176 28.8909C117.271 28.5332 117.436 28.1979 117.661 27.9041C117.886 27.6103 118.167 27.3637 118.487 27.1784C118.807 26.9932 119.161 26.8729 119.527 26.8244C119.894 26.7759 120.267 26.8002 120.624 26.8959C120.981 26.9915 121.316 27.1567 121.61 27.382L125.714 30.5331L135.413 17.865C135.638 17.5713 135.919 17.3248 136.239 17.1396C136.559 16.9545 136.912 16.8342 137.279 16.7857C137.645 16.7373 138.018 16.7616 138.375 16.8572C138.732 16.9528 139.067 17.1179 139.36 17.3431L139.361 17.3437L139.301 17.4274L139.362 17.3437C139.954 17.7991 140.341 18.471 140.439 19.2119C140.537 19.9527 140.337 20.7021 139.883 21.2956L128.475 36.1894C128.211 36.5326 127.871 36.8103 127.483 37.0009C127.094 37.1916 126.667 37.2901 126.235 37.2889L126.232 37.2922Z" fill="white"/>
<path d="M299.502 269H116.051C115.919 269 115.792 268.948 115.699 268.854C115.605 268.76 115.553 268.633 115.553 268.501C115.553 268.369 115.605 268.242 115.699 268.148C115.792 268.055 115.919 268.002 116.051 268.002H299.502C299.634 268.002 299.761 268.055 299.854 268.148C299.948 268.242 300 268.369 300 268.501C300 268.633 299.948 268.76 299.854 268.854C299.761 268.948 299.634 269 299.502 269Z" fill="#3F3D56"/>
</g>
<defs>
<clipPath id="clip0_2108_5215">
<rect width="300" height="269" fill="white"/>
</clipPath>
</defs>
</svg>
