<svg width="18" height="21" viewBox="0 0 18 21" fill="none" xmlns="http://www.w3.org/2000/svg">
<path fill-rule="evenodd" clip-rule="evenodd" d="M3.18011 1.43275L14.743 1.42847C15.1021 1.42839 15.4481 1.5636 15.7121 1.80716C15.976 2.05072 16.1385 2.38476 16.1673 2.74275L17.4444 18.4556C17.4596 18.6427 17.4379 18.8309 17.3804 19.0095C17.3229 19.1882 17.2307 19.3537 17.1092 19.4967C16.9877 19.6397 16.8392 19.7574 16.6721 19.843C16.5051 19.9286 16.3229 19.9805 16.1358 19.9956L16.0215 19.9999H1.97154C1.59266 19.9999 1.2293 19.8494 0.961388 19.5815C0.693479 19.3136 0.542969 18.9502 0.542969 18.5713L0.547255 18.4613L1.75583 2.75132C1.78353 2.39256 1.94561 2.05747 2.20966 1.81302C2.47371 1.56857 2.82028 1.43276 3.18011 1.43275Z" stroke="#767676" stroke-linecap="round" stroke-linejoin="round"/>
<path d="M13.2863 7.14282V8.06425C13.2863 9.64282 10.5791 9.99997 9.00056 9.99997C7.42199 9.99997 4.71484 9.43568 4.71484 7.85711V7.14282" stroke="#767676" stroke-linecap="round" stroke-linejoin="round"/>
</svg>
