<svg width="300" height="148" viewBox="0 0 300 148" fill="none" xmlns="http://www.w3.org/2000/svg">
<g clip-path="url(#clip0_2112_6028)">
<path d="M295.005 29.0952C295.005 29.7355 294.984 30.3732 294.943 31.0033C294.71 34.6448 293.792 38.2093 292.24 41.5093C292.227 41.5374 292.214 41.5657 292.202 41.5912C292.13 41.7449 292.056 41.8961 291.98 42.0472C289.624 46.7968 286.02 50.811 281.557 53.6567C277.095 56.5025 271.942 58.0718 266.656 58.1955L266.944 74.7511L270.684 72.7738L271.353 74.0494L266.972 76.3621L267.481 105.565L267.506 107.102H264.639L264.667 105.565L265.538 58.1981C261.707 58.1433 257.925 57.3254 254.411 55.7918C250.898 54.2582 247.723 52.0395 245.072 49.2647C244.888 49.0751 244.71 48.8805 244.531 48.6858C244.523 48.6782 244.518 48.6704 244.513 48.6653C242.303 46.2481 240.515 43.4737 239.226 40.4592C239.254 40.4926 239.285 40.5207 239.313 40.554C236.399 33.7198 236.201 26.0264 238.76 19.0505C241.318 12.0747 246.439 6.34472 253.073 3.03507C253.172 2.98642 253.277 2.93765 253.376 2.8865C259.938 -0.284411 267.448 -0.866086 274.417 1.25678C281.385 3.37964 287.305 8.05207 291.002 14.3479C291.178 14.6449 291.349 14.9498 291.512 15.2545C293.81 19.5033 295.01 24.2615 295.005 29.0952Z" fill="#F2F2F2"/>
<path d="M59.1301 44.6637C59.1301 45.1762 59.1138 45.6866 59.081 46.1909C58.8939 49.1057 58.1598 51.9587 56.9172 54.6001C56.907 54.6227 56.8967 54.6453 56.8866 54.6657C56.8294 54.7887 56.7701 54.9097 56.7088 55.0306C54.8231 58.8323 51.9387 62.0454 48.3667 64.3232C44.7946 66.601 40.6705 67.8571 36.4392 67.9561L36.6701 81.2075L39.6635 79.6248L40.1989 80.6459L36.6925 82.497L37.0992 105.871L37.1196 107.102H34.8249L34.8475 105.871L35.5442 67.9582C32.4777 67.9143 29.4505 67.2596 26.6384 66.0321C23.8263 64.8046 21.2853 63.0288 19.163 60.8077C19.0159 60.6559 18.8728 60.5002 18.7299 60.3443C18.7237 60.3382 18.7196 60.332 18.7155 60.3279C16.9463 58.3932 15.5156 56.1725 14.4838 53.7596C14.5063 53.7863 14.5308 53.8089 14.5533 53.8355C12.2211 48.3653 12.0627 42.2073 14.1104 36.6237C16.1581 31.0401 20.257 26.4537 25.5668 23.8046C25.6464 23.7656 25.7302 23.7266 25.8099 23.6857C31.062 21.1476 37.0728 20.682 42.6509 22.3812C48.229 24.0804 52.9672 27.8203 55.9262 32.8596C56.0672 33.0973 56.2041 33.3413 56.3348 33.5853C58.1736 36.9861 59.1346 40.7947 59.1301 44.6637Z" fill="#F2F2F2"/>
<path d="M74.5984 13.6397C74.3028 13.6863 74.0336 13.8374 73.8393 14.0657C73.6451 14.2941 73.5386 14.5846 73.5391 14.8847V107.732H79.8218V25.4726H218.042V108.047H224.324V15.177C224.326 14.8815 224.223 14.5949 224.035 14.3677C223.847 14.1404 223.585 13.987 223.295 13.9343C149.56 1.20446 83.4261 12.2476 74.5984 13.6397Z" fill="#E5E5E5"/>
<path d="M139.507 90.7129V93.5494H149.559V107.732H153.643V93.5494H194.481V107.732H198.564V93.5494H208.617V90.7129H139.507Z" fill="#CBCBCB"/>
<path d="M131.968 30.5151H86.1045V93.5491H131.968V30.5151Z" fill="#E5E5E5"/>
<path d="M127.611 36.5034H90.4609V87.561H127.611V36.5034Z" fill="white"/>
<path d="M176.575 25.4727H172.806V90.7128H176.575V25.4727Z" fill="#E5E5E5"/>
<path d="M299.686 107.732H0.314136C0.230822 107.732 0.15092 107.699 0.0920081 107.64C0.0330961 107.58 0 107.5 0 107.417C0 107.333 0.0330961 107.253 0.0920081 107.194C0.15092 107.135 0.230822 107.102 0.314136 107.102H299.686C299.769 107.102 299.849 107.135 299.908 107.194C299.967 107.253 300 107.333 300 107.417C300 107.5 299.967 107.58 299.908 107.64C299.849 107.699 299.769 107.732 299.686 107.732Z" fill="#CCCCCC"/>
<path d="M170.576 145.867H144.503C144.419 145.867 144.339 145.834 144.28 145.775C144.222 145.716 144.188 145.636 144.188 145.552C144.188 145.469 144.222 145.388 144.28 145.329C144.339 145.27 144.419 145.237 144.503 145.237H170.576C170.659 145.237 170.739 145.27 170.798 145.329C170.857 145.388 170.89 145.469 170.89 145.552C170.89 145.636 170.857 145.716 170.798 145.775C170.739 145.834 170.659 145.867 170.576 145.867Z" fill="#CBCBCB"/>
<path d="M240.314 145.867H214.241C214.158 145.867 214.078 145.834 214.019 145.775C213.96 145.716 213.927 145.636 213.927 145.552C213.927 145.469 213.96 145.388 214.019 145.329C214.078 145.27 214.158 145.237 214.241 145.237H240.314C240.398 145.237 240.477 145.27 240.536 145.329C240.595 145.388 240.628 145.469 240.628 145.552C240.628 145.636 240.595 145.716 240.536 145.775C240.477 145.834 240.398 145.867 240.314 145.867Z" fill="#CBCBCB"/>
<path d="M37.3826 145.867H11.3093C11.2259 145.867 11.146 145.834 11.0871 145.775C11.0282 145.716 10.9951 145.636 10.9951 145.552C10.9951 145.469 11.0282 145.388 11.0871 145.329C11.146 145.27 11.2259 145.237 11.3093 145.237H37.3826C37.4659 145.237 37.5458 145.27 37.6047 145.329C37.6636 145.388 37.6967 145.469 37.6967 145.552C37.6967 145.636 37.6636 145.716 37.6047 145.775C37.5458 145.834 37.4659 145.867 37.3826 145.867Z" fill="#CBCBCB"/>
<path d="M80.0256 124.927H65.3903L65.2352 120.412C65.2285 120.217 65.2641 120.022 65.3396 119.841C65.4152 119.661 65.5288 119.499 65.6727 119.367C65.8166 119.234 65.9874 119.135 66.1733 119.075C66.3591 119.015 66.5557 118.997 66.7494 119.021L75.2662 120.067H75.2672C76.5299 120.07 77.7397 120.576 78.6316 121.472C79.5235 122.369 80.0248 123.584 80.0256 124.851V124.927Z" fill="#228B22"/>
<path d="M73.5028 108.913H63.2954C63.0213 108.913 62.7584 109.022 62.5646 109.216C62.3707 109.411 62.2618 109.674 62.2617 109.949V120.191C62.2617 120.327 62.2884 120.462 62.3403 120.588C62.3922 120.713 62.4683 120.828 62.5642 120.924C62.6601 121.02 62.774 121.097 62.8994 121.149C63.0247 121.201 63.1591 121.228 63.2948 121.228H73.5028C73.6385 121.228 73.7729 121.201 73.8983 121.149C74.0236 121.097 74.1376 121.021 74.2336 120.924C74.3296 120.828 74.4057 120.714 74.4577 120.588C74.5096 120.462 74.5364 120.328 74.5364 120.191V109.95C74.5365 109.675 74.4277 109.411 74.234 109.217C74.0402 109.022 73.7774 108.913 73.5033 108.913H73.5028Z" fill="#CCCCCC"/>
<path d="M71.2039 116.571L66.3845 117.512C66.0986 117.568 65.8025 117.507 65.561 117.344C65.3196 117.181 65.1525 116.928 65.0966 116.641L64.7261 114.733C64.6708 114.446 64.7311 114.149 64.8938 113.906C65.0566 113.664 65.3084 113.497 65.5942 113.44L70.4135 112.499C70.6994 112.443 70.9956 112.504 71.237 112.667C71.4785 112.83 71.6455 113.083 71.7015 113.37L72.072 115.278C72.1273 115.565 72.067 115.862 71.9043 116.105C71.7415 116.347 71.4896 116.514 71.2039 116.571Z" fill="#3F3D56"/>
<path d="M70.2403 114.316L66.5623 115.034C66.529 115.041 66.4947 115.041 66.4614 115.034C66.428 115.028 66.3964 115.014 66.3682 114.995C66.3399 114.976 66.3157 114.952 66.297 114.923C66.2782 114.895 66.2652 114.863 66.2587 114.83C66.2522 114.796 66.2523 114.762 66.2591 114.728C66.2659 114.695 66.2792 114.663 66.2982 114.635C66.3172 114.607 66.3416 114.582 66.37 114.564C66.3984 114.545 66.4302 114.532 66.4636 114.525L70.1415 113.807C70.2087 113.794 70.2783 113.808 70.3349 113.847C70.3916 113.885 70.4308 113.945 70.4439 114.012C70.457 114.079 70.4429 114.149 70.4047 114.206C70.3665 114.263 70.3074 114.303 70.2403 114.316Z" fill="white"/>
<path d="M69.5246 115.38L67.6223 115.752C67.5889 115.758 67.5547 115.758 67.5214 115.751C67.4882 115.744 67.4566 115.731 67.4284 115.712C67.4003 115.693 67.3762 115.669 67.3574 115.64C67.3387 115.612 67.3257 115.58 67.3192 115.547C67.3127 115.513 67.3129 115.479 67.3196 115.445C67.3264 115.412 67.3396 115.38 67.3586 115.352C67.3776 115.324 67.4019 115.3 67.4302 115.281C67.4585 115.262 67.4902 115.249 67.5235 115.243L69.4258 114.871C69.4931 114.858 69.5627 114.872 69.6194 114.911C69.6761 114.949 69.7153 115.009 69.7284 115.076C69.7415 115.143 69.7274 115.213 69.6892 115.27C69.651 115.327 69.5918 115.367 69.5246 115.38Z" fill="white"/>
<path d="M74.5364 109.95V111.311H62.2617V109.95C62.2616 109.675 62.3704 109.411 62.5642 109.217C62.7579 109.022 63.0207 108.913 63.2948 108.913H73.5028C73.6385 108.913 73.7729 108.94 73.8983 108.992C74.0236 109.044 74.1376 109.12 74.2336 109.216C74.3296 109.313 74.4057 109.427 74.4577 109.553C74.5096 109.678 74.5364 109.813 74.5364 109.949V109.95Z" fill="#B3B3B3"/>
<path d="M99.0475 111.737C98.9767 111.508 98.8565 111.297 98.6955 111.119C98.5345 110.941 98.3366 110.801 98.1157 110.708C97.8949 110.615 97.6564 110.572 97.4171 110.582C97.1778 110.591 96.9436 110.653 96.7308 110.764L82.6878 105.709L82.0693 109.228L96.0676 113.091C96.276 113.437 96.6037 113.694 96.9888 113.814C97.3738 113.935 97.7893 113.909 98.1566 113.742C98.5239 113.575 98.8175 113.279 98.9817 112.909C99.1459 112.54 99.1693 112.123 99.0475 111.737Z" fill="#FFB8B8"/>
<path opacity="0.2" d="M99.0475 111.737C98.9767 111.508 98.8565 111.297 98.6955 111.119C98.5345 110.941 98.3366 110.801 98.1157 110.708C97.8949 110.615 97.6564 110.572 97.4171 110.582C97.1778 110.591 96.9436 110.653 96.7308 110.764L82.6878 105.709L82.0693 109.228L96.0676 113.091C96.276 113.437 96.6037 113.694 96.9888 113.814C97.3738 113.935 97.7893 113.909 98.1566 113.742C98.5239 113.575 98.8175 113.279 98.9817 112.909C99.1459 112.54 99.1693 112.123 99.0475 111.737Z" fill="black"/>
<path d="M85.1804 106.35L83.8543 109.826C83.8166 109.925 83.7581 110.014 83.6827 110.089C83.6074 110.163 83.517 110.22 83.4177 110.256C83.3184 110.292 83.2126 110.306 83.1074 110.297C83.0022 110.288 82.9002 110.257 82.8082 110.205L79.5853 108.385C79.0823 108.188 78.6774 107.799 78.4596 107.304C78.2417 106.808 78.2286 106.246 78.4231 105.741C78.6175 105.235 79.0038 104.828 79.4971 104.608C79.9904 104.388 80.5506 104.373 81.0549 104.567L84.6537 105.367C84.7568 105.39 84.8537 105.435 84.9378 105.499C85.022 105.563 85.0914 105.644 85.1414 105.738C85.1914 105.831 85.2207 105.934 85.2275 106.04C85.2342 106.145 85.2182 106.251 85.1804 106.35Z" fill="#228B22"/>
<path d="M100.153 114.956L95.1211 117.251L95.7817 119.746C97.0575 124.564 97.396 129.585 96.7789 134.532L100.458 135.303L103.508 127.5L102.44 118.627L100.153 114.956Z" fill="#228B22"/>
<path d="M110.027 126.506C106.721 126.506 104.026 128.917 103.896 131.937H116.158C116.027 128.917 113.333 126.506 110.027 126.506Z" fill="#3F3D56"/>
<path d="M107.452 127.026C107.28 113.396 99.543 114.65 99.543 114.65C99.543 114.65 99.6877 118.892 99.7573 119.024C104.688 128.384 96.5506 139.356 86.1926 137.338C85.9973 137.3 85.8096 137.261 85.6297 137.222C84.3173 136.947 83.1585 136.181 82.3891 135.079C81.6197 133.978 81.2974 132.623 81.4878 131.292C82.5082 123.071 77.4333 123.217 77.4333 123.217H70.0125L66.1588 119.737C66.0228 119.614 65.8589 119.527 65.6813 119.482C65.5038 119.437 65.3181 119.437 65.1404 119.481C64.9628 119.525 64.7986 119.612 64.6622 119.735C64.5259 119.857 64.4215 120.012 64.3582 120.184L63.8625 121.534C63.8625 121.534 56.5434 122.299 57.1533 129.489H59.4161C59.4106 129.693 59.4188 129.898 59.4405 130.101L76.3279 129.963C76.8105 129.958 77.2761 130.142 77.6251 130.476C77.9741 130.811 78.1789 131.269 78.1957 131.753C78.1977 132.23 78.0108 132.688 77.6761 133.027C77.3414 133.365 76.8864 133.557 76.4111 133.559C76.3887 133.559 76.3663 133.558 76.3439 133.558L73.6213 133.467C72.7826 137.215 74.8411 139.739 77.1093 141.326C79.2448 142.799 81.7788 143.58 84.37 143.563H91.7665C101.373 143.563 103.05 135.455 103.05 135.455C108.082 133.314 107.452 127.026 107.452 127.026Z" fill="#3F3D56"/>
<path d="M109.569 148C114.306 148 118.146 144.147 118.146 139.395C118.146 134.642 114.306 130.79 109.569 130.79C104.832 130.79 100.992 134.642 100.992 139.395C100.992 144.147 104.832 148 109.569 148Z" fill="#3F3D56"/>
<path d="M109.569 141.504C110.73 141.504 111.671 140.56 111.671 139.395C111.671 138.23 110.73 137.286 109.569 137.286C108.408 137.286 107.467 138.23 107.467 139.395C107.467 140.56 108.408 141.504 109.569 141.504Z" fill="white"/>
<path d="M66.2647 148C71.7175 148 76.1379 143.565 76.1379 138.094C76.1379 132.624 71.7175 128.189 66.2647 128.189C60.812 128.189 56.3916 132.624 56.3916 138.094C56.3916 143.565 60.812 148 66.2647 148Z" fill="#3F3D56"/>
<path d="M66.2646 140.522C67.6011 140.522 68.6845 139.435 68.6845 138.094C68.6845 136.753 67.6011 135.667 66.2646 135.667C64.9281 135.667 63.8447 136.753 63.8447 138.094C63.8447 139.435 64.9281 140.522 66.2646 140.522Z" fill="white"/>
<path d="M95.1358 117.929L93.3253 112.995C93.1348 112.476 93.1576 111.902 93.3889 111.399C93.6201 110.897 94.0408 110.507 94.5584 110.316L99.7489 108.399C100.66 108.063 101.666 108.103 102.547 108.511C103.428 108.919 104.112 109.662 104.447 110.575C104.597 110.982 104.673 111.411 104.673 111.844C104.671 112.394 104.547 112.936 104.31 113.432C104.073 113.928 103.729 114.364 103.302 114.709C102.995 114.957 102.648 115.153 102.278 115.289L95.1358 117.929Z" fill="#3F3D56"/>
<path d="M104.597 111.844C104.596 112.383 104.476 112.914 104.244 113.4C104.011 113.885 103.674 114.313 103.255 114.65C102.613 114.48 102.016 114.172 101.504 113.747C100.993 113.322 100.58 112.79 100.294 112.189C100.008 111.588 99.8563 110.931 99.8489 110.265C99.8415 109.599 99.9788 108.939 100.251 108.332C100.774 108.218 101.316 108.222 101.837 108.346C102.358 108.469 102.845 108.708 103.261 109.045C103.678 109.382 104.014 109.808 104.246 110.293C104.477 110.777 104.597 111.307 104.597 111.844Z" fill="#228B22"/>
<path d="M58.4502 130.483C59.6291 130.483 60.5849 129.319 60.5849 127.883C60.5849 126.446 59.6291 125.282 58.4502 125.282C57.2712 125.282 56.3154 126.446 56.3154 127.883C56.3154 129.319 57.2712 130.483 58.4502 130.483Z" fill="#228B22"/>
<path d="M86.6683 137.088H88.5374L89.427 132.224L86.668 132.224L86.6683 137.088Z" fill="#FFB8B8"/>
<path d="M86.1914 136.476L89.8729 136.476C90.181 136.476 90.4862 136.537 90.7708 136.655C91.0555 136.774 91.3141 136.947 91.532 137.165C91.7498 137.384 91.9227 137.643 92.0406 137.929C92.1585 138.215 92.2192 138.521 92.2192 138.83V138.906L86.1915 138.907L86.1914 136.476Z" fill="#2F2E41"/>
<path d="M88.8376 135.092C88.8158 135.092 88.7939 135.091 88.772 135.089L86.1849 134.9C86.0803 134.89 85.9793 134.856 85.8897 134.801C85.8001 134.746 85.7243 134.671 85.6682 134.582C85.6121 134.493 85.5771 134.392 85.566 134.287C85.5549 134.183 85.5679 134.077 85.604 133.978L89.0664 126.173C89.0911 126.104 89.1012 126.03 89.0961 125.956C89.0909 125.882 89.0706 125.81 89.0364 125.745C89.0023 125.679 88.9547 125.621 88.8966 125.574C88.8385 125.528 88.7712 125.494 88.6993 125.476C87.0712 125.049 82.894 123.912 79.278 122.582C77.7288 122.012 76.7531 121.188 76.378 120.134C76.2373 119.687 76.1885 119.216 76.2346 118.75C76.2808 118.284 76.4209 117.833 76.6464 117.423L76.671 117.381L80.0735 117.691L83.7622 118.006L91.8458 122.355C92.5231 122.722 93.0376 123.332 93.2868 124.063C93.536 124.794 93.5016 125.593 93.1904 126.299L89.4637 134.684C89.4097 134.806 89.3219 134.909 89.2108 134.981C89.0997 135.053 88.97 135.092 88.8376 135.092Z" fill="#2F2E41"/>
<path d="M80.666 102.251C82.7343 102.251 84.4111 100.569 84.4111 98.4935C84.4111 96.4183 82.7343 94.7361 80.666 94.7361C78.5976 94.7361 76.9209 96.4183 76.9209 98.4935C76.9209 100.569 78.5976 102.251 80.666 102.251Z" fill="#FFB8B8"/>
<path d="M85.6009 137.548H87.4703L88.3596 132.683L85.6006 132.683L85.6009 137.548Z" fill="#FFB8B8"/>
<path d="M85.124 136.935L88.8055 136.935C89.1136 136.935 89.4188 136.996 89.7035 137.114C89.9881 137.232 90.2467 137.406 90.4646 137.624C90.6824 137.843 90.8553 138.102 90.9732 138.388C91.0911 138.674 91.1518 138.98 91.1518 139.289V139.365L85.1241 139.366L85.124 136.935Z" fill="#2F2E41"/>
<path d="M87.7702 135.551C87.7484 135.551 87.7265 135.55 87.7046 135.548L85.1175 135.359C85.0129 135.349 84.9119 135.315 84.8223 135.26C84.7327 135.205 84.6569 135.13 84.6008 135.041C84.5447 134.952 84.5097 134.851 84.4986 134.746C84.4875 134.642 84.5005 134.536 84.5367 134.437L87.999 126.632C88.0237 126.563 88.0338 126.489 88.0287 126.415C88.0235 126.341 88.0032 126.269 87.969 126.204C87.935 126.138 87.8873 126.08 87.8292 126.033C87.7711 125.987 87.7038 125.953 87.6319 125.935C86.0038 125.508 81.8266 124.371 78.2106 123.041C76.6614 122.471 75.6857 121.647 75.3106 120.593C75.1699 120.146 75.1211 119.675 75.1673 119.209C75.2134 118.743 75.3535 118.292 75.5791 117.882L75.6036 117.84L79.0062 118.15L82.6949 118.465L90.7784 122.814C91.4557 123.181 91.9702 123.791 92.2194 124.522C92.4686 125.253 92.4342 126.052 92.1231 126.758L88.3963 135.143C88.3424 135.264 88.2545 135.368 88.1434 135.44C88.0323 135.512 87.9027 135.551 87.7702 135.551Z" fill="#2F2E41"/>
<path d="M81.821 104.381L77.8565 103.005C77.8565 103.005 75.3677 104.923 76.5633 109.682C77.1875 112.138 77.0057 114.73 76.0448 117.074C75.9292 117.364 75.7958 117.647 75.6455 117.92C75.6455 117.92 80.0675 123.275 84.1844 119.297L82.5834 111.572C82.5834 111.572 85.0993 106.447 81.821 104.381Z" fill="#228B22"/>
<path d="M81.1304 102.379C80.5974 101.578 80.1767 100.468 80.7636 99.7067C81.3429 98.9549 82.4854 99.0656 83.3726 98.733C84.6083 98.2697 85.325 96.8132 85.1015 95.5088C84.9637 94.8593 84.6597 94.257 84.2195 93.7612C83.7794 93.2653 83.2181 92.8929 82.591 92.6807C81.3212 92.2733 79.9465 92.3484 78.7282 92.8916C77.9719 93.194 77.2862 93.6501 76.7142 94.2313C76.1422 94.8126 75.6963 95.5063 75.4046 96.2689C75.1272 97.0376 75.0614 97.867 75.2141 98.6701C75.3667 99.4731 75.7322 100.22 76.2721 100.832C77.4712 102.099 79.3531 102.436 81.094 102.416" fill="#2F2E41"/>
<path d="M77.6471 95.5505C76.9755 96.0991 75.9507 95.8554 75.2297 95.374C74.5088 94.8925 73.9237 94.207 73.1436 93.8295C71.7684 93.164 70.1057 93.6064 68.7672 94.3435C67.4287 95.0807 66.2422 96.099 64.8284 96.6775C63.4146 97.2559 61.6105 97.2845 60.5399 96.1923C60.2765 96.9581 60.2549 97.7868 60.4782 98.5653C60.7015 99.3439 61.1588 100.034 61.7877 100.542C62.4166 101.051 63.1864 101.352 63.9922 101.405C64.7979 101.458 65.6004 101.26 66.29 100.839C67.8391 99.8919 68.6948 97.9069 70.4323 97.3843C71.3937 97.0952 72.4262 97.3281 73.3979 97.5803C74.3696 97.8325 75.3829 98.1051 76.3635 97.8904C77.3441 97.6756 78.2614 96.7915 78.1367 95.7922L77.6471 95.5505Z" fill="#2F2E41"/>
<path d="M98.8621 111.584C98.7635 111.365 98.6183 111.171 98.4367 111.014C98.2551 110.858 98.0414 110.743 97.8108 110.678C97.5802 110.613 97.3383 110.6 97.102 110.639C96.8657 110.678 96.6409 110.769 96.4433 110.905L81.886 107.627L81.7051 111.196L96.0714 113.296C96.3207 113.614 96.6776 113.829 97.0745 113.9C97.4713 113.972 97.8805 113.895 98.2245 113.684C98.5685 113.473 98.8234 113.143 98.9409 112.756C99.0584 112.369 99.0304 111.952 98.8621 111.584Z" fill="#FFB8B8"/>
<path d="M84.4375 107.955L83.549 111.568C83.5237 111.671 83.4767 111.767 83.411 111.85C83.3454 111.933 83.2627 112.001 83.1686 112.048C83.0745 112.096 82.9712 112.123 82.8657 112.128C82.7603 112.132 82.6551 112.114 82.5575 112.073L79.1354 110.666C78.6117 110.534 78.1618 110.198 77.8843 109.733C77.6069 109.268 77.5246 108.712 77.6555 108.186C77.7865 107.66 78.1199 107.208 78.5827 106.929C79.0454 106.649 79.5998 106.565 80.1241 106.695L83.794 107.045C83.8991 107.055 84.0008 107.087 84.0921 107.14C84.1835 107.193 84.2624 107.265 84.3235 107.352C84.3846 107.438 84.4264 107.537 84.446 107.641C84.4657 107.745 84.4628 107.852 84.4375 107.955Z" fill="#228B22"/>
<path d="M97.1797 114.42C97.7692 114.42 98.247 113.941 98.247 113.349C98.247 112.758 97.7692 112.279 97.1797 112.279C96.5902 112.279 96.1123 112.758 96.1123 113.349C96.1123 113.941 96.5902 114.42 97.1797 114.42Z" fill="#228B22"/>
<path d="M126.624 69.3966C126.226 72.5238 124.763 75.3849 123.202 78.141C123.151 78.2348 123.098 78.3273 123.043 78.4211H106.824C106.495 78.3357 106.172 78.2418 105.849 78.141C104.017 77.5814 102.288 76.7277 100.728 75.6132C94.7606 71.2998 92.4644 63.1492 93.5015 55.8459C94.1464 51.3084 96.1313 46.6758 99.9964 44.232C102.095 42.9495 104.599 42.5093 107.008 42.9996C107.069 43.0108 107.131 43.0248 107.193 43.0374C109.215 43.494 111.015 44.6283 112.04 46.4559C113.882 49.74 112.785 53.8082 111.879 57.4634C110.976 61.1186 110.486 65.4936 113.108 68.1894C112.723 67.062 112.645 65.8523 112.882 64.6846C113.118 63.5169 113.66 62.4333 114.451 61.5453C115.243 60.6574 116.257 59.9969 117.387 59.632C118.518 59.267 119.725 59.2107 120.884 59.4688C121.074 59.5094 121.261 59.5557 121.445 59.6117C121.89 59.7425 122.32 59.9229 122.725 60.1494C125.817 61.8818 127.069 65.8717 126.624 69.3966Z" fill="#F2F2F2"/>
<path d="M117.007 78.1411C117.456 78.2461 117.907 78.3385 118.36 78.4212H115.908C115.587 78.3343 115.267 78.2419 114.95 78.1411C114.254 77.9226 113.568 77.6719 112.893 77.389C110.155 76.2736 107.723 74.5148 105.803 72.2606C104.88 71.1573 104.127 69.9221 103.567 68.5956C102.96 67.0964 102.575 65.5164 102.423 63.9055C102.081 60.6005 102.43 57.2044 103.081 53.9581C103.754 50.5936 104.84 47.3257 106.314 44.2292C106.492 43.8581 106.675 43.4894 106.864 43.1229C106.877 43.0927 106.897 43.0659 106.922 43.0446C106.947 43.0232 106.976 43.0079 107.008 42.9997C107.072 42.9871 107.139 43.0007 107.194 43.0375C107.259 43.0751 107.307 43.1365 107.329 43.2089C107.351 43.2814 107.344 43.3594 107.309 43.4268C105.789 46.4008 104.637 49.5499 103.878 52.8042C103.097 55.9961 102.754 59.2802 102.858 62.5653C102.995 65.6155 103.789 68.6153 105.591 71.1094C107.27 73.3765 109.479 75.1948 112.023 76.4045C113.614 77.1683 115.286 77.7508 117.007 78.1411Z" fill="white"/>
<path d="M122.389 78.421H121.665C121.585 78.3285 121.506 78.2347 121.43 78.1409C119.783 76.1332 118.667 73.7413 118.186 71.1863C117.601 67.9978 118.056 64.7052 119.482 61.7963C119.88 60.9806 120.349 60.2017 120.884 59.4688C121.074 59.5094 121.261 59.5556 121.445 59.6116C119.403 62.3024 118.355 65.6213 118.482 69.001C118.609 72.3807 119.901 75.6114 122.139 78.1409C122.22 78.2347 122.303 78.3285 122.389 78.421Z" fill="white"/>
<path d="M32.066 77.8983L31.8682 78.0293L46.7616 100.668L46.9595 100.537L32.066 77.8983Z" fill="#2F2E41"/>
<path d="M23.139 105.658H24.5922L25.2836 100.034H23.1387L23.139 105.658Z" fill="#A0616A"/>
<path d="M22.7686 105.182L25.6307 105.182C26.1144 105.182 26.5784 105.374 26.9205 105.718C27.2625 106.061 27.4547 106.526 27.4547 107.012V107.071L22.7686 107.071L22.7686 105.182Z" fill="#2F2E41"/>
<path d="M13.6406 104.262L15.0065 104.761L17.5733 99.7135L15.5578 98.9773L13.6406 104.262Z" fill="#A0616A"/>
<path d="M13.4546 103.688L16.1441 104.67C16.5987 104.836 16.969 105.176 17.1734 105.616C17.3778 106.056 17.3997 106.559 17.2343 107.015L17.214 107.071L12.8105 105.463L13.4546 103.688Z" fill="#2F2E41"/>
<path d="M22.7253 67.2622L25.8074 68.2137L28.2968 72.3763L27.3484 77.2525L26.8742 81.5341V100.563C26.8742 100.563 23.2265 101.515 21.6719 100.563L22.2511 89.5026L18.3392 101.277L13.9531 99.6119L18.9319 83.0803C18.8518 81.8577 19.0557 80.6332 19.5276 79.5032C19.9548 78.4972 20.7047 77.6631 21.6584 77.1336V76.1822L20.71 70.1166L22.7253 67.2622Z" fill="#2F2E41"/>
<path d="M25.0609 66.7819C26.6689 66.7819 27.9725 65.4741 27.9725 63.8608C27.9725 62.2475 26.6689 60.9397 25.0609 60.9397C23.4529 60.9397 22.1494 62.2475 22.1494 63.8608C22.1494 65.4741 23.4529 66.7819 25.0609 66.7819Z" fill="#A0616A"/>
<path d="M27.8716 63.0991C27.4775 63.0202 27.0687 63.0667 26.7022 63.2321C26.3357 63.3976 26.0298 63.6737 25.8272 64.0219C25.7272 63.6523 25.1329 63.6713 24.913 63.9844C24.8242 64.1541 24.7696 64.3397 24.7525 64.5305C24.7353 64.7214 24.7559 64.9138 24.8131 65.0967C24.9288 65.4644 24.9214 65.8601 24.792 66.2232C24.6996 66.3826 24.5667 66.5146 24.407 66.6057C24.2472 66.6969 24.0662 66.744 23.8824 66.7422C23.5138 66.7332 23.1554 66.6188 22.8494 66.4124C22.2794 66.0605 21.8236 65.55 21.5375 64.943C21.2514 64.3359 21.1473 63.6586 21.2378 62.9933C21.3283 62.328 21.6096 61.7034 22.0475 61.1956C22.4853 60.6877 23.0609 60.3185 23.704 60.1328C24.435 59.9633 25.1892 59.9181 25.9351 59.9989C26.5444 59.9998 27.1489 60.106 27.7223 60.3128C28.0082 60.4192 28.2636 60.5945 28.466 60.8232C28.6684 61.0519 28.8117 61.3271 28.8833 61.6245C28.9865 62.2256 28.6358 63.3021 28.0301 63.355" fill="#2F2E41"/>
<path d="M23.2827 60.5435C23.5467 60.4995 23.8029 60.4172 24.0433 60.2992C24.1622 60.2405 24.2667 60.1562 24.3495 60.0524C24.4322 59.9486 24.4912 59.8278 24.5222 59.6985C24.5466 59.5696 24.5223 59.4362 24.4542 59.3242C24.3861 59.2123 24.2789 59.1297 24.1535 59.0925C23.9615 59.0766 23.7686 59.1086 23.5919 59.1857C23.504 59.2234 23.408 59.2384 23.3128 59.2291C23.2177 59.2199 23.1263 59.1867 23.0473 59.1328C22.8906 58.9855 22.9281 58.7191 22.7942 58.5516C22.7223 58.479 22.6301 58.4301 22.5298 58.4115C22.4294 58.3928 22.3258 58.4054 22.2328 58.4474C22.0469 58.5341 21.881 58.6586 21.7455 58.8129L21.028 59.5259C20.8884 59.6647 20.7373 59.8369 20.7728 60.0261C20.8056 60.1234 20.8729 60.2053 20.9618 60.2561C21.0507 60.307 21.1552 60.3234 21.2554 60.3021C21.4582 60.2551 21.6465 60.1588 21.8037 60.0217C21.5786 60.1623 21.3974 60.3635 21.2806 60.6022C21.2247 60.7198 21.2024 60.8507 21.216 60.9802C21.2297 61.1098 21.2787 61.2331 21.3578 61.3364C21.614 61.6327 22.0997 61.5921 22.4727 61.4443C22.9656 61.2486 23.3923 60.9154 23.7025 60.4841" fill="#2F2E41"/>
<path d="M23.2886 59.6788C22.6565 59.5642 22.0558 59.3165 21.5261 58.952C21.0696 58.592 20.8423 58.0638 21.1014 57.6199C20.9706 57.8451 20.9074 58.1034 20.9194 58.3638C20.9314 58.6242 21.0181 58.8755 21.169 59.0877C21.5626 59.5962 22.1281 59.9425 22.7588 60.0614C22.8919 60.1028 23.0344 60.1024 23.1673 60.0603C23.2857 60.0073 23.2895 59.8518 23.1516 59.8316" fill="#2F2E41"/>
<path d="M31.4487 76.8745C31.3918 76.9073 31.3376 76.9445 31.2865 76.9859L25.6743 75.2295L25.3587 73.832L23.1943 74.0343L23.5134 76.5627C23.5392 76.767 23.6303 76.9573 23.7731 77.1052C23.9159 77.2531 24.1027 77.3505 24.3053 77.3828L30.9107 78.4366C31.0069 78.671 31.172 78.8705 31.384 79.0085C31.596 79.1465 31.8448 79.2164 32.0974 79.2091C32.35 79.2017 32.5943 79.1174 32.798 78.9673C33.0016 78.8172 33.1549 78.6085 33.2375 78.3689C33.32 78.1293 33.3278 77.8701 33.26 77.6259C33.1921 77.3817 33.0517 77.164 32.8576 77.0018C32.6634 76.8395 32.4246 76.7405 32.1729 76.7177C31.9212 76.695 31.6686 76.7497 31.4487 76.8745Z" fill="#A0616A"/>
<path d="M22.9617 69.2841C22.9617 69.2841 23.4687 67.8304 24.9934 67.9626C26.518 68.0948 25.6882 73.9225 25.6882 73.9225L22.7246 77.9662L22.9617 69.2841Z" fill="#2F2E41"/>
<path d="M39.8969 105.523L38.8369 103.247L40.4751 102.479L41.5351 104.755C41.6366 104.973 41.6477 105.222 41.5658 105.449C41.484 105.675 41.316 105.859 41.0988 105.961C40.8815 106.063 40.6328 106.074 40.4074 105.992C40.182 105.91 39.9984 105.741 39.8969 105.523Z" fill="#3F3D56"/>
<path d="M36.2495 100.653C36.8641 100.653 37.3623 100.153 37.3623 99.5368C37.3623 98.9202 36.8641 98.4204 36.2495 98.4204C35.6349 98.4204 35.1367 98.9202 35.1367 99.5368C35.1367 100.153 35.6349 100.653 36.2495 100.653Z" fill="#3F3D56"/>
<path d="M44.7709 105.978L43.7109 103.702L45.3491 102.934L46.4091 105.21C46.5106 105.428 46.5217 105.677 46.4399 105.903C46.358 106.129 46.19 106.314 45.9728 106.415C45.7555 106.517 45.5069 106.528 45.2815 106.446C45.0561 106.364 44.8724 106.196 44.7709 105.978Z" fill="#3F3D56"/>
<path d="M36.2521 101.796C36.3109 101.17 36.6148 100.592 37.0972 100.191C37.5796 99.789 38.2012 99.5957 38.8255 99.6533L46.2787 100.348C46.5426 100.373 46.7858 100.502 46.955 100.707C47.1242 100.911 47.2056 101.175 47.1814 101.44L47.1025 102.291C47.031 103.053 46.6611 103.755 46.0739 104.244C45.4868 104.733 44.7303 104.968 43.9704 104.898L38.3877 104.378C37.7635 104.319 37.1881 104.014 36.7878 103.53C36.3874 103.046 36.1948 102.422 36.2521 101.796Z" fill="#3F3D56"/>
<path d="M37.6337 105.593L37.8655 103.092L39.666 103.259L39.4342 105.761C39.4118 106 39.2956 106.221 39.1111 106.374C38.9266 106.528 38.689 106.602 38.4503 106.579C38.2117 106.557 37.9916 106.441 37.8385 106.256C37.6853 106.071 37.6117 105.832 37.6337 105.593Z" fill="#3F3D56"/>
<path d="M42.8584 106.08L43.0902 103.579L44.8906 103.747L44.6589 106.248C44.6367 106.488 44.5205 106.708 44.336 106.862C44.1515 107.016 43.9137 107.089 43.6749 107.067C43.4362 107.045 43.216 106.928 43.0629 106.743C42.9097 106.558 42.8362 106.32 42.8584 106.08Z" fill="#3F3D56"/>
<path d="M51.1004 96.8676C51.3057 96.6549 51.5869 96.5327 51.882 96.528C52.177 96.5232 52.4619 96.6363 52.6739 96.8423C52.8859 97.0482 53.0077 97.3303 53.0124 97.6264C53.0172 97.9224 52.9045 98.2082 52.6992 98.4209L50.6671 100.526L49.0684 98.9728L51.1004 96.8676Z" fill="#3F3D56"/>
<path d="M46.2989 100.94L47.9268 99.2537C48.3226 98.8446 48.8639 98.6098 49.432 98.6006C50.0001 98.5915 50.5487 98.8088 50.9573 99.2049L51.3791 99.6148C51.8653 100.088 52.1444 100.736 52.1552 101.415C52.1661 102.095 51.9078 102.751 51.4371 103.24L50.0958 104.629C49.9476 104.783 49.745 104.871 49.5323 104.874C49.3196 104.877 49.1142 104.796 48.9612 104.648L46.317 102.079C46.1644 101.93 46.0768 101.727 46.0733 101.513C46.0699 101.3 46.151 101.094 46.2989 100.94Z" fill="#3F3D56"/>
<path d="M51.3423 96.6171C51.4122 96.5446 51.4956 96.4865 51.5879 96.4464C51.6801 96.4062 51.7793 96.3846 51.8798 96.3829C51.9804 96.3812 52.0803 96.3995 52.1738 96.4365C52.2673 96.4736 52.3526 96.5288 52.4248 96.599C52.4971 96.6692 52.5548 96.753 52.5947 96.8455C52.6347 96.9381 52.656 97.0377 52.6576 97.1386C52.6591 97.2394 52.6408 97.3396 52.6037 97.4334C52.5667 97.5272 52.5115 97.6127 52.4415 97.6851L50.1675 100.041L49.0684 98.973L51.3423 96.6171Z" fill="#3F3D56"/>
<path d="M48.0287 100.6L50.9264 103.416C51.0316 103.518 51.1157 103.639 51.174 103.774C51.2322 103.909 51.2634 104.053 51.2659 104.2C51.2683 104.347 51.2419 104.493 51.1881 104.629C51.1344 104.766 51.0544 104.89 50.9526 104.995C50.8509 105.101 50.7294 105.185 50.5952 105.243C50.461 105.302 50.3166 105.333 50.1704 105.335C50.0242 105.337 49.8789 105.311 49.743 105.257C49.6071 105.202 49.4831 105.122 49.3781 105.02L46.4805 102.204L48.0287 100.6Z" fill="#3F3D56"/>
<path d="M51.0782 105.089C51.2586 104.902 51.321 104.669 51.2175 104.569C51.114 104.468 50.8839 104.538 50.7035 104.725C50.5232 104.912 50.4608 105.145 50.5643 105.246C50.6678 105.346 50.8979 105.276 51.0782 105.089Z" fill="#228B22"/>
<path d="M46.6114 103.358H47.2041V100.028H46.6114V103.358Z" fill="#2F2E41"/>
<path d="M171.132 73.7614C173.102 73.7614 174.699 72.1593 174.699 70.183C174.699 68.2066 173.102 66.6045 171.132 66.6045C169.162 66.6045 167.565 68.2066 167.565 70.183C167.565 72.1593 169.162 73.7614 171.132 73.7614Z" fill="#2F2E41"/>
<path d="M162.256 100.801H160.694L159.951 94.7573H162.256L162.256 100.801Z" fill="#FEB8B8"/>
<path d="M159.579 100.353H162.591V102.256H157.683C157.683 102.006 157.732 101.758 157.827 101.528C157.922 101.297 158.062 101.087 158.238 100.91C158.414 100.734 158.623 100.593 158.853 100.498C159.083 100.402 159.33 100.353 159.579 100.353Z" fill="#2F2E41"/>
<path d="M159.818 99.9263L158.328 99.4572L159.423 93.4675L161.622 94.16L159.818 99.9263Z" fill="#FEB8B8"/>
<path d="M157.397 98.6952L160.27 99.6L159.703 101.415L155.02 99.9408C155.17 99.4594 155.505 99.0577 155.951 98.8241C156.397 98.5905 156.917 98.5441 157.397 98.6952Z" fill="#2F2E41"/>
<path d="M160.326 97.5146C160.258 97.5145 160.19 97.5022 160.126 97.4781L158.977 97.0459C158.848 96.997 158.741 96.9031 158.675 96.7815C158.609 96.6599 158.589 96.5186 158.619 96.3834C158.908 95.0785 159.894 90.636 160.434 88.2532C161.074 85.4268 170.413 84.9016 170.81 84.8806L170.843 84.8789L171.894 86.2029C172.273 87.4272 172.153 88.3821 171.536 89.0413C169.736 90.9643 164.361 89.771 163.72 89.62L160.863 97.1443C160.822 97.2532 160.748 97.3469 160.652 97.413C160.556 97.4792 160.443 97.5146 160.326 97.5146Z" fill="#2F2E41"/>
<path d="M161.982 98.4094C161.914 98.4094 161.846 98.3971 161.782 98.373L160.633 97.9407C160.504 97.8918 160.397 97.7979 160.331 97.6763C160.266 97.5547 160.246 97.4134 160.275 97.2782C160.564 95.9733 161.55 91.5308 162.09 89.1479C162.73 86.3216 172.069 85.7964 172.467 85.7754L172.499 85.7737L173.55 87.0981C173.929 88.3223 173.809 89.2773 173.192 89.9364C171.392 91.859 166.017 90.6662 165.376 90.5151L162.519 98.039C162.477 98.148 162.404 98.2417 162.308 98.3078C162.212 98.3739 162.098 98.4094 161.982 98.4094Z" fill="#2F2E41"/>
<path d="M158.658 80.0027C158.7 80.0594 158.738 80.1193 158.771 80.1819L165.053 80.8459L165.958 79.6018L168.008 80.7258L166.231 83.7447L158.526 81.7736C158.332 81.9637 158.084 82.09 157.817 82.1356C157.549 82.1812 157.274 82.1439 157.028 82.0288C156.782 81.9137 156.576 81.7261 156.439 81.4911C156.302 81.2561 156.239 80.9847 156.26 80.713C156.28 80.4414 156.382 80.1824 156.553 79.9704C156.723 79.7585 156.954 79.6037 157.214 79.5266C157.475 79.4494 157.752 79.4537 158.01 79.5387C158.268 79.6238 158.494 79.7857 158.658 80.0027Z" fill="#FEB8B8"/>
<path d="M173.258 87.6049C173.167 87.6047 173.078 87.5828 172.997 87.5411C171.741 86.9002 169.295 85.7903 167.026 85.558C166.949 85.5504 166.873 85.5266 166.805 85.4881C166.738 85.4495 166.678 85.3972 166.632 85.3344C166.584 85.271 166.55 85.1984 166.532 85.1212C166.514 85.044 166.512 84.9639 166.526 84.8858C166.73 83.7489 167.2 80.8539 167.139 78.5338C167.122 77.8204 167.346 77.1221 167.776 76.5538C168.207 75.9855 168.817 75.581 169.506 75.4067C169.922 75.2968 170.343 75.2134 170.769 75.1569C171.258 75.0948 171.755 75.1484 172.22 75.3137C172.685 75.4789 173.105 75.751 173.446 76.1084C173.788 76.4657 174.041 76.8982 174.185 77.3713C174.33 77.8444 174.362 78.345 174.279 78.8328C173.875 81.2372 173.467 84.5955 173.821 86.9397C173.838 87.0448 173.825 87.1524 173.784 87.2505C173.743 87.3486 173.676 87.4334 173.59 87.4956C173.494 87.5662 173.378 87.6045 173.258 87.6049Z" fill="#228B22"/>
<path d="M167.255 81.4893C167.177 81.4892 167.1 81.4729 167.028 81.4416L165.391 80.7309C165.252 80.6702 165.142 80.5565 165.086 80.4147C165.03 80.2729 165.033 80.1147 165.093 79.9747L166.358 77.0426C166.51 76.6837 166.797 76.4001 167.158 76.2541C167.518 76.108 167.921 76.1115 168.279 76.2637C168.636 76.416 168.919 76.7046 169.065 77.066C169.21 77.4274 169.207 77.832 169.055 78.1908L169.047 78.2102L167.782 81.1423C167.737 81.2452 167.664 81.3329 167.57 81.3945C167.477 81.4562 167.367 81.4891 167.255 81.4893Z" fill="#228B22"/>
<path d="M171.002 74.1596C172.73 74.1596 174.13 72.7542 174.13 71.0206C174.13 69.287 172.73 67.8816 171.002 67.8816C169.274 67.8816 167.873 69.287 167.873 71.0206C167.873 72.7542 169.274 74.1596 171.002 74.1596Z" fill="#FEB8B8"/>
<path d="M167.817 69.478C169.299 70.3856 170.97 70.9379 172.7 71.0919L172.185 70.4733C172.56 70.6123 172.954 70.6909 173.353 70.7061C173.553 70.7119 173.751 70.6706 173.933 70.5855C174.114 70.5005 174.272 70.374 174.396 70.2163C174.497 70.0526 174.557 69.8668 174.571 69.6748C174.585 69.4829 174.552 69.2904 174.476 69.1138C174.319 68.7614 174.075 68.4552 173.767 68.2242C173.22 67.7907 172.576 67.4995 171.89 67.3766C171.205 67.2537 170.499 67.3028 169.837 67.5197C169.383 67.6558 168.977 67.9176 168.664 68.2749C168.367 68.6421 167.796 68.9692 167.948 69.4165L167.817 69.478Z" fill="#2F2E41"/>
<path d="M171.281 66.8338C171.905 66.1992 172.66 65.7094 173.492 65.399C174.021 65.1759 174.6 65.1037 175.167 65.1904C175.449 65.2378 175.713 65.3603 175.932 65.5451C176.151 65.73 176.316 65.9703 176.41 66.2411C176.506 66.7033 176.434 67.1847 176.208 67.5988C176.011 68.0224 175.746 68.4148 175.586 68.854C175.423 69.3021 175.374 69.7841 175.444 70.2561C175.513 70.7281 175.699 71.1752 175.984 71.5568C176.27 71.9385 176.646 72.2425 177.078 72.4414C177.51 72.6403 177.985 72.7278 178.46 72.6958C177.921 72.8214 177.389 72.9785 176.868 73.1662C176.331 73.3039 175.698 73.2947 175.299 72.9089C174.877 72.5008 174.869 71.8373 174.889 71.2497L174.98 68.6289C175.025 68.1841 174.98 67.7348 174.849 67.3077C174.779 67.0954 174.648 66.9084 174.473 66.7703C174.298 66.6322 174.086 66.5492 173.864 66.5316C173.527 66.5694 173.21 66.7126 172.959 66.941C172.708 67.169 172.4 67.3237 172.067 67.3882C171.732 67.4183 171.349 67.1695 171.374 66.8324" fill="#2F2E41"/>
<path d="M165.742 86.7987C165.535 86.7984 165.33 86.7521 165.143 86.6629C164.955 86.5737 164.79 86.444 164.659 86.2831C164.527 86.1221 164.433 85.9339 164.383 85.7321C164.333 85.5303 164.328 85.3198 164.369 85.1159C164.41 84.912 164.495 84.7197 164.619 84.5528C164.743 84.3859 164.902 84.2487 165.085 84.1509C165.268 84.0532 165.47 83.9974 165.677 83.9875C165.884 83.9776 166.091 84.014 166.282 84.0939C166.34 84.1183 166.396 84.1466 166.449 84.1788L172.149 81.6119L172.309 80.0611L174.765 79.9951L174.749 82.5769C174.746 82.8761 174.647 83.1663 174.467 83.4044C174.286 83.6426 174.034 83.816 173.748 83.899L167.083 85.802C167.07 85.8461 167.055 85.8896 167.038 85.9322C166.931 86.1884 166.751 86.4073 166.52 86.5615C166.29 86.7156 166.019 86.7981 165.742 86.7986L165.742 86.7987Z" fill="#FEB8B8"/>
<path d="M174.557 81.26C174.487 81.2955 174.411 81.3162 174.333 81.3209L172.553 81.4307C172.401 81.4398 172.252 81.3883 172.138 81.2873C172.024 81.1863 171.955 81.0441 171.945 80.892L171.75 77.7029C171.738 77.5102 171.764 77.3171 171.827 77.1346C171.889 76.9521 171.987 76.7837 172.114 76.6391C172.242 76.4945 172.396 76.3765 172.569 76.2918C172.742 76.2071 172.93 76.1574 173.122 76.1456C173.314 76.1337 173.507 76.16 173.688 76.2227C173.87 76.2855 174.038 76.3836 174.182 76.5115C174.326 76.6393 174.444 76.7944 174.528 76.9678C174.613 77.1413 174.662 77.3297 174.674 77.5223L174.87 80.7115C174.876 80.8235 174.85 80.9351 174.795 81.0325C174.739 81.1299 174.657 81.209 174.557 81.26Z" fill="#228B22"/>
<path d="M170.973 86.2263H160.341C160.252 86.2263 160.18 86.2989 160.18 86.3883V86.9589C160.18 87.0484 160.252 87.1209 160.341 87.1209H170.973C171.062 87.1209 171.135 87.0484 171.135 86.9589V86.3883C171.135 86.2989 171.062 86.2263 170.973 86.2263Z" fill="#3F3D56"/>
<path d="M156.094 86.2904V80.028C156.094 79.8077 156.181 79.5966 156.337 79.4409C156.492 79.2851 156.702 79.1975 156.922 79.1973H168.259C168.478 79.1975 168.689 79.2851 168.844 79.4408C168.999 79.5966 169.087 79.8077 169.087 80.028V86.2904C169.087 86.5107 168.999 86.7218 168.844 86.8776C168.689 87.0333 168.478 87.1209 168.259 87.1211H156.922C156.702 87.1209 156.492 87.0333 156.337 86.8775C156.181 86.7218 156.094 86.5106 156.094 86.2904Z" fill="#3F3D56"/>
<path d="M162.727 83.9263C163.149 83.9263 163.492 83.5829 163.492 83.1594C163.492 82.7359 163.149 82.3926 162.727 82.3926C162.305 82.3926 161.963 82.7359 161.963 83.1594C161.963 83.5829 162.305 83.9263 162.727 83.9263Z" fill="white"/>
<path d="M152.455 10.6597H145.409C145.135 10.66 144.873 10.7691 144.68 10.9632C144.486 11.1573 144.377 11.4204 144.377 11.6949V18.7644C144.377 19.0388 144.486 19.302 144.68 19.496C144.873 19.6901 145.135 19.7993 145.409 19.7996H146.183V20.2723C146.183 20.3977 146.233 20.518 146.321 20.6066C146.41 20.6953 146.529 20.7451 146.654 20.7451C146.779 20.7451 146.899 20.6953 146.988 20.6066C147.076 20.518 147.126 20.3977 147.126 20.2723V19.7996H150.974V20.2723C150.974 20.3977 151.023 20.518 151.112 20.6066C151.2 20.6953 151.32 20.7451 151.445 20.7451C151.57 20.7451 151.69 20.6953 151.778 20.6066C151.867 20.518 151.916 20.3977 151.916 20.2723V19.7996H152.455C152.729 19.7993 152.991 19.6901 153.184 19.496C153.378 19.302 153.487 19.0388 153.487 18.7644V11.6949C153.487 11.4204 153.378 11.1573 153.184 10.9632C152.991 10.7691 152.729 10.66 152.455 10.6597Z" fill="white"/>
<path d="M152.493 11.4038H145.252V16.1257H152.493V11.4038Z" fill="#E5E5E5"/>
<path d="M146.654 19.0379C147.299 19.0379 147.822 18.5133 147.822 17.8661C147.822 17.219 147.299 16.6943 146.654 16.6943C146.009 16.6943 145.486 17.219 145.486 17.8661C145.486 18.5133 146.009 19.0379 146.654 19.0379Z" fill="#E5E5E5"/>
<path d="M151.326 19.0379C151.971 19.0379 152.494 18.5133 152.494 17.8661C152.494 17.219 151.971 16.6943 151.326 16.6943C150.681 16.6943 150.158 17.219 150.158 17.8661C150.158 18.5133 150.681 19.0379 151.326 19.0379Z" fill="#E5E5E5"/>
</g>
<defs>
<clipPath id="clip0_2112_6028">
<rect width="300" height="148" fill="white"/>
</clipPath>
</defs>
</svg>
