<svg width="18" height="19" viewBox="0 0 18 19" fill="none" xmlns="http://www.w3.org/2000/svg">
<path fill-rule="evenodd" clip-rule="evenodd" d="M3.18011 0.432752L14.743 0.428467C15.1021 0.428393 15.4481 0.563599 15.7121 0.807157C15.976 1.05072 16.1385 1.38476 16.1673 1.74275L17.4444 17.4556C17.4596 17.6427 17.4379 17.8309 17.3804 18.0095C17.3229 18.1882 17.2307 18.3537 17.1092 18.4967C16.9877 18.6397 16.8392 18.7574 16.6721 18.843C16.5051 18.9286 16.3229 18.9805 16.1358 18.9956L16.0215 18.9999H1.97154C1.59266 18.9999 1.2293 18.8494 0.961388 18.5815C0.693479 18.3136 0.542969 17.9502 0.542969 17.5713L0.547255 17.4613L1.75583 1.75132C1.78353 1.39256 1.94561 1.05747 2.20966 0.813017C2.47371 0.568566 2.82028 0.432763 3.18011 0.432752Z" fill="#228B22"/>
<path d="M13.2863 6.14282V7.06425C13.2863 8.64282 10.5791 8.99997 9.00056 8.99997C7.42199 8.99997 4.71484 8.43568 4.71484 6.85711V6.14282" stroke="#F5F5F5" stroke-linecap="round" stroke-linejoin="round"/>
</svg>
