<svg width="26" height="26" viewBox="0 0 26 26" fill="none" xmlns="http://www.w3.org/2000/svg">
<path d="M13 0.5C6.1 0.5 0.5 6.1 0.5 13C0.5 19.9 6.1 25.5 13 25.5C19.9 25.5 25.5 19.9 25.5 13C25.5 6.1 19.9 0.5 13 0.5ZM13 5.5C15.4125 5.5 17.375 7.4625 17.375 9.875C17.375 12.2875 15.4125 14.25 13 14.25C10.5875 14.25 8.625 12.2875 8.625 9.875C8.625 7.4625 10.5875 5.5 13 5.5ZM13 23C10.4625 23 7.4625 21.975 5.325 19.4C7.51451 17.6821 10.217 16.7485 13 16.7485C15.783 16.7485 18.4855 17.6821 20.675 19.4C18.5375 21.975 15.5375 23 13 23Z" fill="#228B22"/>
</svg>
