<svg width="26" height="26" viewBox="0 0 26 26" fill="none" xmlns="http://www.w3.org/2000/svg">
<path d="M5.01636 19.0066L4.612 19.3239L4.94028 19.7194C7.18649 22.4253 10.3367 23.5 13 23.5C15.6633 23.5 18.8135 22.4253 21.0597 19.7194L21.388 19.3239L20.9836 19.0066C18.7061 17.2197 15.8949 16.2485 13 16.2485C10.1051 16.2485 7.29392 17.2197 5.01636 19.0066ZM1 13C1 6.37614 6.37614 1 13 1C19.6239 1 25 6.37614 25 13C25 19.6239 19.6239 25 13 25C6.37614 25 1 19.6239 1 13ZM17.875 9.875C17.875 7.18636 15.6886 5 13 5C10.3114 5 8.125 7.18636 8.125 9.875C8.125 12.5636 10.3114 14.75 13 14.75C15.6886 14.75 17.875 12.5636 17.875 9.875Z" stroke="#767676"/>
</svg>
