<svg width="20" height="24" viewBox="0 0 20 24" fill="none" xmlns="http://www.w3.org/2000/svg">
<path fill-rule="evenodd" clip-rule="evenodd" d="M10.0001 23.4858L10.9016 22.4701C11.9244 21.2996 12.8449 20.1858 13.663 19.1287L14.3387 18.2372C17.1606 14.4363 18.5716 11.4206 18.5716 9.1901C18.5716 4.4301 14.7344 0.571533 10.0001 0.571533C5.26585 0.571533 1.42871 4.4301 1.42871 9.1901C1.42871 11.4206 2.83966 14.4368 5.66157 18.2387L6.33728 19.1301C7.50521 20.6262 8.72696 22.0782 10.0001 23.4858Z" stroke="#767676" stroke-linecap="round" stroke-linejoin="round"/>
<path d="M10.0001 12.7144C11.9726 12.7144 13.5716 11.1154 13.5716 9.14296C13.5716 7.17052 11.9726 5.57153 10.0001 5.57153C8.02769 5.57153 6.42871 7.17052 6.42871 9.14296C6.42871 11.1154 8.02769 12.7144 10.0001 12.7144Z" stroke="#767676" stroke-linecap="round" stroke-linejoin="round"/>
</svg>
