<svg width="300" height="290" viewBox="0 0 300 290" fill="none" xmlns="http://www.w3.org/2000/svg">
<g clip-path="url(#clip0_2108_5420)">
<path d="M273.69 277.438C273.37 277.452 273.052 277.368 272.781 277.197C272.51 277.025 272.298 276.774 272.174 276.478C272.05 276.182 272.02 275.855 272.089 275.542C272.157 275.228 272.32 274.943 272.556 274.725L272.663 274.299C272.649 274.265 272.635 274.231 272.62 274.197C272.297 273.434 271.756 272.784 271.065 272.327C270.373 271.871 269.562 271.629 268.734 271.633C267.905 271.636 267.096 271.883 266.408 272.345C265.72 272.806 265.183 273.46 264.866 274.225C263.598 277.279 261.983 280.338 261.585 283.567C261.41 284.994 261.484 286.44 261.804 287.842C258.825 281.346 257.278 274.286 257.268 267.14C257.268 265.347 257.367 263.555 257.567 261.773C257.731 260.312 257.96 258.862 258.253 257.422C259.849 249.608 263.277 242.284 268.255 236.052C270.664 234.737 272.613 232.717 273.838 230.261C274.281 229.379 274.595 228.437 274.769 227.464C274.497 227.5 273.744 223.362 273.949 223.108C273.57 222.534 272.892 222.248 272.479 221.687C270.422 218.899 267.587 219.386 266.108 223.175C262.947 224.77 262.916 227.415 264.856 229.958C266.09 231.577 266.259 233.767 267.342 235.499C267.23 235.642 267.115 235.78 267.003 235.922C264.967 238.54 263.192 241.35 261.705 244.314C262.066 240.994 261.635 237.635 260.445 234.515C259.239 231.607 256.979 229.157 254.988 226.643C252.597 223.623 247.695 224.941 247.273 228.769C247.269 228.807 247.265 228.844 247.261 228.881C247.557 229.047 247.846 229.224 248.13 229.412C248.485 229.649 248.761 229.989 248.92 230.385C249.08 230.782 249.116 231.218 249.023 231.636C248.931 232.053 248.714 232.433 248.402 232.726C248.09 233.018 247.696 233.209 247.274 233.274L247.23 233.281C247.336 234.346 247.522 235.402 247.787 236.439C245.234 246.311 250.747 249.907 258.618 250.068C258.792 250.157 258.961 250.246 259.135 250.331C257.64 254.565 256.703 258.976 256.346 263.452C256.144 266.093 256.156 268.746 256.382 271.385L256.368 271.291C255.798 268.357 254.232 265.709 251.935 263.795C248.524 260.994 243.704 259.962 240.023 257.71C239.632 257.459 239.177 257.325 238.713 257.324C238.248 257.323 237.792 257.455 237.4 257.704C237.008 257.953 236.695 258.309 236.498 258.73C236.302 259.151 236.23 259.62 236.291 260.08C236.296 260.113 236.301 260.146 236.306 260.179C236.854 260.402 237.389 260.659 237.905 260.949C238.201 261.116 238.49 261.293 238.773 261.48C239.129 261.718 239.405 262.057 239.564 262.454C239.724 262.851 239.759 263.287 239.667 263.704C239.574 264.122 239.358 264.502 239.046 264.794C238.733 265.087 238.34 265.278 237.917 265.343L237.874 265.35C237.843 265.354 237.816 265.359 237.785 265.363C238.722 267.601 240.038 269.66 241.674 271.452C243.271 280.07 250.129 280.887 257.464 278.378H257.469C258.274 281.874 259.44 285.277 260.948 288.533H273.379C273.423 288.395 273.463 288.252 273.504 288.114C272.353 288.186 271.198 288.117 270.064 287.909C270.986 286.778 271.908 285.638 272.831 284.506C272.851 284.485 272.871 284.463 272.889 284.439C273.357 283.86 273.829 283.286 274.297 282.707L274.297 282.706C274.322 280.931 274.118 279.16 273.69 277.438Z" fill="#F2F2F2"/>
<path d="M252.978 166.937C256.273 154.979 262.418 144.794 272.34 136.959C272.733 136.353 273.35 135.927 274.056 135.775C274.762 135.623 275.5 135.757 276.107 136.148L298.754 150.766C299.361 151.159 299.787 151.775 299.939 152.481C300.091 153.188 299.956 153.925 299.565 154.532L280.204 184.51C279.811 185.116 279.194 185.542 278.488 185.694C277.781 185.846 277.044 185.712 276.436 185.321L253.79 170.703C253.183 170.31 252.757 169.693 252.605 168.987C252.453 168.281 252.587 167.544 252.978 166.937Z" fill="#F2F2F2"/>
<path d="M260.564 159.003C261.413 152.685 266.641 146.227 273.011 139.731C273.379 139.163 273.957 138.765 274.618 138.622C275.28 138.48 275.971 138.606 276.539 138.972L296.002 151.535C296.57 151.902 296.969 152.48 297.112 153.141C297.254 153.802 297.128 154.493 296.762 155.062L279.533 181.738C279.165 182.305 278.587 182.704 277.926 182.847C277.264 182.989 276.573 182.863 276.004 182.497L263.948 174.715C261.418 173.077 259.64 170.504 259.006 167.558C258.372 164.613 258.932 161.536 260.564 159.003Z" fill="white"/>
<path d="M262.3 184.764C259.426 172.698 259.905 160.814 264.826 149.171C264.878 148.45 265.214 147.78 265.759 147.307C266.305 146.834 267.016 146.596 267.737 146.646L294.627 148.554C295.347 148.606 296.018 148.941 296.491 149.487C296.965 150.032 297.202 150.743 297.152 151.464L294.625 187.057C294.573 187.778 294.238 188.448 293.692 188.921C293.146 189.395 292.435 189.632 291.714 189.582L264.825 187.674C264.104 187.623 263.434 187.287 262.96 186.741C262.487 186.196 262.249 185.485 262.3 184.764Z" fill="#F2F2F2"/>
<path d="M265.126 174.16C262.826 168.214 264.297 160.036 266.75 151.277C266.799 150.602 267.113 149.974 267.625 149.531C268.136 149.088 268.802 148.866 269.477 148.913L292.586 150.552C293.261 150.601 293.889 150.915 294.332 151.426C294.776 151.937 294.998 152.603 294.951 153.277L292.703 184.951C292.654 185.625 292.34 186.253 291.829 186.696C291.318 187.14 290.651 187.362 289.977 187.315L275.661 186.3C272.655 186.083 269.857 184.683 267.883 182.407C265.908 180.131 264.916 177.165 265.126 174.16Z" fill="white"/>
<path d="M264.619 110.278L253.099 67.6531C252.606 65.8486 251.423 64.3105 249.805 63.3706C248.187 62.4306 246.264 62.1642 244.452 62.6289C243.514 62.8693 242.635 63.2981 241.869 63.8891C241.102 64.4801 240.464 65.221 239.993 66.0666C239.523 66.9122 239.229 67.8448 239.131 68.8075C239.032 69.7702 239.131 70.7428 239.421 71.6661L252.745 115.576L259.716 142.598C258.701 143.373 257.949 144.442 257.562 145.659C257.175 146.876 257.173 148.183 257.555 149.401C257.937 150.62 258.685 151.691 259.698 152.47C260.71 153.249 261.938 153.697 263.214 153.754C264.49 153.811 265.753 153.474 266.831 152.788C267.908 152.103 268.749 151.102 269.238 149.922C269.727 148.743 269.841 147.441 269.565 146.194C269.288 144.948 268.634 143.816 267.692 142.954L264.619 110.278Z" fill="#FFB6B6"/>
<path d="M181.54 117.651L193.354 75.1073C193.849 73.3034 193.615 71.3771 192.702 69.7443C191.789 68.1114 190.27 66.9029 188.474 66.3794C187.544 66.1086 186.57 66.0299 185.609 66.148C184.648 66.2661 183.721 66.5786 182.885 67.0664C182.049 67.5542 181.321 68.2071 180.746 68.9853C180.171 69.7635 179.76 70.6507 179.539 71.5928L168.622 116.162L160.847 142.964C159.579 143.114 158.387 143.65 157.434 144.5C156.481 145.351 155.813 146.474 155.521 147.717C155.228 148.96 155.326 150.263 155.8 151.449C156.274 152.635 157.102 153.646 158.171 154.345C159.24 155.044 160.499 155.397 161.775 155.356C163.052 155.315 164.285 154.882 165.308 154.117C166.33 153.351 167.091 152.289 167.489 151.075C167.886 149.861 167.9 148.555 167.529 147.333L181.54 117.651Z" fill="#FFB6B6"/>
<path d="M249.144 281.075L241.616 281.075L238.035 252.048L249.145 252.048L249.144 281.075Z" fill="#FFB6B6"/>
<path d="M249.409 288.926L226.26 288.925V288.632C226.26 286.244 227.209 283.953 228.899 282.263C230.589 280.574 232.88 279.625 235.27 279.625L239.499 276.418L247.388 279.626L249.409 279.626L249.409 288.926Z" fill="#2F2E41"/>
<path d="M196.169 281.151L188.758 279.829L190.329 250.624L201.267 252.575L196.169 281.151Z" fill="#FFB6B6"/>
<path d="M195.051 288.926L172.262 284.863L172.313 284.575C172.733 282.223 174.07 280.134 176.03 278.768C177.99 277.402 180.412 276.869 182.765 277.289L187.491 274.874L194.695 279.416L196.684 279.77L195.051 288.926Z" fill="#2F2E41"/>
<path d="M196.903 147.614C196.903 147.614 189.887 157.548 190.173 160.881C190.459 164.215 192.937 161.556 190.459 164.215C187.981 166.874 186.538 165.09 187.755 168.376C188.972 171.661 189.468 169.534 188.972 171.661C188.477 173.789 189.468 255.166 189.468 255.166H202.369C202.369 255.166 209.644 207.98 208.723 205.777C207.802 203.574 207.824 204.533 208.804 202.192C209.785 199.851 210.707 197.066 210.707 197.066L220.905 168.376L228.771 208.771L238.03 256.772H250.393C250.393 256.772 252.51 186.185 253.446 185.306C254.382 184.427 253.262 182.45 252.088 181.311C250.913 180.171 251.147 179.015 251.526 176.668C251.904 174.321 253.501 173.012 253.446 171.539C253.391 170.066 256.86 146.663 251.409 142.94C245.958 139.217 196.903 147.614 196.903 147.614Z" fill="#2F2E41"/>
<path d="M240.039 48.6628L225.608 44.9245L218.871 35.6365L202.874 37.6025L199.468 50.2714L188.079 56.8803C208.495 57.0023 197.501 116.131 200.501 119.946C202.943 123.05 188.313 130.436 192.898 135.147C197.483 139.858 195.788 137.973 194.724 143.102C193.66 148.232 185.904 153.66 194.724 153.606C203.544 153.552 256.765 152.792 255.245 146.711C253.724 140.631 253.748 142.175 251.455 138.363C249.162 134.55 247.619 136.681 248.391 131.055C249.162 125.43 246.656 121.078 248.402 118.589C251.082 114.768 248.381 87.1851 245.855 87.9213L240.039 48.6628Z" fill="#228B22"/>
<path d="M235.919 48.86C235.919 48.86 246.475 44.3767 250.277 52.7375C251.491 55.4078 252.513 62.1152 253.498 60.6278C254.483 59.1404 253.533 62.4012 254.143 62.4052C254.687 62.4088 255.524 61.5287 254.891 64.5607C254.693 65.5553 254.75 66.5838 255.057 67.5504C255.364 68.517 255.911 69.3902 256.646 70.0885L238.299 81.0732L235.919 48.86Z" fill="#228B22"/>
<path d="M196.257 56.4608C196.257 56.4608 185.701 51.9776 181.9 60.3383C180.83 62.6897 181.096 67.9144 179.015 67.3278C176.933 66.7412 178.411 68.9513 178.136 69.7191C177.83 70.5748 179.166 72.9965 177.289 72.1491C175.412 71.3016 175.53 77.6893 175.53 77.6893L193.877 88.6741L196.257 56.4608Z" fill="#228B22"/>
<path d="M201.262 43.9392L198.221 49.2597C198.221 49.2597 189.858 53.8201 189.858 54.5801C189.858 55.3402 191.378 61.5464 189.858 66.424C188.337 71.3016 192.76 80.4746 193.659 88.0231C197.461 119.946 186.156 131.545 183.775 151.869L207.902 158.913C207.902 158.913 211.907 105.505 211.907 93.3435C211.907 81.1825 201.262 43.9392 201.262 43.9392Z" fill="#2F2E41"/>
<path d="M223.31 41.6589L229.526 45.1929C229.526 45.1929 237.659 46.9856 237.756 47.7395C237.853 48.4933 237.882 56.5052 240.014 61.1487C242.145 65.7922 241.558 68.2613 247.298 81.9883C250.231 89.0019 256.964 145.117 256.964 145.117L233.935 155.184C233.935 155.184 223.139 102.725 221.585 90.6632C220.031 78.6017 223.31 41.6589 223.31 41.6589Z" fill="#2F2E41"/>
<path d="M207.77 34.4124C216.452 34.4124 223.491 27.3761 223.491 18.6964C223.491 10.0167 216.452 2.98047 207.77 2.98047C199.087 2.98047 192.049 10.0167 192.049 18.6964C192.049 27.3761 199.087 34.4124 207.77 34.4124Z" fill="#FFB6B6"/>
<path d="M218.116 30.9071C214.4 28.0033 219.48 15.2291 213.343 17.9557C213.343 17.9557 205.842 13.1842 204.336 16.3197C202.591 19.9504 196.385 18.3034 192.573 17.0219C192.873 16.3257 193.086 15.5954 193.208 14.8474C192.504 15.4016 191.758 15.9007 190.978 16.3402C190.454 16.0606 189.991 15.6807 189.614 15.2223C189.242 14.7966 189.01 14.2673 188.947 13.7056C188.885 13.1438 188.997 12.5765 189.266 12.0799C189.9 11.1051 191.21 10.8052 191.98 9.93948C192.069 9.81774 192.127 9.67623 192.15 9.52708C192.172 9.37793 192.158 9.2256 192.108 9.08317C192.016 8.73486 192.002 8.37059 192.068 8.01632C192.133 7.66205 192.275 7.32648 192.485 7.03354C192.694 6.74059 192.966 6.49748 193.28 6.32151C193.595 6.14554 193.944 6.04105 194.304 6.01548C194.448 6.01989 194.592 5.98866 194.721 5.92454C195.368 5.52875 195.966 5.05737 196.501 4.52034C195.608 4.56124 196.7 -0.904792 205.556 0.130496C207.786 0.0487047 208.95 2.507 211.146 2.89555C216.468 -0.14472 221.218 4.24088 223.53 8.433C225.842 12.6252 228.344 26.1355 218.116 30.9071Z" fill="#2F2E41"/>
<path d="M151.037 8.36133H10.1148C7.43385 8.36356 4.86324 9.42885 2.96699 11.3235C1.07073 13.2181 0.00371002 15.7873 0 18.4674V145.41C0.0034863 148.09 1.07027 150.66 2.96641 152.556C4.86255 154.451 7.43327 155.518 10.1148 155.521H151.037C153.718 155.518 156.288 154.451 158.183 152.555C160.078 150.66 161.144 148.09 161.146 145.41V18.4674C161.143 15.7879 160.078 13.2188 158.182 11.324C156.287 9.42931 153.717 8.36378 151.037 8.36133Z" fill="white"/>
<path d="M86.6478 37.4966H71.5927C70.8533 37.4966 70.1441 37.203 69.6213 36.6803C69.0984 36.1576 68.8047 35.4487 68.8047 34.7095C68.8047 33.9703 69.0984 33.2614 69.6213 32.7387C70.1441 32.216 70.8533 31.9224 71.5927 31.9224H86.6478C87.3873 31.9224 88.0964 32.216 88.6192 32.7387C89.1421 33.2614 89.4358 33.9703 89.4358 34.7095C89.4358 35.4487 89.1421 36.1576 88.6192 36.6803C88.0964 37.203 87.3873 37.4966 86.6478 37.4966Z" fill="#228B22"/>
<path d="M286.268 165.555H271.213C270.473 165.555 269.764 165.262 269.241 164.739C268.719 164.216 268.425 163.507 268.425 162.768C268.425 162.029 268.719 161.32 269.241 160.797C269.764 160.275 270.473 159.981 271.213 159.981H286.268C287.007 159.981 287.717 160.275 288.239 160.797C288.762 161.32 289.056 162.029 289.056 162.768C289.056 163.507 288.762 164.216 288.239 164.739C287.717 165.262 287.007 165.555 286.268 165.555Z" fill="#228B22"/>
<path d="M125.679 95.877H32.5605C31.821 95.877 31.1119 95.5833 30.589 95.0606C30.0662 94.538 29.7725 93.829 29.7725 93.0899C29.7725 92.3507 30.0662 91.6417 30.589 91.1191C31.1119 90.5964 31.821 90.3027 32.5605 90.3027H125.679C126.419 90.3027 127.128 90.5964 127.651 91.1191C128.174 91.6417 128.467 92.3507 128.467 93.0899C128.467 93.829 128.174 94.538 127.651 95.0606C127.128 95.5833 126.419 95.877 125.679 95.877Z" fill="#E6E6E6"/>
<path d="M125.679 114.272H32.5605C31.821 114.272 31.1119 113.978 30.589 113.456C30.0662 112.933 29.7725 112.224 29.7725 111.485C29.7725 110.746 30.0662 110.037 30.589 109.514C31.1119 108.991 31.821 108.698 32.5605 108.698H125.679C126.419 108.698 127.128 108.991 127.651 109.514C128.174 110.037 128.467 110.746 128.467 111.485C128.467 112.224 128.174 112.933 127.651 113.456C127.128 113.978 126.419 114.272 125.679 114.272Z" fill="#E6E6E6"/>
<path d="M125.679 132.667H32.5605C31.821 132.667 31.1119 132.373 30.589 131.851C30.0662 131.328 29.7725 130.619 29.7725 129.88C29.7725 129.141 30.0662 128.432 30.589 127.909C31.1119 127.386 31.821 127.093 32.5605 127.093H125.679C126.419 127.093 127.128 127.386 127.651 127.909C128.174 128.432 128.467 129.141 128.467 129.88C128.467 130.619 128.174 131.328 127.651 131.851C127.128 132.373 126.419 132.667 125.679 132.667Z" fill="#E6E6E6"/>
<path d="M106.646 45.8594H51.5943C48.9133 45.8616 46.3428 46.9269 44.4465 48.8215C42.5502 50.7161 41.4832 53.2854 41.4795 55.9655V72.5377C41.483 75.2184 42.5498 77.7884 44.4459 79.6839C46.342 81.5795 48.9128 82.6459 51.5943 82.6494H106.646C109.327 82.6457 111.897 81.579 113.792 79.6833C115.687 77.7877 116.753 75.2179 116.755 72.5377V55.9655C116.753 53.2859 115.687 50.7168 113.792 48.8221C111.896 46.9274 109.326 45.8618 106.646 45.8594ZM115.64 72.5377C115.64 74.9238 114.692 77.2122 113.004 78.8994C111.316 80.5867 109.027 81.5345 106.64 81.5345H67.1219C60.6169 81.5345 54.3783 78.9512 49.7785 74.3529C45.1788 69.7546 42.5947 63.518 42.5947 57.015V55.9655C42.5985 53.5811 43.548 51.2955 45.2351 49.6099C46.9222 47.9244 49.2091 46.9765 51.5943 46.9742H106.646C109.031 46.9768 111.317 47.9249 113.003 49.6105C114.689 51.2961 115.638 53.5816 115.64 55.9655V72.5377Z" fill="#E6E6E6"/>
<path d="M79.737 70.2354C84.9722 70.2354 89.2162 65.9927 89.2162 60.7592C89.2162 55.5256 84.9722 51.283 79.737 51.283C74.5018 51.283 70.2578 55.5256 70.2578 60.7592C70.2578 65.9927 74.5018 70.2354 79.737 70.2354Z" fill="#E6E6E6"/>
<path d="M101.544 82.6494L59.1055 82.4989L72.4878 79.1543L74.155 73.6525L86.9854 73.5801L90.8272 79.0205L100.529 81.5345L101.41 81.7631L101.544 82.6494Z" fill="#E6E6E6"/>
<path d="M74.3497 66.8096C76.3838 65.2201 73.6032 58.2279 76.9624 59.7204C76.9624 59.7204 81.0679 57.1085 81.8928 58.8249C82.8479 60.8122 86.2447 59.9107 88.3311 59.2092C88.1671 58.8281 88.0506 58.4284 87.984 58.0189C88.3692 58.3223 88.7772 58.5955 89.2045 58.8361C89.491 58.683 89.7447 58.4751 89.951 58.2241C90.1545 57.9911 90.2818 57.7014 90.3159 57.3939C90.3499 57.0865 90.289 56.7759 90.1413 56.5041C89.7942 55.9705 89.0776 55.8063 88.6559 55.3325C88.6071 55.2658 88.5753 55.1884 88.5631 55.1067C88.5509 55.0251 88.5587 54.9417 88.5858 54.8637C88.6361 54.6731 88.6437 54.4737 88.608 54.2798C88.5724 54.0859 88.4944 53.9022 88.3797 53.7418C88.2649 53.5815 88.1162 53.4484 87.9441 53.3521C87.772 53.2557 87.5808 53.1986 87.3841 53.1846C87.3049 53.187 87.2264 53.1699 87.1554 53.1348C86.8014 52.9181 86.4743 52.6601 86.1813 52.3662C86.6702 52.3886 86.0724 49.3966 81.2247 49.9633C80.0043 49.9185 79.3669 51.2641 78.1651 51.4768C75.2519 49.8126 72.6515 52.2132 71.3862 54.5079C70.1209 56.8025 68.7512 64.1978 74.3497 66.8096Z" fill="#E6E6E6"/>
<path d="M151.037 8.36133H10.1148C7.43385 8.36356 4.86324 9.42885 2.96699 11.3235C1.07073 13.2181 0.00371002 15.7873 0 18.4674V145.41C0.0034863 148.09 1.07027 150.66 2.96641 152.556C4.86255 154.451 7.43327 155.518 10.1148 155.521H151.037C153.718 155.518 156.288 154.451 158.183 152.555C160.078 150.66 161.144 148.09 161.146 145.41V18.4674C161.143 15.7879 160.078 13.2188 158.182 11.324C156.287 9.42931 153.717 8.36378 151.037 8.36133ZM160.031 145.41C160.031 147.796 159.083 150.084 157.395 151.771C155.707 153.459 153.418 154.407 151.031 154.407H73.7149C64.181 154.407 54.7404 152.529 45.9322 148.882C37.124 145.235 29.1207 139.889 22.3792 133.149C15.6377 126.41 10.29 118.409 6.64151 109.604C2.99303 100.798 1.11519 91.3604 1.1152 81.8294V18.4674C1.11899 16.083 2.06856 13.7974 3.75565 12.1119C5.44275 10.4263 7.72965 9.47849 10.1148 9.47618H151.037C153.421 9.47871 155.707 10.4268 157.394 12.1125C159.08 13.7981 160.028 16.0836 160.031 18.4674V145.41Z" fill="#E6E6E6"/>
<path d="M298.263 289.829L122.42 290C122.245 289.999 122.077 289.929 121.953 289.804C121.829 289.68 121.76 289.512 121.76 289.336C121.76 289.161 121.829 288.992 121.953 288.868C122.077 288.744 122.245 288.673 122.42 288.673L298.263 288.501C298.439 288.502 298.607 288.572 298.73 288.697C298.854 288.821 298.924 288.989 298.924 289.165C298.924 289.34 298.854 289.509 298.73 289.633C298.607 289.757 298.439 289.828 298.263 289.829Z" fill="#CACACA"/>
</g>
<defs>
<clipPath id="clip0_2108_5420">
<rect width="300" height="290" fill="white"/>
</clipPath>
</defs>
</svg>
