<svg width="18" height="24" viewBox="0 0 18 24" fill="none" xmlns="http://www.w3.org/2000/svg">
<path fill-rule="evenodd" clip-rule="evenodd" d="M9.00014 23.4858L9.90157 22.4701C10.9244 21.2996 11.8449 20.1858 12.663 19.1287L13.3387 18.2372C16.1606 14.4363 17.5716 11.4206 17.5716 9.1901C17.5716 4.4301 13.7344 0.571533 9.00014 0.571533C4.26585 0.571533 0.428711 4.4301 0.428711 9.1901C0.428711 11.4206 1.83966 14.4368 4.66157 18.2387L5.33728 19.1301C6.50521 20.6262 7.72696 22.0782 9.00014 23.4858Z" fill="#228B22"/>
<path d="M9.00014 12.7144C10.9726 12.7144 12.5716 11.1154 12.5716 9.14296C12.5716 7.17052 10.9726 5.57153 9.00014 5.57153C7.02769 5.57153 5.42871 7.17052 5.42871 9.14296C5.42871 11.1154 7.02769 12.7144 9.00014 12.7144Z" stroke="#F5F5F5" stroke-linecap="round" stroke-linejoin="round"/>
</svg>
