<svg width="20" height="20" viewBox="0 0 20 20" fill="none" xmlns="http://www.w3.org/2000/svg">
<path d="M7.91667 3.33334C9.35326 3.33334 10.731 3.90403 11.7468 4.91985C12.7627 5.93567 13.3333 7.31342 13.3333 8.75001C13.3333 10.1 12.8417 11.3333 12.025 12.275L16.7333 16.9833L16.1417 17.575L11.4333 12.8667C10.4544 13.7068 9.20667 14.1681 7.91667 14.1667C6.48008 14.1667 5.10233 13.596 4.0865 12.5802C3.07068 11.5644 2.5 10.1866 2.5 8.75001C2.5 7.31342 3.07068 5.93567 4.0865 4.91985C5.10233 3.90403 6.48008 3.33334 7.91667 3.33334ZM7.91667 4.16668C6.70109 4.16668 5.5353 4.64956 4.67576 5.5091C3.81622 6.36865 3.33333 7.53443 3.33333 8.75001C3.33333 9.96559 3.81622 11.1314 4.67576 11.9909C5.5353 12.8505 6.70109 13.3333 7.91667 13.3333C8.51856 13.3333 9.11456 13.2148 9.67063 12.9845C10.2267 12.7541 10.732 12.4165 11.1576 11.9909C11.5832 11.5653 11.9208 11.0601 12.1511 10.504C12.3814 9.9479 12.5 9.3519 12.5 8.75001C12.5 8.14812 12.3814 7.55212 12.1511 6.99604C11.9208 6.43997 11.5832 5.93471 11.1576 5.5091C10.732 5.0835 10.2267 4.7459 9.67063 4.51556C9.11456 4.28523 8.51856 4.16668 7.91667 4.16668Z" fill="#228B22"/>
</svg>
