<svg width="30" height="30" viewBox="0 0 30 30" fill="none" xmlns="http://www.w3.org/2000/svg">
<path fill-rule="evenodd" clip-rule="evenodd" d="M9.18 6.43287L20.7429 6.42859C21.102 6.42852 21.448 6.56372 21.7119 6.80728C21.9759 7.05084 22.1384 7.38488 22.1671 7.74287L23.4443 23.4557C23.4595 23.6428 23.4378 23.831 23.3803 24.0096C23.3227 24.1883 23.2306 24.3538 23.1091 24.4969C22.9876 24.6399 22.839 24.7575 22.672 24.8431C22.505 24.9287 22.3228 24.9806 22.1357 24.9957L22.0214 25H7.97143C7.59255 25 7.22919 24.8495 6.96128 24.5816C6.69337 24.3137 6.54286 23.9503 6.54286 23.5714L6.54714 23.4614L7.75572 7.75145C7.78342 7.39268 7.9455 7.05759 8.20955 6.81314C8.4736 6.56869 8.82017 6.43289 9.18 6.43287Z" fill="#228B22"/>
<path d="M19.2857 12.1428V13.0643C19.2857 14.6428 16.5786 15 15 15C13.4214 15 10.7143 14.4357 10.7143 12.8571V12.1428" stroke="#F5F5F5" stroke-linecap="round" stroke-linejoin="round"/>
</svg>
