<svg width="30" height="30" viewBox="0 0 30 30" fill="none" xmlns="http://www.w3.org/2000/svg">
<path fill-rule="evenodd" clip-rule="evenodd" d="M9.18011 6.43287L20.743 6.42859C21.1021 6.42852 21.4481 6.56372 21.7121 6.80728C21.976 7.05084 22.1385 7.38488 22.1673 7.74287L23.4444 23.4557C23.4596 23.6428 23.4379 23.831 23.3804 24.0096C23.3229 24.1883 23.2307 24.3538 23.1092 24.4969C22.9877 24.6399 22.8392 24.7575 22.6721 24.8431C22.5051 24.9287 22.3229 24.9806 22.1358 24.9957L22.0215 25H7.97154C7.59266 25 7.2293 24.8495 6.96139 24.5816C6.69348 24.3137 6.54297 23.9503 6.54297 23.5714L6.54725 23.4614L7.75583 7.75145C7.78353 7.39268 7.94561 7.05759 8.20966 6.81314C8.47371 6.56869 8.82028 6.43289 9.18011 6.43287Z" stroke="#767676" stroke-linecap="round" stroke-linejoin="round"/>
<path d="M19.2858 12.1428V13.0643C19.2858 14.6428 16.5786 15 15.0001 15C13.4215 15 10.7144 14.4357 10.7144 12.8571V12.1428" stroke="#767676" stroke-linecap="round" stroke-linejoin="round"/>
</svg>
