<svg width="25" height="25" viewBox="0 0 25 25" fill="none" xmlns="http://www.w3.org/2000/svg">
<path d="M7.81254 2.08333C5.94796 3.28125 4.68754 5.39583 4.68754 7.8125C4.68754 10.2292 5.94796 12.3437 7.84379 13.5417C4.64587 13.5417 2.08337 10.9792 2.08337 7.8125C2.08337 6.29303 2.68698 4.83579 3.76141 3.76137C4.83584 2.68694 6.29307 2.08333 7.81254 2.08333ZM19.8646 3.64583L21.3542 5.13542L5.13546 21.3542L3.64587 19.8646L19.8646 3.64583ZM13.4271 6.17708L11.8855 5.20833L10.3855 6.25L10.823 4.47917L9.37504 3.375L11.198 3.25L11.8021 1.53125L12.5 3.22917L14.3021 3.26042L12.8959 4.4375L13.4271 6.17708ZM9.98962 9.9375L8.78129 9.17708L7.61462 9.98958L7.96879 8.61458L6.83337 7.75L8.25004 7.65625L8.71879 6.3125L9.25004 7.63542L10.6667 7.66667L9.57296 8.57292L9.98962 9.9375ZM19.7917 14.0625C19.7917 15.582 19.1881 17.0392 18.1137 18.1136C17.0392 19.1881 15.582 19.7917 14.0625 19.7917C12.7917 19.7917 11.6146 19.375 10.6667 18.6771L18.6771 10.6667C19.375 11.6146 19.7917 12.7917 19.7917 14.0625ZM15.2084 20.9167L18.0938 19.7188L17.8438 23.2083L15.2084 20.9167ZM19.7188 18.1042L20.9167 15.2187L23.2084 17.8646L19.7188 18.1042ZM20.9167 12.9375L19.7292 10.0417L23.2084 10.2917L20.9167 12.9375ZM10.0313 19.7188L12.9167 20.9167L10.2813 23.1979L10.0313 19.7188Z" fill="#228B22"/>
</svg>
