<svg width="17" height="15" viewBox="0 0 17 15" fill="none" xmlns="http://www.w3.org/2000/svg">
<path d="M1.5 4.49997H15.5M1.5 4.49997V12.498C1.5 13.0284 1.71071 13.5371 2.08579 13.9122C2.46086 14.2873 2.96957 14.498 3.5 14.498H13.5C14.0304 14.498 14.5391 14.2873 14.9142 13.9122C15.2893 13.5371 15.5 13.0284 15.5 12.498V4.49997M1.5 4.49997C1.23478 4.49997 0.98043 4.39462 0.792893 4.20708C0.605357 4.01954 0.5 3.76519 0.5 3.49997V1.52197C0.5 1.25676 0.605357 1.0024 0.792893 0.814866C0.98043 0.627329 1.23478 0.521973 1.5 0.521973H15.5C15.7652 0.521973 16.0196 0.627329 16.2071 0.814866C16.3946 1.0024 16.5 1.25676 16.5 1.52197V3.49997C16.5 3.76519 16.3946 4.01954 16.2071 4.20708C16.0196 4.39462 15.7652 4.49997 15.5 4.49997M6.5 7.49997H10.5" stroke="#767676" stroke-linecap="round" stroke-linejoin="round"/>
</svg>
