<svg width="50" height="50" viewBox="0 0 50 50" fill="none" xmlns="http://www.w3.org/2000/svg">
<path d="M14.5834 35.4167C11.6904 35.4167 9.23064 34.4049 7.20425 32.3813C5.17786 30.3577 4.16536 27.9007 4.16675 25.0104C4.16814 22.1202 5.18064 19.6583 7.20425 17.625C9.23064 15.5972 11.6904 14.5833 14.5834 14.5833H35.4168C38.3098 14.5833 40.7695 15.5951 42.7959 17.6188C44.8223 19.6424 45.8348 22.0993 45.8334 24.9896C45.832 27.8799 44.8195 30.341 42.7959 32.3729C40.7695 34.4021 38.3098 35.4167 35.4168 35.4167H14.5834ZM14.5834 33.3333H35.4168C37.7084 33.3333 39.6702 32.5174 41.3022 30.8854C42.9341 29.2535 43.7501 27.2917 43.7501 25C43.7501 22.7083 42.9341 20.7465 41.3022 19.1146C39.6702 17.4826 37.7084 16.6667 35.4168 16.6667H14.5834C12.2917 16.6667 10.3299 17.4826 8.698 19.1146C7.06606 20.7465 6.25008 22.7083 6.25008 25C6.25008 27.2917 7.06606 29.2535 8.698 30.8854C10.3299 32.5174 12.2917 33.3333 14.5834 33.3333ZM14.5793 30.2083C16.0237 30.2083 17.2536 29.7028 18.2688 28.6917C19.2841 27.6806 19.7917 26.4514 19.7917 25.0042C19.7917 23.557 19.2862 22.3271 18.2751 21.3146C17.264 20.3021 16.0348 19.7945 14.5876 19.7917C13.1404 19.7889 11.9105 20.2951 10.898 21.3104C9.8855 22.3257 9.37786 23.5542 9.37508 24.9958C9.37231 26.4375 9.87856 27.6674 10.8938 28.6854C11.9091 29.7035 13.1376 30.2111 14.5793 30.2083Z" fill="#787676"/>
</svg>
