<svg width="50" height="50" viewBox="0 0 50 50" fill="none" xmlns="http://www.w3.org/2000/svg">
<path d="M14.5834 35.4167C11.6904 35.4167 9.23064 34.4049 7.20425 32.3813C5.17786 30.3577 4.16536 27.9007 4.16675 25.0104C4.16814 22.1202 5.18064 19.6583 7.20425 17.625C9.23064 15.5972 11.6904 14.5833 14.5834 14.5833H35.4168C38.3098 14.5833 40.7695 15.5951 42.7959 17.6188C44.8223 19.6424 45.8348 22.0993 45.8334 24.9896C45.832 27.8799 44.8195 30.341 42.7959 32.3729C40.7695 34.4021 38.3098 35.4167 35.4168 35.4167H14.5834ZM35.4126 30.2083C36.857 30.2083 38.0869 29.7028 39.1022 28.6917C40.1174 27.6806 40.6251 26.4514 40.6251 25.0042C40.6251 23.557 40.1195 22.3271 39.1084 21.3146C38.0973 20.3021 36.8681 19.7945 35.4209 19.7917C33.9737 19.7889 32.7438 20.2951 31.7313 21.3104C30.7188 22.3257 30.2112 23.5542 30.2084 24.9958C30.2056 26.4375 30.7119 27.6674 31.7272 28.6854C32.7424 29.7035 33.9709 30.2111 35.4126 30.2083Z" fill="#228B22"/>
</svg>
