<svg width="25" height="25" viewBox="0 0 25 25" fill="none" xmlns="http://www.w3.org/2000/svg">
<path d="M12.5003 4.16667C13.6054 4.16667 14.6652 4.60566 15.4466 5.38706C16.228 6.16846 16.667 7.22827 16.667 8.33334C16.667 9.43841 16.228 10.4982 15.4466 11.2796C14.6652 12.061 13.6054 12.5 12.5003 12.5C11.3953 12.5 10.3354 12.061 9.55405 11.2796C8.77265 10.4982 8.33366 9.43841 8.33366 8.33334C8.33366 7.22827 8.77265 6.16846 9.55405 5.38706C10.3354 4.60566 11.3953 4.16667 12.5003 4.16667ZM12.5003 14.5833C17.1045 14.5833 20.8337 16.4479 20.8337 18.75V20.8333H4.16699V18.75C4.16699 16.4479 7.89616 14.5833 12.5003 14.5833Z" fill="#D1D1D6"/>
</svg>
