<svg width="25" height="25" viewBox="0 0 25 25" fill="none" xmlns="http://www.w3.org/2000/svg">
<path d="M12.5 12.5C13.4472 12.5 14.3556 12.1237 15.0253 11.454C15.6951 10.7842 16.0714 9.87578 16.0714 8.92858V6.54762C16.0714 5.60042 15.6951 4.69202 15.0253 4.02224C14.3556 3.35247 13.4472 2.9762 12.5 2.9762C11.5528 2.9762 10.6444 3.35247 9.97458 4.02224C9.3048 4.69202 8.92853 5.60042 8.92853 6.54762V8.92858C8.92853 9.87578 9.3048 10.7842 9.97458 11.454C10.6444 12.1237 11.5528 12.5 12.5 12.5ZM12.5 12.5C16.4452 12.5 20.8333 14.9821 20.8333 18.7762V19.6429C20.8333 19.9586 20.7079 20.2614 20.4846 20.4847C20.2614 20.7079 19.9586 20.8333 19.6428 20.8333H5.3571C5.04137 20.8333 4.73857 20.7079 4.51531 20.4847C4.29205 20.2614 4.16663 19.9586 4.16663 19.6429V18.7762C4.16663 14.9821 8.55472 12.5 12.5 12.5Z" stroke="#228B22" stroke-width="1.5" stroke-linecap="round" stroke-linejoin="round"/>
</svg>
