<svg width="21" height="21" viewBox="0 0 21 21" fill="none" xmlns="http://www.w3.org/2000/svg">
<path d="M10.5004 20.0237C15.7602 20.0237 20.0242 15.7597 20.0242 10.4999C20.0242 5.24003 15.7602 0.976074 10.5004 0.976074C5.24052 0.976074 0.976562 5.24003 0.976562 10.4999C0.976562 15.7597 5.24052 20.0237 10.5004 20.0237Z" stroke="#767676" stroke-linecap="round" stroke-linejoin="round"/>
<path d="M17.6431 16.4523C16.855 13.7451 13.8336 12.8511 10.5003 12.8511C7.25385 12.8511 4.22647 13.8856 3.35742 16.4523" stroke="#767676" stroke-linecap="round" stroke-linejoin="round"/>
<path fill-rule="evenodd" clip-rule="evenodd" d="M10.5001 3.35693C11.4473 3.35693 12.3557 3.73321 13.0255 4.40298C13.6953 5.07275 14.0716 5.98116 14.0716 6.92836V9.30931C14.0716 10.2565 13.6953 11.1649 13.0255 11.8347C12.3557 12.5045 11.4473 12.8807 10.5001 12.8807C9.55294 12.8807 8.64453 12.5045 7.97476 11.8347C7.30499 11.1649 6.92871 10.2565 6.92871 9.30931V6.92836C6.92871 5.98116 7.30499 5.07275 7.97476 4.40298C8.64453 3.73321 9.55294 3.35693 10.5001 3.35693Z" stroke="#767676" stroke-linecap="round" stroke-linejoin="round"/>
</svg>
