<svg width="25" height="25" viewBox="0 0 25 25" fill="none" xmlns="http://www.w3.org/2000/svg">
<path d="M4.16663 7.73813H18.4523C19.0838 7.73813 19.6894 7.98898 20.1359 8.43549C20.5824 8.88201 20.8333 9.48761 20.8333 10.1191V17.2619C20.8333 17.8934 20.5824 18.499 20.1359 18.9455C19.6894 19.392 19.0838 19.6429 18.4523 19.6429H6.54758C5.91611 19.6429 5.31051 19.392 4.86399 18.9455C4.41748 18.499 4.16663 17.8934 4.16663 17.2619V7.73813ZM4.16663 7.73813H17.2619V6.54765C17.2619 6.23192 17.1364 5.92912 16.9132 5.70586C16.6899 5.4826 16.3871 5.35718 16.0714 5.35718H5.3571C5.04137 5.35718 4.73857 5.4826 4.51531 5.70586C4.29205 5.92912 4.16663 6.23192 4.16663 6.54765V7.73813Z" stroke="#228B22" stroke-width="1.5" stroke-linecap="round" stroke-linejoin="round"/>
<path d="M17.2619 14.881C17.9194 14.881 18.4524 14.348 18.4524 13.6905C18.4524 13.033 17.9194 12.5 17.2619 12.5C16.6044 12.5 16.0714 13.033 16.0714 13.6905C16.0714 14.348 16.6044 14.881 17.2619 14.881Z" fill="#228B22"/>
</svg>
